SplineFontDB: 3.0
FontName: Kunika-Light
FullName: Kunika Light
FamilyName: Kunika
Weight: Light
Copyright: Copyright (c) 2018, Leo Kuroshita.
Version: 1
ItalicAngle: 0
UnderlinePosition: -150
UnderlineWidth: 50
Ascent: 800
Descent: 200
InvalidEm: 0
sfntRevision: 0x00010000
LayerCount: 2
Layer: 0 1 "+gMyXYgAA" 1
Layer: 1 1 "+Uk2XYgAA" 0
XUID: [1021 353 -2134623326 4935031]
FSType: 0
OS2Version: 4
OS2_WeightWidthSlopeOnly: 0
OS2_UseTypoMetrics: 0
CreationTime: 1540270241
ModificationTime: 1540436449
PfmFamily: 33
TTFWeight: 300
TTFWidth: 5
LineGap: 0
VLineGap: 0
Panose: 0 0 0 0 0 0 0 0 0 0
OS2TypoAscent: 799
OS2TypoAOffset: 0
OS2TypoDescent: -289
OS2TypoDOffset: 0
OS2TypoLinegap: 0
OS2WinAscent: 771
OS2WinAOffset: 0
OS2WinDescent: 289
OS2WinDOffset: 0
HheadAscent: 799
HheadAOffset: 0
HheadDescent: -289
HheadDOffset: 0
OS2SubXSize: 650
OS2SubYSize: 699
OS2SubXOff: 0
OS2SubYOff: 140
OS2SupXSize: 650
OS2SupYSize: 699
OS2SupXOff: 0
OS2SupYOff: 479
OS2StrikeYSize: 49
OS2StrikeYPos: 258
OS2CapHeight: 579
OS2XHeight: 434
OS2Vendor: 'XXXX'
OS2CodePages: 00000003.00000000
OS2UnicodeRanges: 80000027.5000004a.00000000.00000000
Lookup: 3 0 0 "'aalt' +MFkweTBmMG51cE9TW1cweDBuMKIwrzC7MLkA in +MOkwxjDzZYdbVwAA lookup 0" { "'aalt' +MFkweTBmMG51cE9TW1cweDBuMKIwrzC7MLkA in +MOkwxjDzZYdbVwAA lookup 0 +MLUw1jDGMPww1jDr"  } ['aalt' ('DFLT' <'dflt' > 'latn' <'dflt' > ) ]
Lookup: 1 0 0 "'aalt' +MFkweTBmMG51cE9TW1cweDBuMKIwrzC7MLkA in +MOkwxjDzZYdbVwAA lookup 1" { "'aalt' +MFkweTBmMG51cE9TW1cweDBuMKIwrzC7MLkA in +MOkwxjDzZYdbVwAA lookup 1 +MLUw1jDGMPww1jDr"  } ['aalt' ('DFLT' <'dflt' > 'latn' <'dflt' > ) ]
Lookup: 4 0 0 "'dlig' +TvthD09/dSgwblQIW1cA in +MOkwxjDzZYdbVwAA lookup 2" { "'dlig' +TvthD09/dSgwblQIW1cA in +MOkwxjDzZYdbVwAA lookup 2 +MLUw1jDGMPww1jDr"  } ['dlig' ('DFLT' <'dflt' > 'latn' <'dflt' > ) ]
Lookup: 258 8 0 "Pair Kernings" { "AV-1" [150,15,0] } ['kern' ('DFLT' <'dflt' > 'latn' <'dflt' > ) ]
MarkAttachClasses: 1
DEI: 91125
ShortTable: maxp 16
  1
  0
  225
  112
  7
  0
  0

StartChar: exclam
Encoding: 33 33 6
Width: 175
GlyphClass: 2
Flags: W
HStem: 10 63<64.7976 116.773> 559 20G<30 143>
VStem: 55 63<19.2823 63.7177 165 280.92>
LayerCount: 2
Fore
SplineSet
64.5 64 m 128,-1,1
 74 73 74 73 86 73 c 0,2,3
 98 73 98 73 108 64 c 0,4,5
 118 56 118 56 118 42 c 0,6,7
 118 35 118 35 116 29.5 c 128,-1,8
 114 24 114 24 109 19 c 128,-1,9
 104 14 104 14 98.5 12 c 128,-1,10
 93 10 93 10 86 10 c 0,11,12
 73 10 73 10 64 19 c 128,-1,13
 55 28 55 28 55 41.5 c 128,-1,0
 55 55 55 55 64.5 64 c 128,-1,1
55 165 m 1,14,-1
 30 579 l 1,15,-1
 143 579 l 1,16,-1
 119 165 l 1,17,-1
 55 165 l 1,14,-1
EndSplineSet
Validated: 1
EndChar

StartChar: quotedbl
Encoding: 34 34 7
Width: 268
GlyphClass: 2
Flags: W
HStem: 337 146<44 78 188 222>
VStem: 44 34<337 410> 188 34<337 410>
LayerCount: 2
Fore
SplineSet
78 337 m 1,0,-1
 44 337 l 1,1,-1
 30 483 l 1,2,-1
 91 483 l 1,3,-1
 78 337 l 1,0,-1
188 337 m 1,4,-1
 175 483 l 1,5,-1
 236 483 l 1,6,-1
 222 337 l 1,7,-1
 188 337 l 1,4,-1
EndSplineSet
Validated: 1
EndChar

StartChar: numbersign
Encoding: 35 35 8
Width: 671
GlyphClass: 2
Flags: W
HStem: 113 63<30 131 216 406 490 569> 361 73<275 465> 368 66<102 191 550 641> 559 20G<235.461 309 509.328 586>
LayerCount: 2
Fore
SplineSet
641 434 m 1,0,-1
 641 368 l 1,1,-1
 542 368 l 1,2,-1
 534 368 l 1,3,-1
 532 360 l 1,4,-1
 493 189 l 1,5,-1
 490 176 l 1,6,-1
 502 176 l 1,7,-1
 569 176 l 1,8,-1
 569 113 l 1,9,-1
 482 113 l 1,10,-1
 475 113 l 1,11,-1
 473 105 l 1,12,-1
 450 10 l 1,13,-1
 382 10 l 1,14,-1
 403 101 l 1,15,-1
 406 113 l 1,16,-1
 394 113 l 1,17,-1
 208 113 l 1,18,-1
 200 113 l 1,19,-1
 199 105 l 1,20,-1
 176 10 l 1,21,-1
 105 10 l 1,22,-1
 128 101 l 1,23,-1
 131 113 l 1,24,-1
 118 113 l 1,25,-1
 30 113 l 1,26,-1
 30 176 l 1,27,-1
 139 176 l 1,28,-1
 147 176 l 1,29,-1
 149 184 l 1,30,-1
 188 353 l 1,31,-1
 191 366 l 1,32,-1
 178 366 l 1,33,-1
 102 366 l 1,34,-1
 102 430 l 1,35,-1
 198 430 l 1,36,-1
 206 430 l 1,37,-1
 208 438 l 1,38,-1
 240 579 l 1,39,-1
 309 579 l 1,40,-1
 277 446 l 1,41,-1
 275 434 l 1,42,-1
 287 434 l 1,43,-1
 473 434 l 1,44,-1
 480 434 l 1,45,-1
 482 442 l 1,46,-1
 514 579 l 1,47,-1
 586 579 l 1,48,-1
 553 446 l 1,49,-1
 550 434 l 1,50,-1
 563 434 l 1,51,-1
 641 434 l 1,0,-1
421 176 m 1,52,-1
 423 184 l 1,53,-1
 462 349 l 1,54,-1
 465 361 l 1,55,-1
 453 361 l 1,56,-1
 267 361 l 1,57,-1
 259 361 l 1,58,-1
 257 353 l 1,59,-1
 219 188 l 1,60,-1
 216 176 l 1,61,-1
 228 176 l 1,62,-1
 414 176 l 1,63,-1
 421 176 l 1,52,-1
EndSplineSet
Validated: 1
EndChar

StartChar: dollar
Encoding: 36 36 9
Width: 380
GlyphClass: 2
Flags: W
HStem: -65 135<158.041 220.781> 265 59<144.063 219.906 220 236.689> 276 52<130.112 135 144 151.968> 523 135<158.219 220.959>
VStem: 30 63<364.879 487.866> 158 63<-65 11 582 658> 286 63<105.928 228.54>
CounterMasks: 1 0e
LayerCount: 2
Fore
SplineSet
301 282 m 1,0,-1
 302 281 l 2,1,2
 305 278 305 278 309 274 c 0,3,4
 322 259 322 259 331 242.5 c 128,-1,5
 340 226 340 226 344.5 207.5 c 128,-1,6
 349 189 349 189 349 169 c 0,7,8
 349 103 349 103 302 55 c 0,9,10
 272 25 272 25 229 15 c 2,11,-1
 221 13 l 1,12,-1
 221 5 l 1,13,-1
 221 -65 l 1,14,-1
 158 -65 l 1,15,-1
 158 3 l 1,16,-1
 158 11 l 1,17,-1
 150 13 l 2,18,19
 107 23 107 23 77 52 c 0,20,21
 43 85 43 85 33 132 c 1,22,-1
 99 132 l 1,23,24
 106 112 106 112 121 97 c 0,25,26
 150 70 150 70 189.5 70 c 128,-1,27
 229 70 229 70 257 98 c 0,28,29
 286 126 286 126 286 167 c 0,30,31
 286 187 286 187 279 204.5 c 128,-1,32
 272 222 272 222 257 236 c 0,33,34
 229 265 229 265 190 265 c 2,35,-1
 189 265 l 2,36,37
 183 265 183 265 177 265.5 c 128,-1,38
 171 266 171 266 164 267 c 2,39,-1
 163 267 l 2,40,41
 159 268 159 268 157 268 c 0,42,43
 154 269 154 269 152 270 c 0,44,45
 151 270 151 270 148.5 271 c 128,-1,46
 146 272 146 272 144 272 c 0,47,48
 141 273 141 273 135 275 c 0,49,50
 132 276 132 276 131 276 c 2,51,-1
 129 276 l 2,52,53
 128 277 128 277 126.5 277.5 c 128,-1,54
 125 278 125 278 124 279 c 2,55,-1
 124 281 l 1,56,-1
 117 283 l 2,57,58
 114 284 114 284 111 286 c 2,59,-1
 111 287 l 1,60,-1
 105 290 l 2,61,62
 104 291 104 291 99 294 c 0,63,64
 98 295 98 295 95 298 c 0,65,66
 89 302 89 302 84 305 c 2,67,-1
 77 312 l 2,68,69
 30 360 30 360 30 426.5 c 128,-1,70
 30 493 30 493 77 540 c 0,71,72
 107 570 107 570 150 580 c 2,73,-1
 158 582 l 1,74,-1
 158 590 l 1,75,-1
 158 658 l 1,76,-1
 221 658 l 1,77,-1
 221 590 l 1,78,-1
 221 582 l 1,79,-1
 229 580 l 2,80,81
 272 570 272 570 302 540 c 0,82,83
 311 532 311 532 318 522.5 c 128,-1,84
 325 513 325 513 330.5 503 c 128,-1,85
 336 493 336 493 340 482.5 c 128,-1,86
 344 472 344 472 346 461 c 1,87,-1
 280 461 l 1,88,89
 273 481 273 481 258 495 c 0,90,91
 229 523 229 523 189.5 523 c 128,-1,92
 150 523 150 523 122 496 c 0,93,94
 93 467 93 467 93 426 c 128,-1,95
 93 385 93 385 122 357 c 0,96,97
 150 329 150 329 190 328 c 0,98,99
 197 328 197 328 206 327 c 2,100,-1
 207 327 l 1,101,-1
 208 327 l 2,102,103
 211 327 211 327 214 326 c 128,-1,104
 217 325 217 325 220 324 c 2,105,-1
 222 324 l 1,106,-1
 223 324 l 1,107,-1
 225 324 l 2,108,109
 227 323 227 323 237 321 c 1,110,-1
 238 320 l 1,111,-1
 240 319 l 2,112,113
 246 317 246 317 250 315 c 2,114,-1
 252 315 l 1,115,-1
 253 315 l 1,116,-1
 254 314 l 1,117,-1
 255 313 l 2,118,119
 256 312 256 312 258 311.5 c 128,-1,120
 260 311 260 311 261 310.5 c 128,-1,121
 262 310 262 310 263 310 c 0,122,123
 266 308 266 308 269 307 c 2,124,-1
 269 306 l 1,125,-1
 270 306 l 1,126,-1
 295 287 l 2,127,128
 299 284 299 284 300 283 c 2,129,-1
 301 282 l 1,0,-1
EndSplineSet
Validated: 1
EndChar

StartChar: percent
Encoding: 37 37 10
Width: 724
GlyphClass: 2
Flags: W
HStem: -34 63<501.528 552.087> 100 63<501.528 552.087> 358 63<145.94 197.731> 482 63<145.334 201.807>
VStem: 82 62<422.182 480.085> 203 60<426.239 480.862> 439 60<30.017 98.917> 558 62<35.2887 93.6958>
LayerCount: 2
Fore
SplineSet
465 134 m 4,0,1
 491 163 491 163 528 163 c 132,-1,2
 565 163 565 163 592.5 134 c 132,-1,3
 620 105 620 105 620 64.5 c 132,-1,4
 620 24 620 24 592.5 -5 c 132,-1,5
 565 -34 565 -34 528 -34 c 132,-1,6
 491 -34 491 -34 465 -5 c 132,-1,7
 439 24 439 24 439 64 c 4,8,9
 439 78 439 78 442 90 c 132,-1,10
 445 102 445 102 450.5 113 c 132,-1,11
 456 124 456 124 465 134 c 4,0,1
528 29 m 132,-1,13
 540 29 540 29 549 39 c 132,-1,14
 558 49 558 49 558 64 c 132,-1,15
 558 79 558 79 549 90 c 4,16,17
 540 100 540 100 528 100 c 132,-1,18
 516 100 516 100 507.5 89.5 c 132,-1,19
 499 79 499 79 499 64.5 c 132,-1,20
 499 50 499 50 507.5 39.5 c 132,-1,12
 516 29 516 29 528 29 c 132,-1,13
237 386 m 4,21,22
 211 358 211 358 174 358 c 4,23,24
 156 358 156 358 139 365 c 4,25,26
 123 372 123 372 109 386 c 132,-1,27
 95 400 95 400 88.5 416 c 132,-1,28
 82 432 82 432 82 452 c 4,29,30
 82 490 82 490 109.5 517.5 c 132,-1,31
 137 545 137 545 174 545 c 4,32,33
 179 545 179 545 184 544.5 c 132,-1,34
 189 544 189 544 194 543 c 132,-1,35
 199 542 199 542 203.5 540 c 132,-1,36
 208 538 208 538 212.5 536 c 132,-1,37
 217 534 217 534 221 531 c 132,-1,38
 225 528 225 528 229 524 c 4,39,40
 235 520 235 520 237 517 c 4,41,42
 250 503 250 503 256 487 c 4,43,44
 263 472 263 472 263 452 c 4,45,46
 263 439 263 439 260 427.5 c 132,-1,47
 257 416 257 416 251.5 405.5 c 132,-1,48
 246 395 246 395 237 386 c 4,21,22
174 482 m 4,49,50
 162 482 162 482 153 473 c 132,-1,51
 144 464 144 464 144 452 c 4,52,53
 144 448 144 448 145.5 444 c 132,-1,54
 147 440 147 440 149 436.5 c 132,-1,55
 151 433 151 433 153 430 c 4,56,57
 157 426 157 426 162.5 423.5 c 132,-1,58
 168 421 168 421 174 421 c 4,59,60
 186 421 186 421 194 430 c 4,61,62
 203 440 203 440 203 452 c 4,63,64
 203 458 203 458 200.5 463.5 c 132,-1,65
 198 469 198 469 194 473 c 132,-1,66
 190 477 190 477 185 479.5 c 132,-1,67
 180 482 180 482 174 482 c 4,49,50
30 -29 m 5,68,-1
 576 545 l 5,69,-1
 665 545 l 5,70,-1
 120 -29 l 5,71,-1
 30 -29 l 5,68,-1
EndSplineSet
Validated: 1
EndChar

StartChar: ampersand
Encoding: 38 38 11
Width: 532
GlyphClass: 2
Flags: W
HStem: -34 63<139.142 263.184> 482 63<155.627 249.694>
VStem: 30 63<75.8983 209.091> 72 63<357.054 461.584> 268 58<356.04 463.849>
LayerCount: 2
Fore
SplineSet
377 178 m 1,0,-1
 502 310 l 1,1,-1
 502 217 l 1,2,-1
 426 137 l 1,3,-1
 418 128 l 1,4,-1
 427 121 l 1,5,-1
 502 62 l 1,6,-1
 502 -21 l 1,7,-1
 379 72 l 1,8,-1
 373 77 l 1,9,-1
 367 71 l 1,10,-1
 324 24 l 1,11,-1
 323 25 l 1,12,-1
 317 18 l 2,13,14
 293 -8 293 -8 264 -21 c 128,-1,15
 235 -34 235 -34 202 -34 c 0,16,17
 134 -34 134 -34 82 19.5 c 128,-1,18
 30 73 30 73 30 149 c 128,-1,19
 30 225 30 225 82 278 c 0,20,-1
 82 279 l 2,21,22
 90 288 90 288 105 298 c 2,23,-1
 114 305 l 1,24,-1
 107 313 l 2,25,26
 90 333 90 333 81 356.5 c 128,-1,27
 72 380 72 380 72 406 c 0,28,29
 72 464 72 464 111 505 c 0,30,31
 150 545 150 545 202 545 c 0,32,33
 212 545 212 545 221.5 543.5 c 128,-1,34
 231 542 231 542 240 539 c 128,-1,35
 249 536 249 536 257.5 531 c 128,-1,36
 266 526 266 526 274 519.5 c 128,-1,37
 282 513 282 513 289 505 c 0,38,39
 301 492 301 492 309.5 477 c 128,-1,40
 318 462 318 462 322 446 c 0,41,42
 326 429 326 429 326 408 c 0,43,44
 326 379 326 379 317 354.5 c 128,-1,45
 308 330 308 330 289 309 c 0,46,47
 285 304 285 304 280 299.5 c 128,-1,48
 275 295 275 295 269 291 c 128,-1,49
 263 287 263 287 257 283 c 2,50,-1
 244 275 l 1,51,-1
 256 265 l 1,52,-1
 362 174 l 1,53,-1
 368 169 l 1,54,-1
 374 175 l 1,55,-1
 377 178 l 1,0,-1
202 482 m 0,56,57
 175 482 175 482 155 461 c 128,-1,58
 135 440 135 440 135 410 c 0,59,60
 135 395 135 395 140 382.5 c 128,-1,61
 145 370 145 370 155 359 c 0,62,63
 164 349 164 349 175.5 344 c 128,-1,64
 187 339 187 339 201 339 c 2,65,-1
 202 339 l 2,66,67
 205 339 205 339 208.5 339.5 c 128,-1,68
 212 340 212 340 216 340 c 2,69,70
 236 345 236 345 249 359 c 0,71,72
 255 366 255 366 259.5 374.5 c 128,-1,73
 264 383 264 383 266 392 c 0,74,75
 268 400 268 400 268 410 c 0,76,77
 268 415 268 415 267.5 420 c 128,-1,78
 267 425 267 425 266 429.5 c 128,-1,79
 265 434 265 434 263 438 c 128,-1,80
 261 442 261 442 259 446 c 128,-1,81
 257 450 257 450 254.5 454 c 128,-1,82
 252 458 252 458 249 461 c 0,83,84
 240 471 240 471 227.5 476.5 c 128,-1,85
 215 482 215 482 202 482 c 0,56,57
201.5 29 m 128,-1,87
 245 29 245 29 275 62 c 2,88,-1
 318 108 l 1,89,-1
 326 116 l 1,90,-1
 318 123 l 1,91,-1
 170 245 l 1,92,-1
 166 248 l 1,93,-1
 162 246 l 2,94,95
 142 238 142 238 126 222 c 0,96,97
 93 189 93 189 93 142.5 c 128,-1,98
 93 96 93 96 126 62 c 0,99,86
 158 29 158 29 201.5 29 c 128,-1,87
EndSplineSet
Validated: 1
EndChar

StartChar: quotesingle
Encoding: 39 39 12
Width: 123
GlyphClass: 2
Flags: W
HStem: 337 146<44 78>
VStem: 44 34<337 410>
LayerCount: 2
Fore
SplineSet
78 337 m 1,0,-1
 44 337 l 1,1,-1
 30 483 l 1,2,-1
 91 483 l 1,3,-1
 78 337 l 1,0,-1
EndSplineSet
Validated: 1
EndChar

StartChar: parenleft
Encoding: 40 40 13
Width: 226
GlyphClass: 2
Flags: W
HStem: 20 21G<93.5 188> 559 20G<72.5 188>
VStem: 30 63<173.746 424.166>
LayerCount: 2
Fore
SplineSet
188 579 m 1,0,1
 93 425 93 425 93 299 c 128,-1,2
 93 173 93 173 188 20 c 1,3,-1
 115 20 l 1,4,5
 72 97 72 97 51 166 c 0,6,7
 30 236 30 236 30 300 c 0,8,9
 30 428 30 428 115 579 c 1,10,-1
 188 579 l 1,0,1
EndSplineSet
Validated: 1
EndChar

StartChar: parenright
Encoding: 41 41 14
Width: 226
GlyphClass: 2
Flags: W
HStem: 20 21G<30 145.5> 559 20G<30 124.5>
VStem: 125 63<174.444 424.886>
LayerCount: 2
Fore
SplineSet
30 579 m 1,0,-1
 103 579 l 1,1,2
 146 502 146 502 167 432.5 c 128,-1,3
 188 363 188 363 188 299 c 0,4,5
 188 171 188 171 103 20 c 1,6,-1
 30 20 l 1,7,8
 125 173 125 173 125 299 c 0,9,10
 125 426 125 426 30 579 c 1,0,-1
EndSplineSet
Validated: 1
EndChar

StartChar: asterisk
Encoding: 42 42 15
Width: 454
GlyphClass: 2
Flags: W
HStem: 225 63<30 159 295 424>
VStem: 200 54<50 180 334 474>
LayerCount: 2
Fore
SplineSet
318 288 m 1,0,-1
 424 288 l 1,1,-1
 424 225 l 1,2,-1
 316 225 l 1,3,-1
 293 225 l 1,4,-1
 309 208 l 1,5,-1
 386 132 l 1,6,-1
 341 87 l 1,7,-1
 270 163 l 1,8,-1
 254 180 l 1,9,-1
 254 156 l 1,10,-1
 254 50 l 1,11,-1
 200 50 l 1,12,-1
 200 156 l 1,13,-1
 200 180 l 1,14,-1
 184 163 l 1,15,-1
 112 86 l 1,16,-1
 67 131 l 1,17,-1
 145 208 l 1,18,-1
 161 225 l 1,19,-1
 138 225 l 1,20,-1
 30 225 l 1,21,-1
 30 288 l 1,22,-1
 136 288 l 1,23,-1
 159 288 l 1,24,-1
 143 306 l 1,25,-1
 67 386 l 1,26,-1
 112 434 l 1,27,-1
 184 352 l 1,28,-1
 200 334 l 1,29,-1
 200 360 l 1,30,-1
 200 474 l 1,31,-1
 254 474 l 1,32,-1
 254 360 l 1,33,-1
 254 334 l 1,34,-1
 270 352 l 1,35,-1
 341 433 l 1,36,-1
 386 385 l 1,37,-1
 311 306 l 1,38,-1
 295 288 l 1,39,-1
 318 288 l 1,0,-1
EndSplineSet
Validated: 1
EndChar

StartChar: plus
Encoding: 43 43 16
Width: 452
GlyphClass: 2
Flags: W
HStem: 224 63<30 198 253 421>
VStem: 198 55<50 224 287 471>
LayerCount: 2
Fore
SplineSet
253 287 m 1,0,-1
 262 287 l 1,1,-1
 421 287 l 1,2,-1
 421 224 l 1,3,-1
 262 224 l 1,4,-1
 253 224 l 1,5,-1
 253 214 l 1,6,-1
 253 50 l 1,7,-1
 198 50 l 1,8,-1
 198 214 l 1,9,-1
 198 224 l 1,10,-1
 189 224 l 1,11,-1
 30 224 l 1,12,-1
 30 287 l 1,13,-1
 189 287 l 1,14,-1
 198 287 l 1,15,-1
 198 298 l 1,16,-1
 198 471 l 1,17,-1
 253 471 l 1,18,-1
 253 298 l 1,19,-1
 253 287 l 1,0,-1
EndSplineSet
Validated: 1
EndChar

StartChar: comma
Encoding: 44 44 17
Width: 123
GlyphClass: 2
Flags: W
HStem: -83 146<30 64>
VStem: 30 61<25.1481 63> 30 34<-83 -45.1481>
LayerCount: 2
Fore
SplineSet
30 -83 m 1,0,-1
 30 63 l 1,1,-1
 91 63 l 1,2,-1
 64 -83 l 1,3,-1
 30 -83 l 1,0,-1
EndSplineSet
Validated: 1
EndChar

StartChar: hyphen
Encoding: 45 45 18
Width: 454
GlyphClass: 2
Flags: W
HStem: 224 63<30 424>
LayerCount: 2
Fore
SplineSet
424 287 m 1,0,-1
 424 224 l 1,1,-1
 30 224 l 1,2,-1
 30 287 l 1,3,-1
 424 287 l 1,0,-1
EndSplineSet
Validated: 1
EndChar

StartChar: period
Encoding: 46 46 19
Width: 123
GlyphClass: 2
Flags: W
HStem: 10 63<39.2823 83.7177>
VStem: 30 63<19.2823 63.7177>
LayerCount: 2
Fore
SplineSet
39 64 m 128,-1,1
 48 73 48 73 61.5 73 c 128,-1,2
 75 73 75 73 84 64 c 128,-1,3
 93 55 93 55 93 41.5 c 128,-1,4
 93 28 93 28 84 19 c 128,-1,5
 75 10 75 10 61.5 10 c 128,-1,6
 48 10 48 10 39 19 c 128,-1,7
 30 28 30 28 30 41.5 c 128,-1,0
 30 55 30 55 39 64 c 128,-1,1
EndSplineSet
Validated: 1
EndChar

StartChar: slash
Encoding: 47 47 20
Width: 403
GlyphClass: 2
Flags: W
HStem: 20 21G<30 110.267> 559 20G<279.733 360>
VStem: 30 330
LayerCount: 2
Fore
SplineSet
30 20 m 1,0,-1
 289 579 l 1,1,-1
 360 579 l 1,2,-1
 101 20 l 1,3,-1
 30 20 l 1,0,-1
EndSplineSet
Validated: 1
EndChar

StartChar: zero
Encoding: 48 48 21
Width: 454
GlyphClass: 2
Flags: W
HStem: 20 63<170.798 282.86> 516 63<170.846 283.627>
VStem: 30 63<185.841 412.808> 361 63<185.841 412.808>
LayerCount: 2
Fore
SplineSet
320 450 m 0,0,1
 281 516 281 516 227 516 c 128,-1,2
 173 516 173 516 134 450 c 0,3,4
 93 386 93 386 93 299 c 128,-1,5
 93 212 93 212 134 149 c 0,6,7
 173 83 173 83 226.5 83 c 128,-1,8
 280 83 280 83 320 149 c 0,9,10
 361 212 361 212 361 299 c 128,-1,11
 361 386 361 386 320 450 c 0,0,1
92 101 m 0,12,13
 30 183 30 183 30 299 c 0,14,15
 30 416 30 416 92 498 c 0,16,17
 152 579 152 579 227 579 c 0,18,19
 246 579 246 579 263 574 c 128,-1,20
 280 569 280 569 297 559 c 128,-1,21
 314 549 314 549 330.5 534 c 128,-1,22
 347 519 347 519 362 498 c 0,23,24
 424 416 424 416 424 299 c 0,25,26
 424 183 424 183 362 101 c 0,27,28
 302 20 302 20 227 20 c 128,-1,29
 152 20 152 20 92 101 c 0,12,13
EndSplineSet
Validated: 1
EndChar

StartChar: one
Encoding: 49 49 22
Width: 185
GlyphClass: 2
Flags: W
HStem: 20 21G<92 155> 516 63<30 92>
VStem: 30 125<516 579> 92 63<20 516>
LayerCount: 2
Fore
SplineSet
30 579 m 1,0,-1
 155 579 l 1,1,-1
 155 20 l 1,2,-1
 92 20 l 1,3,-1
 92 506 l 1,4,-1
 92 516 l 1,5,-1
 82 516 l 1,6,-1
 30 516 l 1,7,-1
 30 579 l 1,0,-1
EndSplineSet
Validated: 1
EndChar

StartChar: two
Encoding: 50 50 23
Width: 365
GlyphClass: 2
Flags: W
HStem: 20 63<157 334> 516 62<129.978 233.748>
VStem: 30 63<426 478.286> 272 62<354.254 477.507>
LayerCount: 2
Fore
SplineSet
321 356 m 2,0,1
 310 332 310 332 296 311 c 2,2,-1
 165 99 l 1,3,-1
 157 83 l 1,4,-1
 171 83 l 1,5,-1
 334 83 l 1,6,-1
 334 20 l 1,7,-1
 39 20 l 1,8,-1
 250 354 l 2,9,10
 272 381 272 381 272 416 c 0,11,12
 272 436 272 436 264.5 454 c 128,-1,13
 257 472 257 472 242.5 486.5 c 128,-1,14
 228 501 228 501 211 509 c 0,15,16
 197 516 197 516 182 516 c 0,17,18
 172 516 172 516 162.5 512.5 c 128,-1,19
 153 509 153 509 142 503 c 0,20,21
 131 496 131 496 122 487 c 0,22,23
 114 479 114 479 107.5 469 c 128,-1,24
 101 459 101 459 97.5 448.5 c 128,-1,25
 94 438 94 438 93 426 c 1,26,-1
 30 426 l 1,27,28
 33 488 33 488 77 531 c 0,29,30
 101 555 101 555 130 566 c 0,31,32
 157 578 157 578 182 578 c 0,33,34
 239 578 239 578 286.5 531 c 128,-1,35
 334 484 334 484 334 416 c 0,36,37
 334 403 334 403 331.5 390 c 128,-1,38
 329 377 329 377 324 363 c 2,39,-1
 321 356 l 2,0,1
EndSplineSet
Validated: 1
EndChar

StartChar: three
Encoding: 51 51 24
Width: 365
GlyphClass: 2
Flags: W
HStem: 20 63<130.368 233.98> 516 63<136.26 228.374>
VStem: 30 63<120.087 172> 44 63<440 485.746> 258 63<373.629 486.279> 272 62<121.163 243.021>
LayerCount: 2
Fore
SplineSet
284 300 m 2,0,-1
 287 297 l 2,1,2
 334 250 334 250 334 182 c 0,3,4
 334 168 334 168 332 156 c 128,-1,5
 330 144 330 144 326.5 132 c 128,-1,6
 323 120 323 120 317 109 c 128,-1,7
 311 98 311 98 303.5 87.5 c 128,-1,8
 296 77 296 77 287 68 c 0,9,10
 263 44 263 44 235 32 c 0,11,12
 208 20 208 20 182 20 c 0,13,14
 125 20 125 20 77 68 c 0,15,16
 55 90 55 90 43.5 116 c 128,-1,17
 32 142 32 142 30 172 c 1,18,-1
 93 172 l 1,19,20
 97 137 97 137 122 112 c 0,21,22
 151 83 151 83 182 83 c 128,-1,23
 213 83 213 83 242 112 c 128,-1,24
 271 141 271 141 272 182 c 0,25,26
 272 189 272 189 271 195.5 c 128,-1,27
 270 202 270 202 268.5 208 c 128,-1,28
 267 214 267 214 264.5 220 c 128,-1,29
 262 226 262 226 258.5 231.5 c 128,-1,30
 255 237 255 237 251 242 c 128,-1,31
 247 247 247 247 242 252 c 0,32,33
 234 260 234 260 224 266.5 c 128,-1,34
 214 273 214 273 206 276.5 c 128,-1,35
 198 280 198 280 189 281 c 1,36,-1
 189 345 l 1,37,38
 211 349 211 349 233 370 c 0,39,40
 245 382 245 382 251.5 397.5 c 128,-1,41
 258 413 258 413 258 430 c 0,42,43
 258 465 258 465 233 490 c 0,44,45
 209 516 209 516 182 516 c 128,-1,46
 155 516 155 516 132 490 c 0,47,48
 122 479 122 479 115.5 466 c 128,-1,49
 109 453 109 453 107 440 c 1,50,-1
 44 440 l 1,51,52
 47 496 47 496 87 535 c 0,53,54
 102 550 102 550 118.5 559.5 c 128,-1,55
 135 569 135 569 152 574 c 0,56,57
 166 579 166 579 182 579 c 0,58,59
 233 579 233 579 277 535.5 c 128,-1,60
 321 492 321 492 321 430 c 0,61,62
 321 399 321 399 310 373 c 128,-1,63
 299 347 299 347 277 325 c 2,64,-1
 274 323 l 1,65,-1
 264 316 l 1,66,-1
 275 307 l 2,67,68
 277 306 277 306 279 304 c 0,69,-1
 282 302 l 0,70,71
 284 300 l 2,0,-1
EndSplineSet
Validated: 1
EndChar

StartChar: four
Encoding: 52 52 25
Width: 454
GlyphClass: 2
Flags: W
HStem: 153 63<162 279 341 413>
VStem: 279 62<10 153 216 376>
LayerCount: 2
Fore
SplineSet
341 216 m 1,0,-1
 351 216 l 1,1,-1
 413 216 l 1,2,-1
 413 153 l 1,3,-1
 351 153 l 1,4,-1
 341 153 l 1,5,-1
 341 143 l 1,6,-1
 341 10 l 1,7,-1
 279 10 l 1,8,-1
 279 143 l 1,9,-1
 279 153 l 1,10,-1
 271 153 l 1,11,-1
 30 153 l 1,12,-1
 341 559 l 1,13,-1
 341 226 l 1,14,-1
 341 216 l 1,0,-1
279 216 m 1,15,-1
 279 226 l 1,16,-1
 279 348 l 1,17,-1
 279 376 l 1,18,-1
 264 354 l 1,19,-1
 175 232 l 1,20,-1
 162 216 l 1,21,-1
 181 216 l 1,22,-1
 271 216 l 1,23,-1
 279 216 l 1,15,-1
EndSplineSet
Validated: 1
EndChar

StartChar: five
Encoding: 53 53 26
Width: 428
GlyphClass: 2
Flags: W
HStem: 20 63<147.472 274.181> 340 63<155 274.994> 516 63<186 397>
VStem: 30 63<139.455 202> 330 63<139.252 283.702>
LayerCount: 2
Fore
SplineSet
397 579 m 1,0,-1
 397 516 l 1,1,-1
 192 516 l 1,2,-1
 186 516 l 1,3,-1
 184 509 l 1,4,-1
 159 416 l 1,5,-1
 155 403 l 1,6,-1
 167 403 l 1,7,-1
 212 403 l 2,8,9
 246 403 246 403 275 389 c 0,10,11
 308 375 308 375 336.5 347 c 128,-1,12
 365 319 365 319 379 285 c 0,13,14
 393 252 393 252 393 212 c 0,15,16
 393 185 393 185 386.5 161 c 128,-1,17
 380 137 380 137 368 116 c 128,-1,18
 356 95 356 95 337 76 c 128,-1,19
 318 57 318 57 297 44.5 c 128,-1,20
 276 32 276 32 255.5 26 c 128,-1,21
 235 20 235 20 212 20 c 0,22,23
 142 20 142 20 86 76 c 0,24,25
 34 128 34 128 30 202 c 1,26,-1
 93 202 l 1,27,28
 97 154 97 154 130 120 c 0,29,30
 165 83 165 83 212 83 c 0,31,32
 227 83 227 83 241 87 c 128,-1,33
 255 91 255 91 267 100 c 0,34,35
 280 108 280 108 292 120 c 0,36,37
 310 139 310 139 320 162 c 0,38,39
 330 186 330 186 330 212 c 0,40,41
 330 266 330 266 292 303 c 0,42,43
 274 322 274 322 254.5 331 c 128,-1,44
 235 340 235 340 212 340 c 2,45,-1
 71 340 l 1,46,-1
 145 579 l 1,47,-1
 397 579 l 1,0,-1
EndSplineSet
Validated: 1
EndChar

StartChar: six
Encoding: 54 54 27
Width: 382
GlyphClass: 2
Flags: W
HStem: 20 53<135.593 246.043> 289 73<162.234 245.25> 559 20G<184.621 256>
VStem: 30 63<115.681 228.906> 289 63<115.681 246.047>
LayerCount: 2
Fore
SplineSet
338 257 m 0,0,1
 352 226 352 226 352 191 c 0,2,3
 352 179 352 179 350.5 168 c 128,-1,4
 349 157 349 157 346 146 c 128,-1,5
 343 135 343 135 338 124 c 0,6,7
 326 94 326 94 302 70 c 128,-1,8
 278 46 278 46 247 33 c 0,9,10
 219 20 219 20 191 20 c 128,-1,11
 163 20 163 20 134 33 c 0,12,13
 104 46 104 46 80 70 c 0,14,15
 68 82 68 82 59 95.5 c 128,-1,16
 50 109 50 109 43 124 c 0,17,18
 30 156 30 156 30 191 c 0,19,20
 30 200 30 200 31 208.5 c 128,-1,21
 32 217 32 217 33.5 225 c 128,-1,22
 35 233 35 233 37.5 241 c 128,-1,23
 40 249 40 249 43 257 c 2,24,-1
 194 579 l 1,25,-1
 256 579 l 1,26,-1
 169 374 l 1,27,-1
 162 358 l 1,28,-1
 177 360 l 2,29,30
 181 361 181 361 184.5 361.5 c 128,-1,31
 188 362 188 362 190 362 c 0,32,-1
 191 362 l 0,33,34
 219 362 219 362 247 348 c 0,35,36
 263 342 263 342 276.5 333 c 128,-1,37
 290 324 290 324 302 312 c 0,38,39
 326 288 326 288 338 257 c 0,0,1
270.5 120.5 m 128,-1,41
 276 129 276 129 280 139 c 128,-1,42
 284 149 284 149 286.5 159.5 c 128,-1,43
 289 170 289 170 289 181 c 0,44,45
 289 203 289 203 280 223 c 0,46,47
 272 243 272 243 257 258 c 0,48,49
 249 265 249 265 240.5 270.5 c 128,-1,50
 232 276 232 276 225 280 c 0,51,52
 217 284 217 284 208.5 286.5 c 128,-1,53
 200 289 200 289 191 289 c 0,54,55
 173 289 173 289 157 280 c 0,56,57
 149 276 149 276 140.5 270 c 128,-1,58
 132 264 132 264 125 257 c 0,59,60
 122 254 122 254 119 251 c 128,-1,61
 116 248 116 248 113.5 244.5 c 128,-1,62
 111 241 111 241 109 237 c 128,-1,63
 107 233 107 233 105 229 c 1,64,-1
 103 229 l 1,65,-1
 101 223 l 2,66,67
 97 213 97 213 95 202.5 c 128,-1,68
 93 192 93 192 93 181 c 0,69,70
 93 159 93 159 102 139 c 0,71,72
 110 119 110 119 124.5 104.5 c 128,-1,73
 139 90 139 90 157 82 c 0,74,75
 173 73 173 73 191 73 c 128,-1,76
 209 73 209 73 225 82 c 0,77,78
 242 90 242 90 257 104 c 0,79,40
 265 112 265 112 270.5 120.5 c 128,-1,41
EndSplineSet
Validated: 1
EndChar

StartChar: seven
Encoding: 55 55 28
Width: 454
GlyphClass: 2
Flags: W
HStem: 20 21G<76 157.66> 516 63<30 313>
LayerCount: 2
Fore
SplineSet
148 20 m 1,0,-1
 76 20 l 1,1,-1
 306 501 l 1,2,-1
 313 516 l 1,3,-1
 297 516 l 1,4,-1
 30 516 l 1,5,-1
 30 579 l 1,6,-1
 418 579 l 1,7,-1
 148 20 l 1,0,-1
EndSplineSet
Validated: 1
EndChar

StartChar: eight
Encoding: 56 56 29
Width: 365
GlyphClass: 2
Flags: W
HStem: 20 53<130.423 234.769> 271 73<136.656 190> 516 63<136.19 228.374>
VStem: 30 63<110.477 233.454> 44 63<373.629 486.22> 258 63<373.629 486.279> 272 62<110.041 232.742>
LayerCount: 2
Fore
SplineSet
182 73 m 128,-1,1
 213 73 213 73 243 102 c 0,2,3
 272 131 272 131 272 172 c 0,4,5
 272 179 272 179 271 185.5 c 128,-1,6
 270 192 270 192 268.5 198 c 128,-1,7
 267 204 267 204 264.5 210 c 128,-1,8
 262 216 262 216 259 221.5 c 128,-1,9
 256 227 256 227 251.5 232 c 128,-1,10
 247 237 247 237 243 242 c 0,11,12
 214 271 214 271 182.5 271 c 128,-1,13
 151 271 151 271 122 242 c 128,-1,14
 93 213 93 213 93 172 c 128,-1,15
 93 131 93 131 122 102 c 128,-1,0
 151 73 151 73 182 73 c 128,-1,1
190 344 m 1,16,-1
 190 345 l 1,17,18
 213 349 213 349 233 370 c 0,19,20
 245 382 245 382 251.5 397.5 c 128,-1,21
 258 413 258 413 258 430 c 0,22,23
 258 465 258 465 233 490 c 0,24,25
 209 516 209 516 182 516 c 128,-1,26
 155 516 155 516 132 490 c 0,27,28
 107 465 107 465 107 430 c 0,29,30
 107 413 107 413 113.5 397.5 c 128,-1,31
 120 382 120 382 132 370 c 128,-1,32
 144 358 144 358 156 352 c 0,33,34
 167 345 167 345 179 344 c 2,35,-1
 182 344 l 1,36,-1
 190 344 l 1,16,-1
284 300 m 1,37,-1
 287 297 l 2,38,39
 334 250 334 250 334 182 c 0,40,41
 334 168 334 168 332 156 c 128,-1,42
 330 144 330 144 326.5 132 c 128,-1,43
 323 120 323 120 317 109 c 128,-1,44
 311 98 311 98 303.5 87.5 c 128,-1,45
 296 77 296 77 287 68 c 0,46,47
 263 44 263 44 235 32 c 0,48,49
 208 20 208 20 182 20 c 0,50,51
 126 20 126 20 78 68 c 0,52,53
 30 114 30 114 30 182 c 0,54,55
 30 249 30 249 77 297 c 0,56,57
 79 299 79 299 90 307 c 2,58,-1
 103 317 l 1,59,-1
 88 324 l 1,60,-1
 87 325 l 2,61,62
 65 347 65 347 54.5 373 c 128,-1,63
 44 399 44 399 44 430 c 0,64,65
 44 492 44 492 88 535 c 0,66,67
 103 550 103 550 119 559.5 c 128,-1,68
 135 569 135 569 153 574 c 0,69,70
 167 579 167 579 182 579 c 0,71,72
 233 579 233 579 277 535.5 c 128,-1,73
 321 492 321 492 321 430 c 0,74,75
 321 399 321 399 310 373 c 128,-1,76
 299 347 299 347 277 325 c 1,77,-1
 274 323 l 1,78,-1
 264 316 l 1,79,-1
 275 307 l 2,80,81
 277 306 277 306 279 304 c 2,82,-1
 282 302 l 1,83,-1
 284 300 l 1,37,-1
EndSplineSet
Validated: 1
EndChar

StartChar: nine
Encoding: 57 57 30
Width: 382
GlyphClass: 2
Flags: W
HStem: 20 21G<125 196.408> 237 53<158.25 219.766> 516 62<135.742 245.562>
VStem: 30 63<336.349 473.215> 289 63<338.769 456.328>
LayerCount: 2
Fore
SplineSet
59 312.5 m 128,-1,1
 50 326 50 326 43 341 c 0,2,3
 30 374 30 374 30 408 c 0,4,5
 30 425 30 425 33.5 441.5 c 128,-1,6
 37 458 37 458 43 474 c 0,7,8
 56 505 56 505 80 529 c 0,9,10
 92 541 92 541 105.5 550 c 128,-1,11
 119 559 119 559 134 565 c 0,12,13
 163 578 163 578 191 578 c 128,-1,14
 219 578 219 578 247 565 c 0,15,16
 253 563 253 563 259 559.5 c 128,-1,17
 265 556 265 556 271 553 c 128,-1,18
 277 550 277 550 282 546 c 128,-1,19
 287 542 287 542 292 538 c 128,-1,20
 297 534 297 534 302 529 c 0,21,22
 326 505 326 505 338 474 c 0,23,24
 352 442 352 442 352 408 c 128,-1,25
 352 374 352 374 338 341 c 2,26,-1
 187 20 l 1,27,-1
 125 20 l 1,28,-1
 213 224 l 1,29,-1
 220 241 l 1,30,-1
 205 239 l 2,31,32
 201 238 201 238 197.5 237.5 c 128,-1,33
 194 237 194 237 192 237 c 0,34,35
 191 237 l 0,36,37
 163 237 163 237 134 250 c 0,38,39
 104 263 104 263 80 287 c 0,40,0
 68 299 68 299 59 312.5 c 128,-1,1
124 484 m 128,-1,42
 109 469 109 469 102 450 c 0,43,44
 100 445 100 445 98 439.5 c 128,-1,45
 96 434 96 434 95 428.5 c 128,-1,46
 94 423 94 423 93.5 417 c 128,-1,47
 93 411 93 411 93 405 c 0,48,49
 93 397 93 397 94 389.5 c 128,-1,50
 95 382 95 382 97 375 c 128,-1,51
 99 368 99 368 102 361 c 0,52,53
 110 340 110 340 124.5 324 c 128,-1,54
 139 308 139 308 157 298 c 0,55,-1
 158 298 l 2,56,57
 166 294 166 294 174 292 c 128,-1,58
 182 290 182 290 191 290 c 128,-1,59
 200 290 200 290 208.5 292 c 128,-1,60
 217 294 217 294 224 298 c 0,61,-1
 225 298 l 2,62,63
 230 301 230 301 236 305 c 128,-1,64
 242 309 242 309 247 313.5 c 128,-1,65
 252 318 252 318 257 323 c 0,66,67
 268 336 268 336 277 353 c 2,68,-1
 280 360 l 1,69,70
 282 365 282 365 284 371 c 128,-1,71
 286 377 286 377 287 382.5 c 128,-1,72
 288 388 288 388 288.5 393.5 c 128,-1,73
 289 399 289 399 289 405 c 0,74,75
 289 410 289 410 288.5 414.5 c 128,-1,76
 288 419 288 419 287.5 423.5 c 128,-1,77
 287 428 287 428 286 432.5 c 128,-1,78
 285 437 285 437 283.5 441.5 c 128,-1,79
 282 446 282 446 280 450 c 0,80,81
 272 469 272 469 257 484 c 0,82,83
 253 488 253 488 249 491.5 c 128,-1,84
 245 495 245 495 241 497.5 c 128,-1,85
 237 500 237 500 232 503 c 0,86,87
 228 505 228 505 225 507 c 0,88,89
 217 511 217 511 208.5 513.5 c 128,-1,90
 200 516 200 516 191 516 c 0,91,92
 173 516 173 516 157 507 c 0,93,41
 139 499 139 499 124 484 c 128,-1,42
EndSplineSet
Validated: 1
EndChar

StartChar: colon
Encoding: 58 58 31
Width: 123
GlyphClass: 2
Flags: W
HStem: 115 63<39.2823 83.7177> 414 63<39.2825 91.5146>
VStem: 30 63<124.282 168.202 415.485 467.718>
LayerCount: 2
Fore
SplineSet
77 418 m 0,0,1
 70 414 70 414 61 414 c 0,2,3
 54 414 54 414 49 416 c 128,-1,4
 44 418 44 418 39 423 c 128,-1,5
 34 428 34 428 32 434 c 0,6,7
 30 440 30 440 30 446 c 0,8,9
 30 459 30 459 39 468 c 128,-1,10
 48 477 48 477 62 477 c 0,11,12
 69 477 69 477 74 475 c 128,-1,13
 79 473 79 473 84 468 c 128,-1,14
 89 463 89 463 91 458 c 128,-1,15
 93 453 93 453 93 446 c 0,16,17
 93 437 93 437 89 430 c 0,18,19
 88 428 88 428 86.5 426 c 128,-1,20
 85 424 85 424 84 423 c 128,-1,21
 83 422 83 422 81 420.5 c 128,-1,22
 79 419 79 419 77 418 c 0,0,1
39 168.5 m 128,-1,24
 48 178 48 178 61.5 178 c 128,-1,25
 75 178 75 178 84 168.5 c 128,-1,26
 93 159 93 159 93 146 c 128,-1,27
 93 133 93 133 84 124 c 128,-1,28
 75 115 75 115 61.5 115 c 128,-1,29
 48 115 48 115 39 124 c 128,-1,30
 30 133 30 133 30 146 c 128,-1,23
 30 159 30 159 39 168.5 c 128,-1,24
EndSplineSet
Validated: 1
EndChar

StartChar: semicolon
Encoding: 59 59 32
Width: 123
GlyphClass: 2
Flags: W
HStem: 414 63<39.2822 83.2023>
VStem: 30 63<139.759 175 423.798 467.718> 30 34<29 66.8519>
LayerCount: 2
Fore
SplineSet
64 29 m 1,0,-1
 30 29 l 1,1,-1
 30 175 l 1,2,-1
 91 175 l 1,3,-1
 64 29 l 1,0,-1
83.5 423.5 m 128,-1,5
 74 414 74 414 61 414 c 128,-1,6
 48 414 48 414 39 423.5 c 128,-1,7
 30 433 30 433 30 446 c 0,8,9
 30 458 30 458 39 467.5 c 128,-1,10
 48 477 48 477 61 477 c 128,-1,11
 74 477 74 477 83.5 468 c 128,-1,12
 93 459 93 459 93 446 c 128,-1,4
 93 433 93 433 83.5 423.5 c 128,-1,5
EndSplineSet
Validated: 1
EndChar

StartChar: less
Encoding: 60 60 33
Width: 278
GlyphClass: 2
Flags: W
HStem: 20 21G<159.964 240> 559 20G<160 240>
VStem: 30 210
LayerCount: 2
Fore
SplineSet
170 579 m 1,0,-1
 240 579 l 1,1,-1
 103 303 l 1,2,-1
 101 299 l 1,3,-1
 103 295 l 1,4,-1
 240 20 l 1,5,-1
 170 20 l 1,6,-1
 30 299 l 1,7,-1
 170 579 l 1,0,-1
EndSplineSet
Validated: 1
EndChar

StartChar: equal
Encoding: 61 61 34
Width: 454
GlyphClass: 2
Flags: W
HStem: 141 63<30 424> 385 63<30 424>
LayerCount: 2
Fore
SplineSet
424 448 m 1,0,-1
 424 385 l 1,1,-1
 30 385 l 1,2,-1
 30 448 l 1,3,-1
 424 448 l 1,0,-1
424 204 m 1,4,-1
 424 141 l 1,5,-1
 30 141 l 1,6,-1
 30 204 l 1,7,-1
 424 204 l 1,4,-1
EndSplineSet
Validated: 1
EndChar

StartChar: greater
Encoding: 62 62 35
Width: 278
GlyphClass: 2
Flags: W
HStem: 20 21G<30 110.964> 559 20G<30 110.929>
VStem: 30 210
LayerCount: 2
Fore
SplineSet
30 579 m 1,0,-1
 101 579 l 1,1,-1
 240 299 l 1,2,-1
 101 20 l 1,3,-1
 30 20 l 1,4,-1
 168 295 l 1,5,-1
 170 299 l 1,6,-1
 168 303 l 1,7,-1
 30 579 l 1,0,-1
EndSplineSet
Validated: 1
EndChar

StartChar: question
Encoding: 63 63 36
Width: 399
GlyphClass: 2
Flags: W
HStem: 10 63<180.735 217.749> 155 118<173 225.914> 516 63<140.081 256.194>
VStem: 30 63<326.369 466.973> 173 53<19.2823 63.7177 155 215> 305 63<324.222 467.199>
LayerCount: 2
Fore
SplineSet
180.5 64 m 128,-1,1
 188 73 188 73 199 73 c 128,-1,2
 210 73 210 73 218 64 c 128,-1,3
 226 55 226 55 226 41.5 c 128,-1,4
 226 28 226 28 218 19 c 128,-1,5
 210 10 210 10 199 10 c 128,-1,6
 188 10 188 10 180.5 19 c 128,-1,7
 173 28 173 28 173 41.5 c 128,-1,0
 173 55 173 55 180.5 64 c 128,-1,1
199.5 579 m 128,-1,9
 264 579 264 579 316 526 c 0,10,11
 368 472 368 472 368 396 c 0,12,13
 368 370 368 370 362 347.5 c 128,-1,14
 356 325 356 325 344.5 304.5 c 128,-1,15
 333 284 333 284 316 266 c 0,16,17
 297 247 297 247 275.5 234.5 c 128,-1,18
 254 222 254 222 232 216 c 2,19,-1
 226 215 l 1,20,-1
 226 206 l 1,21,-1
 226 155 l 1,22,-1
 173 155 l 1,23,-1
 173 273 l 1,24,-1
 199 273 l 2,25,26
 207 273 207 273 214.5 274.5 c 128,-1,27
 222 276 222 276 229 279 c 128,-1,28
 236 282 236 282 243 286 c 128,-1,29
 250 290 250 290 257 296 c 128,-1,30
 264 302 264 302 271 309 c 0,31,32
 288 327 288 327 296.5 349 c 128,-1,33
 305 371 305 371 305 396 c 0,34,35
 305 409 305 409 303 421 c 128,-1,36
 301 433 301 433 296 444 c 0,37,38
 292 454 292 454 286 463.5 c 128,-1,39
 280 473 280 473 271.5 481.5 c 128,-1,40
 263 490 263 490 253 497 c 0,41,42
 244 503 244 503 235.5 507.5 c 128,-1,43
 227 512 227 512 218 514 c 128,-1,44
 209 516 209 516 199 516 c 0,45,46
 159 516 159 516 127 482 c 0,47,48
 93 448 93 448 93 399 c 0,49,50
 93 367 93 367 111 338 c 1,51,-1
 64 294 l 1,52,53
 47 318 47 318 38.5 344 c 128,-1,54
 30 370 30 370 30 399 c 0,55,56
 30 474 30 474 82.5 526.5 c 128,-1,8
 135 579 135 579 199.5 579 c 128,-1,9
EndSplineSet
Validated: 1
EndChar

StartChar: at
Encoding: 64 64 37
Width: 598
GlyphClass: 2
Flags: W
HStem: -33 63<212.698 343.161> 106 63<234.666 339.685> 341 63<235.418 339.223> 481 63<210.885 386.051>
VStem: 30 63<156.372 354.46> 147 59<197.768 311.719> 366 59<52.8516 133 249 258 259 313.75> 504 63<-34 355.092>
LayerCount: 2
Fore
SplineSet
330.5 183 m 128,-1,1
 337 188 337 188 343 194 c 0,2,3
 363 215 363 215 366 248 c 1,4,-1
 367 249 l 1,5,-1
 367 253 l 1,6,-1
 367 255 l 2,7,8
 367 273 367 273 361 288 c 128,-1,9
 355 303 355 303 343 315 c 0,10,11
 335 324 335 324 326.5 329.5 c 128,-1,12
 318 335 318 335 308 338 c 128,-1,13
 298 341 298 341 287 341 c 128,-1,14
 276 341 276 341 265.5 338 c 128,-1,15
 255 335 255 335 246.5 329 c 128,-1,16
 238 323 238 323 231 315 c 0,17,18
 223 307 223 307 217 297.5 c 128,-1,19
 211 288 211 288 208.5 277.5 c 128,-1,20
 206 267 206 267 206 255 c 0,21,22
 206 220 206 220 231 194 c 0,23,24
 254 169 254 169 287 169 c 0,25,26
 295 169 295 169 302.5 170.5 c 128,-1,27
 310 172 310 172 317 175 c 128,-1,0
 324 178 324 178 330.5 183 c 128,-1,1
529 404 m 128,-1,29
 538 388 538 388 545 371 c 0,30,31
 556 343 556 343 561.5 314.5 c 128,-1,32
 567 286 567 286 567 257 c 2,33,-1
 567 -34 l 1,34,-1
 504 -34 l 1,35,-1
 504 257 l 2,36,37
 504 281 504 281 500 303 c 128,-1,38
 496 325 496 325 487 344 c 0,39,40
 479 364 479 364 467.5 382 c 128,-1,41
 456 400 456 400 441 416 c 0,42,43
 415 444 415 444 378 464 c 0,44,45
 360 472 360 472 340.5 476.5 c 128,-1,46
 321 481 321 481 299 481 c 0,47,48
 256 481 256 481 220 464 c 0,49,50
 182 445 182 445 156 416 c 0,51,52
 147 406 147 406 138.5 394.5 c 128,-1,53
 130 383 130 383 123 370.5 c 128,-1,54
 116 358 116 358 110 344 c 0,55,56
 93 304 93 304 93 255 c 0,57,58
 93 209 93 209 110 167 c 0,59,60
 118 147 118 147 129.5 129.5 c 128,-1,61
 141 112 141 112 156 96 c 0,62,63
 185 64 185 64 220 48 c 0,64,65
 227 45 227 45 234.5 41.5 c 128,-1,66
 242 38 242 38 250 36 c 128,-1,67
 258 34 258 34 266 32.5 c 128,-1,68
 274 31 274 31 282 30.5 c 128,-1,69
 290 30 290 30 299 30 c 0,70,71
 313 30 313 30 325 36.5 c 128,-1,72
 337 43 337 43 346.5 56 c 128,-1,73
 356 69 356 69 361 84 c 128,-1,74
 366 99 366 99 366 116 c 2,75,-1
 366 133 l 1,76,-1
 353 125 l 2,77,78
 320 106 320 106 287 106 c 0,79,80
 230 106 230 106 188.5 150 c 128,-1,81
 147 194 147 194 147 255 c 128,-1,82
 147 316 147 316 188.5 360 c 128,-1,83
 230 404 230 404 287 404 c 0,84,85
 301 404 301 404 314.5 401.5 c 128,-1,86
 328 399 328 399 340 393.5 c 128,-1,87
 352 388 352 388 363.5 379.5 c 128,-1,88
 375 371 375 371 385 360 c 0,89,90
 425 318 425 318 426 259 c 1,91,-1
 425 258 l 1,92,-1
 425 254 l 1,93,-1
 425 251 l 1,94,-1
 425 116 l 2,95,96
 425 55 425 55 388 11 c 128,-1,97
 351 -33 351 -33 300 -33 c 0,98,99
 247 -33 247 -33 197 -11 c 0,100,101
 151 10 151 10 112 51 c 0,102,103
 72 92 72 92 52 143 c 0,104,105
 30 198 30 198 30 256 c 128,-1,106
 30 314 30 314 52 370 c 0,107,108
 72 421 72 421 111 462 c 0,109,110
 151 502 151 502 197 522 c 0,111,112
 247 544 247 544 298 544 c 0,113,114
 351 544 351 544 400 522 c 0,115,116
 447 502 447 502 485 462 c 0,117,118
 498 449 498 449 509 434.5 c 128,-1,28
 520 420 520 420 529 404 c 128,-1,29
EndSplineSet
Validated: 1
EndChar

StartChar: A
Encoding: 65 65 38
Width: 562
GlyphClass: 2
Flags: W
HStem: 155 63<174 360>
LayerCount: 2
Fore
SplineSet
531 10 m 1,0,-1
 460 10 l 1,1,-1
 391 149 l 1,2,-1
 389 155 l 1,3,-1
 383 155 l 1,4,-1
 151 155 l 1,5,-1
 145 155 l 1,6,-1
 143 149 l 1,7,-1
 75 10 l 1,8,-1
 4 10 l 1,9,-1
 267 567 l 1,10,-1
 531 10 l 1,0,-1
174 218 m 1,11,-1
 189 218 l 1,12,-1
 344 218 l 1,13,-1
 360 218 l 1,14,-1
 353 232 l 1,15,-1
 275 397 l 1,16,-1
 267 415 l 1,17,-1
 259 397 l 1,18,-1
 181 232 l 1,19,-1
 174 218 l 1,11,-1
EndSplineSet
Validated: 1
AlternateSubs2: "'aalt' +MFkweTBmMG51cE9TW1cweDBuMKIwrzC7MLkA in +MOkwxjDzZYdbVwAA lookup 0 +MLUw1jDGMPww1jDr" A.alt1 A.alt2
EndChar

StartChar: B
Encoding: 66 66 39
Width: 479
GlyphClass: 2
Flags: W
HStem: 20 53<93 350.874> 258 63<93 349.283> 516 63<93 350.874>
VStem: 30 63<73 258 321 516> 386 63<108.542 222.812 358.042 482.202>
LayerCount: 2
Fore
SplineSet
386 299 m 1,0,-1
 395 291 l 2,1,2
 449 245 449 245 449 175 c 0,3,4
 449 111 449 111 402 66 c 0,5,6
 378 43 378 43 350 31 c 0,7,8
 325 20 325 20 309 20 c 2,9,-1
 30 20 l 1,10,-1
 30 579 l 1,11,-1
 309 579 l 2,12,13
 326 579 326 579 350 568 c 0,14,15
 378 557 378 557 402 533.5 c 128,-1,16
 426 510 426 510 437.5 483 c 128,-1,17
 449 456 449 456 449 423 c 0,18,19
 449 406 449 406 445.5 390 c 128,-1,20
 442 374 442 374 435.5 359.5 c 128,-1,21
 429 345 429 345 418.5 331.5 c 128,-1,22
 408 318 408 318 394 307 c 2,23,-1
 386 299 l 1,0,-1
103 73 m 1,24,-1
 309 73 l 2,25,26
 329 73 329 73 357 100 c 0,27,28
 386 128 386 128 386 166 c 0,29,30
 386 185 386 185 378.5 201.5 c 128,-1,31
 371 218 371 218 357 231 c 0,32,33
 329 258 329 258 309 258 c 2,34,-1
 103 258 l 1,35,-1
 93 258 l 1,36,-1
 93 248 l 1,37,-1
 93 83 l 1,38,-1
 93 73 l 1,39,-1
 103 73 l 1,24,-1
103 321 m 1,40,-1
 309 321 l 2,41,42
 329 321 329 321 357 350 c 0,43,44
 386 379 386 379 386 420 c 0,45,46
 386 440 386 440 379 459 c 0,47,48
 372 476 372 476 357.5 489 c 128,-1,49
 343 502 343 502 328 509 c 0,50,51
 319 516 319 516 309 516 c 2,52,-1
 103 516 l 1,53,-1
 93 516 l 1,54,-1
 93 506 l 1,55,-1
 93 332 l 1,56,-1
 93 321 l 1,57,-1
 103 321 l 1,40,-1
EndSplineSet
Validated: 1
EndChar

StartChar: C
Encoding: 67 67 40
Width: 514
GlyphClass: 2
Flags: W
HStem: 20 63<208.505 385.941> 516 63<208.479 384.639>
VStem: 30 63<204.659 395.941>
LayerCount: 2
Fore
SplineSet
296 83 m 0,0,1
 374 83 374 83 435 139 c 1,2,-1
 480 95 l 1,3,4
 400 20 400 20 295 20 c 0,5,6
 189 20 189 20 112 102 c 0,7,8
 30 184 30 184 30 299 c 0,9,10
 30 344 30 344 44 387 c 0,11,12
 46 394 46 394 49 401 c 128,-1,13
 52 408 52 408 55 415 c 128,-1,14
 58 422 58 422 61 428.5 c 128,-1,15
 64 435 64 435 68 441 c 128,-1,16
 72 447 72 447 76 453 c 128,-1,17
 80 459 80 459 84 464 c 0,18,19
 110 498 110 498 144 524 c 0,20,21
 176 550 176 550 215 564.5 c 128,-1,22
 254 579 254 579 295 579 c 0,23,24
 399 579 399 579 480 504 c 1,25,-1
 435 459 l 1,26,27
 374 516 374 516 296 516 c 0,28,29
 214 516 214 516 156 453 c 0,30,31
 93 390 93 390 93 300 c 128,-1,32
 93 210 93 210 156 146 c 0,33,34
 214 83 214 83 296 83 c 0,0,1
EndSplineSet
Validated: 1
EndChar

StartChar: D
Encoding: 68 68 41
Width: 528
GlyphClass: 2
Flags: W
HStem: 20 63<92 319.523> 516 63<92 319.561>
VStem: 30 62<83 516> 434 63<203.868 394.767>
LayerCount: 2
Fore
SplineSet
229 579 m 1,0,-1
 231 579 l 2,1,2
 258 579 258 579 282.5 574 c 128,-1,3
 307 569 307 569 329.5 558.5 c 128,-1,4
 352 548 352 548 373 533 c 0,5,6
 395 518 395 518 415 497 c 0,7,8
 497 415 497 415 497 299 c 0,9,10
 497 260 497 260 488 225.5 c 128,-1,11
 479 191 479 191 461 160 c 128,-1,12
 443 129 443 129 415.5 101.5 c 128,-1,13
 388 74 388 74 359 56 c 0,14,15
 331 38 331 38 299 29 c 128,-1,16
 267 20 267 20 231 20 c 2,17,-1
 230 20 l 1,18,-1
 229 20 l 1,19,-1
 30 20 l 1,20,-1
 30 579 l 1,21,-1
 229 579 l 1,0,-1
230 83 m 1,22,-1
 231 83 l 2,23,24
 258 83 258 83 283 90 c 128,-1,25
 308 97 308 97 330 111 c 128,-1,26
 352 125 352 125 371 146 c 0,27,28
 402 178 402 178 418 216.5 c 128,-1,29
 434 255 434 255 434 299.5 c 128,-1,30
 434 344 434 344 418 382.5 c 128,-1,31
 402 421 402 421 371 453 c 0,32,33
 342 485 342 485 307 500.5 c 128,-1,34
 272 516 272 516 231 516 c 2,35,-1
 230 516 l 1,36,-1
 229 516 l 1,37,-1
 102 516 l 1,38,-1
 92 516 l 1,39,-1
 92 506 l 1,40,-1
 92 93 l 1,41,-1
 92 83 l 1,42,-1
 102 83 l 1,43,-1
 229 83 l 1,44,-1
 230 83 l 1,22,-1
EndSplineSet
Validated: 1
EndChar

StartChar: E
Encoding: 69 69 42
Width: 382
GlyphClass: 2
Flags: W
HStem: 10 63<93 352> 258 63<93 352> 516 63<93 352>
VStem: 30 63<73 258 321 516>
LayerCount: 2
Fore
SplineSet
352 579 m 1,0,-1
 352 516 l 1,1,-1
 103 516 l 1,2,-1
 93 516 l 1,3,-1
 93 506 l 1,4,-1
 93 332 l 1,5,-1
 93 321 l 1,6,-1
 103 321 l 1,7,-1
 352 321 l 1,8,-1
 352 258 l 1,9,-1
 103 258 l 1,10,-1
 93 258 l 1,11,-1
 93 248 l 1,12,-1
 93 83 l 1,13,-1
 93 73 l 1,14,-1
 103 73 l 1,15,-1
 352 73 l 1,16,-1
 352 10 l 1,17,-1
 30 10 l 1,18,-1
 30 579 l 1,19,-1
 352 579 l 1,0,-1
EndSplineSet
Validated: 1
EndChar

StartChar: F
Encoding: 70 70 43
Width: 382
GlyphClass: 2
Flags: W
HStem: 258 63<93 352> 516 63<93 352>
VStem: 30 63<10 258 321 516>
LayerCount: 2
Fore
SplineSet
93 258 m 1,0,-1
 93 248 l 1,1,-1
 93 10 l 1,2,-1
 30 10 l 1,3,-1
 30 579 l 1,4,-1
 352 579 l 1,5,-1
 352 516 l 1,6,-1
 103 516 l 1,7,-1
 93 516 l 1,8,-1
 93 506 l 1,9,-1
 93 332 l 1,10,-1
 93 321 l 1,11,-1
 103 321 l 1,12,-1
 352 321 l 1,13,-1
 352 258 l 1,14,-1
 103 258 l 1,15,-1
 93 258 l 1,0,-1
EndSplineSet
Validated: 1
EndChar

StartChar: G
Encoding: 71 71 44
Width: 599
GlyphClass: 2
Flags: W
HStem: 10 63<209.895 387.09> 216 63<308 493> 516 63<210.141 387.833>
VStem: 30 63<195.328 392.919>
LayerCount: 2
Fore
SplineSet
308 279 m 1,0,-1
 496 279 l 1,1,-1
 569 279 l 1,2,3
 567 223 567 223 546.5 177 c 128,-1,4
 526 131 526 131 487 92 c 0,5,6
 408 10 408 10 299 10 c 128,-1,7
 190 10 190 10 112 92 c 0,8,9
 30 174 30 174 30 290 c 0,10,11
 30 321 30 321 35 349 c 128,-1,12
 40 377 40 377 50.5 403.5 c 128,-1,13
 61 430 61 430 76 454 c 0,14,15
 91 477 91 477 112 497 c 0,16,17
 191 579 191 579 299 579 c 0,18,19
 403 579 403 579 480 504 c 1,20,-1
 436 459 l 1,21,22
 379 516 379 516 299 516 c 0,23,24
 215 516 215 516 156 453 c 0,25,26
 93 387 93 387 93 293 c 0,27,28
 93 201 93 201 156 136 c 0,29,30
 215 73 215 73 299 73 c 0,31,32
 330 73 330 73 358 82 c 128,-1,33
 386 91 386 91 411 109 c 0,34,35
 462 145 462 145 487 202 c 2,36,-1
 493 216 l 1,37,-1
 478 216 l 1,38,-1
 308 216 l 1,39,-1
 308 279 l 1,0,-1
EndSplineSet
Validated: 1
EndChar

StartChar: H
Encoding: 72 72 45
Width: 454
GlyphClass: 2
Flags: W
HStem: 258 63<93 361> 559 20G<30 93 361 424>
VStem: 30 63<10 258 321 579> 361 63<10 258 321 579>
LayerCount: 2
Fore
SplineSet
361 331 m 1,0,-1
 361 579 l 1,1,-1
 424 579 l 1,2,-1
 424 10 l 1,3,-1
 361 10 l 1,4,-1
 361 248 l 1,5,-1
 361 258 l 1,6,-1
 352 258 l 1,7,-1
 102 258 l 1,8,-1
 93 258 l 1,9,-1
 93 248 l 1,10,-1
 93 10 l 1,11,-1
 30 10 l 1,12,-1
 30 579 l 1,13,-1
 93 579 l 1,14,-1
 93 331 l 1,15,-1
 93 321 l 1,16,-1
 102 321 l 1,17,-1
 352 321 l 1,18,-1
 361 321 l 1,19,-1
 361 331 l 1,0,-1
EndSplineSet
Validated: 1
EndChar

StartChar: I
Encoding: 73 73 46
Width: 123
GlyphClass: 2
Flags: W
HStem: 20 21G<30 93> 559 20G<30 93>
VStem: 30 63<20 579>
LayerCount: 2
Fore
SplineSet
93 579 m 1,0,-1
 93 20 l 1,1,-1
 30 20 l 1,2,-1
 30 579 l 1,3,-1
 93 579 l 1,0,-1
EndSplineSet
Validated: 1
EndChar

StartChar: J
Encoding: 74 74 47
Width: 399
GlyphClass: 2
Flags: W
HStem: 20 63<140.578 262.188> 355 1<287 305> 559 20G<305 368>
VStem: 30 63<131.977 189> 305 63<127.967 355 356 579>
LayerCount: 2
Fore
SplineSet
305 579 m 1,0,-1
 368 579 l 1,1,-1
 368 199 l 2,2,3
 368 151 368 151 344 109.5 c 128,-1,4
 320 68 320 68 282 44 c 0,5,6
 263 32 263 32 243 26 c 128,-1,7
 223 20 223 20 202 20 c 0,8,9
 135 20 135 20 82 73 c 0,10,11
 33 122 33 122 30 189 c 1,12,-1
 93 189 l 1,13,14
 97 147 97 147 127 117 c 0,15,16
 160 83 160 83 202 83 c 0,17,18
 223 83 223 83 241.5 91.5 c 128,-1,19
 260 100 260 100 275 117 c 128,-1,20
 290 134 290 134 297.5 154.5 c 128,-1,21
 305 175 305 175 305 199 c 2,22,-1
 305 579 l 1,0,-1
EndSplineSet
Validated: 1
EndChar

StartChar: K
Encoding: 75 75 48
Width: 520
GlyphClass: 2
Flags: W
HStem: 20 21G<30 93 350.35 471> 559 20G<30 93 350.35 471>
VStem: 30 63<20 267 332 579>
LayerCount: 2
Fore
SplineSet
373 579 m 1,0,-1
 471 579 l 1,1,-1
 157 307 l 1,2,-1
 148 299 l 1,3,-1
 157 291 l 1,4,-1
 471 20 l 1,5,-1
 373 20 l 1,6,-1
 108 254 l 1,7,-1
 93 267 l 1,8,-1
 93 246 l 1,9,-1
 93 20 l 1,10,-1
 30 20 l 1,11,-1
 30 579 l 1,12,-1
 93 579 l 1,13,-1
 93 353 l 1,14,-1
 93 332 l 1,15,-1
 108 345 l 1,16,-1
 373 579 l 1,0,-1
EndSplineSet
Validated: 1
EndChar

StartChar: L
Encoding: 76 76 49
Width: 382
GlyphClass: 2
Flags: W
HStem: 20 63<93 352> 559 20G<30 93>
VStem: 30 63<83 579>
LayerCount: 2
Fore
SplineSet
30 579 m 1,0,-1
 93 579 l 1,1,-1
 93 93 l 1,2,-1
 93 83 l 1,3,-1
 102 83 l 1,4,-1
 352 83 l 1,5,-1
 352 20 l 1,6,-1
 30 20 l 1,7,-1
 30 579 l 1,0,-1
EndSplineSet
Validated: 1
EndChar

StartChar: M
Encoding: 77 77 50
Width: 681
GlyphClass: 2
Flags: W
HStem: 20 22G<30 93 589 650>
VStem: 30 63<20 370> 589 61<21 371>
LayerCount: 2
Fore
SplineSet
349 142 m 1,0,-1
 587 473 l 1,1,-1
 650 558 l 1,2,-1
 650 21 l 1,3,-1
 589 21 l 1,4,-1
 589 341 l 1,5,-1
 589 371 l 1,6,-1
 571 347 l 1,7,-1
 341 27 l 1,8,-1
 170 266 l 1,9,-1
 111 346 l 1,10,-1
 93 370 l 1,11,-1
 93 340 l 1,12,-1
 93 20 l 1,13,-1
 30 20 l 1,14,-1
 30 559 l 1,15,-1
 333 142 l 1,16,-1
 341 131 l 1,17,-1
 349 142 l 1,0,-1
EndSplineSet
Validated: 1
AlternateSubs2: "'aalt' +MFkweTBmMG51cE9TW1cweDBuMKIwrzC7MLkA in +MOkwxjDzZYdbVwAA lookup 0 +MLUw1jDGMPww1jDr" M.alt1 M.alt2
EndChar

StartChar: N
Encoding: 78 78 51
Width: 481
GlyphClass: 2
Flags: W
HStem: 21 21G<30 93> 559 20G<389 451>
VStem: 30 63<21 412> 389 62<188 579>
LayerCount: 2
Fore
SplineSet
389 579 m 1,0,-1
 451 579 l 1,1,-1
 451 34 l 1,2,-1
 110 395 l 1,3,-1
 93 412 l 1,4,-1
 93 388 l 1,5,-1
 93 21 l 1,6,-1
 30 21 l 1,7,-1
 30 567 l 1,8,-1
 373 205 l 1,9,-1
 389 188 l 1,10,-1
 389 212 l 1,11,-1
 389 579 l 1,0,-1
EndSplineSet
Validated: 1
EndChar

StartChar: O
Encoding: 79 79 52
Width: 599
GlyphClass: 2
Flags: W
HStem: 20 63<210.553 389.166> 516 63<210.214 388.765>
VStem: 30 63<204.57 394.319> 506 63<204.413 395.807>
LayerCount: 2
Fore
SplineSet
377 500 m 128,-1,1
 341 516 341 516 299 516 c 0,2,3
 244 516 244 516 197 487 c 0,4,5
 185 480 185 480 175 471 c 128,-1,6
 165 462 165 462 156 452 c 128,-1,7
 147 442 147 442 138 431 c 128,-1,8
 129 420 129 420 122 408 c 0,9,10
 93 358 93 358 93 299 c 0,11,12
 93 210 93 210 156 146 c 0,13,14
 216 83 216 83 300 83 c 0,15,16
 342 83 342 83 377.5 99 c 128,-1,17
 413 115 413 115 443 146 c 0,18,19
 506 210 506 210 506 300 c 0,20,21
 506 330 506 330 499 356.5 c 128,-1,22
 492 383 492 383 478 407.5 c 128,-1,23
 464 432 464 432 443 453 c 0,24,0
 413 484 413 484 377 500 c 128,-1,1
112 102 m 0,25,26
 30 184 30 184 30 299 c 0,27,28
 30 328 30 328 35 355 c 128,-1,29
 40 382 40 382 50.5 406.5 c 128,-1,30
 61 431 61 431 76 453.5 c 128,-1,31
 91 476 91 476 112 497 c 0,32,33
 191 579 191 579 299 579 c 0,34,35
 335 579 335 579 368 569.5 c 128,-1,36
 401 560 401 560 431 541 c 0,37,38
 494 503 494 503 531.5 439 c 128,-1,39
 569 375 569 375 569 299 c 0,40,41
 569 183 569 183 487 102 c 0,42,43
 408 20 408 20 299.5 20 c 128,-1,44
 191 20 191 20 112 102 c 0,25,26
EndSplineSet
Validated: 1
EndChar

StartChar: P
Encoding: 80 80 53
Width: 475
GlyphClass: 2
Flags: W
HStem: 258 63<93 347.387> 516 63<93 348.375>
VStem: 30 63<10 258 321 516> 382 63<355.986 481.713>
LayerCount: 2
Fore
SplineSet
30 579 m 1,0,-1
 309 579 l 2,1,2
 354 579 354 579 399 533 c 0,3,4
 445 486 445 486 445 419 c 0,5,6
 445 412 445 412 444.5 404.5 c 128,-1,7
 444 397 444 397 443 390.5 c 128,-1,8
 442 384 442 384 440 377 c 128,-1,9
 438 370 438 370 436 363.5 c 128,-1,10
 434 357 434 357 431 351 c 128,-1,11
 428 345 428 345 424.5 339 c 128,-1,12
 421 333 421 333 417.5 327.5 c 128,-1,13
 414 322 414 322 409.5 316.5 c 128,-1,14
 405 311 405 311 399 305 c 0,15,16
 376 281 376 281 349 270 c 0,17,18
 323 258 323 258 309 258 c 2,19,-1
 103 258 l 1,20,-1
 93 258 l 1,21,-1
 93 248 l 1,22,-1
 93 10 l 1,23,-1
 30 10 l 1,24,-1
 30 579 l 1,0,-1
103 321 m 1,25,-1
 309 321 l 2,26,27
 320 321 320 321 336 334 c 0,28,29
 357 347 357 347 369.5 370.5 c 128,-1,30
 382 394 382 394 382 420 c 0,31,32
 382 440 382 440 375 458 c 0,33,34
 368 475 368 475 354.5 488.5 c 128,-1,35
 341 502 341 502 325 509 c 0,36,37
 318 516 318 516 309 516 c 2,38,-1
 103 516 l 1,39,-1
 93 516 l 1,40,-1
 93 506 l 1,41,-1
 93 332 l 1,42,-1
 93 321 l 1,43,-1
 103 321 l 1,25,-1
EndSplineSet
Validated: 1
EndChar

StartChar: Q
Encoding: 81 81 54
Width: 599
GlyphClass: 2
Flags: W
HStem: 20 63<209.895 385.383> 516 63<210.474 390.311>
VStem: 30 63<204.659 395.741> 506 63<204.413 395.92>
LayerCount: 2
Fore
SplineSet
531.5 439.5 m 128,-1,1
 569 375 569 375 569 299 c 0,2,3
 569 183 569 183 487 102 c 2,4,-1
 480 95 l 1,5,-1
 487 88 l 1,6,-1
 555 20 l 1,7,-1
 465 20 l 1,8,-1
 435 52 l 1,9,-1
 430 57 l 1,10,-1
 424 54 l 2,11,12
 366 20 366 20 299 20 c 0,13,14
 190 20 190 20 112 102 c 0,15,16
 30 184 30 184 30 299 c 0,17,18
 30 328 30 328 35 355 c 128,-1,19
 40 382 40 382 50.5 406.5 c 128,-1,20
 61 431 61 431 76 453.5 c 128,-1,21
 91 476 91 476 112 497 c 0,22,23
 191 579 191 579 299 579 c 0,24,25
 335 579 335 579 368 569.5 c 128,-1,26
 401 560 401 560 431 541 c 0,27,0
 494 504 494 504 531.5 439.5 c 128,-1,1
321 173 m 1,28,-1
 405 173 l 1,29,-1
 429 146 l 1,30,-1
 436 139 l 1,31,-1
 443 146 l 2,32,33
 506 210 506 210 506 300 c 0,34,35
 506 330 506 330 499 356.5 c 128,-1,36
 492 383 492 383 478 407.5 c 128,-1,37
 464 432 464 432 443 453 c 0,38,39
 413 484 413 484 377 500 c 0,40,41
 342 516 342 516 300 516 c 0,42,43
 216 516 216 516 156 453 c 0,44,45
 93 390 93 390 93 300 c 128,-1,46
 93 210 93 210 156 146 c 0,47,48
 215 83 215 83 299 83 c 0,49,50
 337 83 337 83 373 98 c 2,51,-1
 386 103 l 1,52,-1
 376 114 l 1,53,-1
 321 173 l 1,28,-1
EndSplineSet
Validated: 1
EndChar

StartChar: R
Encoding: 82 82 55
Width: 475
GlyphClass: 2
Flags: W
HStem: 258 63<93 108 197 346.953> 516 63<93 348.375>
VStem: 30 63<10 258 321 516> 382 63<356.417 481.713>
LayerCount: 2
Fore
SplineSet
349 270 m 0,0,1
 323 258 323 258 309 258 c 2,2,-1
 221 258 l 1,3,-1
 197 258 l 1,4,-1
 214 241 l 1,5,-1
 425 10 l 1,6,-1
 336 10 l 1,7,-1
 111 255 l 1,8,-1
 108 258 l 1,9,-1
 104 258 l 1,10,-1
 103 258 l 1,11,-1
 93 258 l 1,12,-1
 93 248 l 1,13,-1
 93 10 l 1,14,-1
 30 10 l 1,15,-1
 30 579 l 1,16,-1
 309 579 l 2,17,18
 354 579 354 579 399 533 c 0,19,20
 445 486 445 486 445 419 c 0,21,22
 445 412 445 412 444.5 404.5 c 128,-1,23
 444 397 444 397 443 390.5 c 128,-1,24
 442 384 442 384 440 377 c 128,-1,25
 438 370 438 370 436 363.5 c 128,-1,26
 434 357 434 357 431 351 c 128,-1,27
 428 345 428 345 424.5 339 c 128,-1,28
 421 333 421 333 417.5 327.5 c 128,-1,29
 414 322 414 322 409.5 316.5 c 128,-1,30
 405 311 405 311 399 305 c 0,31,32
 376 282 376 282 349 270 c 0,0,1
93 516 m 1,33,-1
 93 506 l 1,34,-1
 93 332 l 1,35,-1
 93 321 l 1,36,-1
 103 321 l 1,37,-1
 309 321 l 2,38,39
 327 321 327 321 354.5 350 c 128,-1,40
 382 379 382 379 382 420 c 0,41,42
 382 440 382 440 375 458 c 0,43,44
 368 475 368 475 354.5 488.5 c 128,-1,45
 341 502 341 502 325 509 c 0,46,47
 318 516 318 516 309 516 c 2,48,-1
 103 516 l 1,49,-1
 93 516 l 1,33,-1
EndSplineSet
Validated: 1
EndChar

StartChar: S
Encoding: 83 83 56
Width: 380
GlyphClass: 2
Flags: W
HStem: 10 63<127.797 250.869> 258 62<146.062 237.969> 516 63<128.506 250.793>
VStem: 30 63<357.509 480.866> 286 63<108.148 223.361>
LayerCount: 2
Fore
SplineSet
107 283 m 1,0,-1
 105 283 l 2,1,2
 103 284 103 284 100 286 c 0,3,4
 99 286 99 286 99 287 c 0,5,6
 98 288 98 288 95 291 c 0,7,8
 92 293 92 293 89.5 294.5 c 128,-1,9
 87 296 87 296 84 298 c 0,10,11
 78 303 78 303 77 305 c 0,12,13
 30 353 30 353 30 419.5 c 128,-1,14
 30 486 30 486 77 533 c 0,15,16
 124 579 124 579 190 579 c 128,-1,17
 256 579 256 579 302 533 c 0,18,19
 319 516 319 516 330 496.5 c 128,-1,20
 341 477 341 477 346 454 c 1,21,-1
 280 454 l 1,22,23
 273 474 273 474 258 488 c 0,24,25
 229 516 229 516 189.5 516 c 128,-1,26
 150 516 150 516 122 489 c 0,27,28
 93 460 93 460 93 419 c 128,-1,29
 93 378 93 378 122 349 c 0,30,31
 150 321 150 321 190 321 c 0,32,33
 197 321 197 321 206 320 c 0,34,-1
 207 320 l 1,35,-1
 208 320 l 2,36,37
 209 320 209 320 211.5 319.5 c 128,-1,38
 214 319 214 319 216 319 c 128,-1,39
 218 319 218 319 219 318 c 0,40,41
 222 317 222 317 225 317 c 0,42,43
 227 316 227 316 228.5 316 c 128,-1,44
 230 316 230 316 232 316 c 0,45,-1
 235 315 l 0,46,47
 237 314 237 314 238 313 c 2,48,-1
 240 313 l 2,49,50
 246 311 246 311 250 309 c 2,51,-1
 252 308 l 2,52,53
 253 308 l 0,54,55
 254 308 254 308 255 307 c 0,56,57
 260 305 260 305 264 303 c 0,58,59
 265 302 265 302 266 302 c 2,60,-1
 267 301 l 1,61,-1
 268 300 l 1,62,-1
 270 299 l 2,63,64
 274 296 274 296 282.5 290 c 128,-1,65
 291 284 291 284 295 281 c 128,-1,66
 299 278 299 278 300 277 c 2,67,-1
 301 276 l 1,68,-1
 302 275 l 2,69,70
 305 272 305 272 309 268 c 0,71,72
 322 254 322 254 331 237.5 c 128,-1,73
 340 221 340 221 344 203 c 0,74,75
 348 186 348 186 349 166 c 0,76,77
 349 102 349 102 302.5 56 c 128,-1,78
 256 10 256 10 189.5 10 c 128,-1,79
 123 10 123 10 77 56 c 0,80,81
 43 89 43 89 33 135 c 1,82,-1
 99 135 l 1,83,84
 106 115 106 115 121 100 c 0,85,86
 150 73 150 73 189.5 73 c 128,-1,87
 229 73 229 73 257 100 c 0,88,89
 286 128 286 128 286 166 c 0,90,91
 286 185 286 185 278.5 201.5 c 128,-1,92
 271 218 271 218 257 231 c 0,93,94
 229 258 229 258 190 258 c 2,95,-1
 189 258 l 2,96,97
 183 258 183 258 177 258.5 c 128,-1,98
 171 259 171 259 164 260 c 0,99,100
 161 261 161 261 159 261 c 0,101,102
 155 262 155 262 150 263 c 2,103,-1
 146 265 l 1,104,-1
 145 265 l 1,105,-1
 144 265 l 2,106,107
 141 266 141 266 135 268 c 2,108,-1
 131 269 l 1,109,-1
 130 270 l 1,110,-1
 129 270 l 2,111,112
 128 270 128 270 126 271 c 128,-1,113
 124 272 124 272 122 273 c 2,114,-1
 119 275 l 1,115,-1
 117 276 l 2,116,117
 116 277 116 277 114.5 277.5 c 128,-1,118
 113 278 113 278 111 280 c 2,119,-1
 108 281 l 1,120,-1
 107 283 l 1,0,-1
EndSplineSet
Validated: 1
EndChar

StartChar: T
Encoding: 84 84 57
Width: 454
GlyphClass: 2
Flags: W
HStem: 20 21G<200 254> 516 63<30 200 254 424>
VStem: 200 54<20 516>
LayerCount: 2
Fore
SplineSet
30 579 m 1,0,-1
 424 579 l 1,1,-1
 424 516 l 1,2,-1
 263 516 l 1,3,-1
 254 516 l 1,4,-1
 254 506 l 1,5,-1
 254 20 l 1,6,-1
 200 20 l 1,7,-1
 200 506 l 1,8,-1
 200 516 l 1,9,-1
 191 516 l 1,10,-1
 30 516 l 1,11,-1
 30 579 l 1,0,-1
EndSplineSet
Validated: 1
EndChar

StartChar: U
Encoding: 85 85 58
Width: 537
GlyphClass: 2
Flags: W
HStem: 20 63<187.569 347.688>
VStem: 30 63<181.517 577> 444 63<181.722 577>
LayerCount: 2
Fore
SplineSet
444 270 m 1,0,-1
 444 577 l 1,1,-1
 507 577 l 1,2,-1
 507 270 l 1,3,-1
 507 269 l 1,4,-1
 507 268 l 2,5,6
 507 217 507 217 489 173.5 c 128,-1,7
 471 130 471 130 434 93 c 0,8,9
 363 20 363 20 268.5 20 c 128,-1,10
 174 20 174 20 103 93 c 0,11,12
 30 166 30 166 30 268 c 2,13,-1
 30 269 l 1,14,-1
 30 270 l 1,15,-1
 30 577 l 1,16,-1
 93 577 l 1,17,-1
 93 270 l 1,18,-1
 93 269 l 1,19,-1
 93 268 l 2,20,21
 93 192 93 192 147 137 c 0,22,23
 197 83 197 83 268 83 c 0,24,25
 280 83 280 83 291 84.5 c 128,-1,26
 302 86 302 86 313 89 c 128,-1,27
 324 92 324 92 334 97 c 128,-1,28
 344 102 344 102 354 108 c 0,29,30
 394 133 394 133 419 175.5 c 128,-1,31
 444 218 444 218 444 268 c 2,32,-1
 444 270 l 1,0,-1
EndSplineSet
Validated: 1
EndChar

StartChar: V
Encoding: 86 86 59
Width: 517
GlyphClass: 2
Flags: W
HStem: 559 20G<-6 73.2987 430.649 510>
LayerCount: 2
Fore
SplineSet
260 194 m 1,0,-1
 440 579 l 1,1,-1
 510 579 l 1,2,-1
 252 33 l 1,3,-1
 -6 579 l 1,4,-1
 64 579 l 1,5,-1
 243 194 l 1,6,-1
 252 175 l 1,7,-1
 260 194 l 1,0,-1
EndSplineSet
Validated: 1
AlternateSubs2: "'aalt' +MFkweTBmMG51cE9TW1cweDBuMKIwrzC7MLkA in +MOkwxjDzZYdbVwAA lookup 0 +MLUw1jDGMPww1jDr" V.alt1 V.alt2
EndChar

StartChar: W
Encoding: 87 87 60
Width: 918
GlyphClass: 2
Flags: W
HStem: 559 20G<3 82.5584 823.442 903>
LayerCount: 2
Fore
SplineSet
833 579 m 1,0,-1
 903 579 l 1,1,-1
 640 33 l 1,2,-1
 462 404 l 1,3,-1
 453 423 l 1,4,-1
 444 404 l 1,5,-1
 266 33 l 1,6,-1
 3 579 l 1,7,-1
 73 579 l 1,8,-1
 257 194 l 1,9,-1
 266 175 l 1,10,-1
 275 194 l 1,11,-1
 417 490 l 1,12,-1
 418 492 l 1,13,-1
 418 493 l 1,14,-1
 453 566 l 1,15,-1
 489 491 l 1,16,-1
 631 194 l 1,17,-1
 640 175 l 1,18,-1
 649 194 l 1,19,-1
 833 579 l 1,0,-1
EndSplineSet
Validated: 1
EndChar

StartChar: X
Encoding: 88 88 61
Width: 558
GlyphClass: 2
Flags: W
HStem: 20 21G<30 123.074 414.926 508> 559 20G<30 123.009 414.991 508>
LayerCount: 2
Fore
SplineSet
429 579 m 1,0,-1
 508 579 l 1,1,-1
 310 305 l 1,2,-1
 306 299 l 1,3,-1
 310 293 l 1,4,-1
 508 20 l 1,5,-1
 429 20 l 1,6,-1
 277 236 l 1,7,-1
 269 247 l 1,8,-1
 261 236 l 1,9,-1
 109 20 l 1,10,-1
 30 20 l 1,11,-1
 228 293 l 1,12,-1
 232 299 l 1,13,-1
 228 305 l 1,14,-1
 30 579 l 1,15,-1
 109 579 l 1,16,-1
 261 362 l 1,17,-1
 269 351 l 1,18,-1
 277 362 l 1,19,-1
 429 579 l 1,0,-1
EndSplineSet
Validated: 1
EndChar

StartChar: Y
Encoding: 89 89 62
Width: 558
GlyphClass: 2
Flags: W
HStem: 20 21G<239 298> 559 20G<30 123.101 414.991 508>
VStem: 239 59<20 288>
LayerCount: 2
Fore
SplineSet
429 579 m 1,0,-1
 508 579 l 1,1,-1
 300 291 l 1,2,-1
 298 288 l 1,3,-1
 298 285 l 1,4,-1
 298 20 l 1,5,-1
 239 20 l 1,6,-1
 239 285 l 1,7,-1
 239 288 l 1,8,-1
 237 291 l 1,9,-1
 30 579 l 1,10,-1
 109 579 l 1,11,-1
 262 362 l 1,12,-1
 269 351 l 1,13,-1
 277 362 l 1,14,-1
 429 579 l 1,0,-1
EndSplineSet
Validated: 1
Substitution2: "'aalt' +MFkweTBmMG51cE9TW1cweDBuMKIwrzC7MLkA in +MOkwxjDzZYdbVwAA lookup 1 +MLUw1jDGMPww1jDr" Y.alt1
EndChar

StartChar: Z
Encoding: 90 90 63
Width: 558
GlyphClass: 2
Flags: W
HStem: 20 63<165 528> 516 63<30 393>
LayerCount: 2
Fore
SplineSet
30 516 m 1,0,-1
 30 579 l 1,1,-1
 518 579 l 1,2,-1
 176 99 l 1,3,-1
 165 83 l 1,4,-1
 183 83 l 1,5,-1
 528 83 l 1,6,-1
 528 20 l 1,7,-1
 40 20 l 1,8,-1
 382 500 l 1,9,-1
 393 516 l 1,10,-1
 375 516 l 1,11,-1
 30 516 l 1,0,-1
EndSplineSet
Validated: 1
EndChar

StartChar: bracketleft
Encoding: 91 91 64
Width: 227
GlyphClass: 2
Flags: W
HStem: -41 62<93 196> 557 63<93 196>
VStem: 30 166<-41 21 557 620> 30 63<21 557>
LayerCount: 2
Fore
SplineSet
196 620 m 1,0,-1
 196 557 l 1,1,-1
 103 557 l 1,2,-1
 93 557 l 1,3,-1
 93 547 l 1,4,-1
 93 31 l 1,5,-1
 93 21 l 1,6,-1
 103 21 l 1,7,-1
 196 21 l 1,8,-1
 196 -41 l 1,9,-1
 30 -41 l 1,10,-1
 30 620 l 1,11,-1
 196 620 l 1,0,-1
EndSplineSet
Validated: 1
EndChar

StartChar: backslash
Encoding: 92 92 65
Width: 403
GlyphClass: 2
Flags: W
HStem: 20 21G<279.733 360> 559 20G<30 110.267>
VStem: 30 330
LayerCount: 2
Fore
SplineSet
30 579 m 1,0,-1
 101 579 l 1,1,-1
 360 20 l 1,2,-1
 289 20 l 1,3,-1
 30 579 l 1,0,-1
EndSplineSet
Validated: 1
EndChar

StartChar: bracketright
Encoding: 93 93 66
Width: 227
GlyphClass: 2
Flags: W
HStem: -35 63<30 133> 564 63<30 133>
VStem: 30 166<-35 28 564 627> 133 63<28 564>
LayerCount: 2
Fore
SplineSet
30 564 m 1,0,-1
 30 627 l 1,1,-1
 196 627 l 1,2,-1
 196 -35 l 1,3,-1
 30 -35 l 1,4,-1
 30 28 l 1,5,-1
 123 28 l 1,6,-1
 133 28 l 1,7,-1
 133 38 l 1,8,-1
 133 554 l 1,9,-1
 133 564 l 1,10,-1
 123 564 l 1,11,-1
 30 564 l 1,0,-1
EndSplineSet
Validated: 1
EndChar

StartChar: underscore
Encoding: 95 95 67
Width: 599
GlyphClass: 2
Flags: W
HStem: -117 63<30 569>
LayerCount: 2
Fore
SplineSet
569 -54 m 1,0,-1
 569 -117 l 1,1,-1
 30 -117 l 1,2,-1
 30 -54 l 1,3,-1
 569 -54 l 1,0,-1
EndSplineSet
Validated: 1
EndChar

StartChar: grave
Encoding: 96 96 68
Width: 206
GlyphClass: 2
Flags: W
HStem: 15 73
VStem: 30 118
LayerCount: 2
Fore
SplineSet
30 88 m 1,0,-1
 75 88 l 1,1,-1
 148 15 l 1,2,-1
 103 15 l 1,3,-1
 30 88 l 1,0,-1
EndSplineSet
Validated: 1
EndChar

StartChar: a
Encoding: 97 97 69
Width: 454
GlyphClass: 2
Flags: W
HStem: 10 63<158.6 295.174> 361 63<158.802 295.447>
VStem: 30 63<139.86 294.14> 361 63<10 68 140.369 293.236 366 424>
LayerCount: 2
Fore
SplineSet
361 387 m 1,0,-1
 361 424 l 1,1,-1
 424 424 l 1,2,-1
 424 10 l 1,3,-1
 361 10 l 1,4,-1
 361 47 l 1,5,-1
 361 68 l 1,6,-1
 345 55 l 2,7,8
 317 32 317 32 287 21 c 0,9,10
 259 10 259 10 227 10 c 0,11,12
 151 10 151 10 90.5 70.5 c 128,-1,13
 30 131 30 131 30 217 c 128,-1,14
 30 303 30 303 90.5 363.5 c 128,-1,15
 151 424 151 424 227 424 c 0,16,17
 290 424 290 424 345 379 c 2,18,-1
 361 366 l 1,19,-1
 361 387 l 1,0,-1
135 115 m 0,20,21
 174 73 174 73 227 73 c 0,22,23
 244 73 244 73 260 78 c 128,-1,24
 276 83 276 83 291 92 c 0,25,26
 323 111 323 111 342 144.5 c 128,-1,27
 361 178 361 178 361 217 c 0,28,29
 361 232 361 232 358.5 245.5 c 128,-1,30
 356 259 356 259 350.5 272 c 128,-1,31
 345 285 345 285 337 296.5 c 128,-1,32
 329 308 329 308 319 319 c 0,33,34
 299 340 299 340 276 350.5 c 128,-1,35
 253 361 253 361 227 361 c 0,36,37
 175 361 175 361 135 319 c 0,38,39
 93 277 93 277 93 217 c 128,-1,40
 93 157 93 157 135 115 c 0,20,21
EndSplineSet
Validated: 1
Substitution2: "'aalt' +MFkweTBmMG51cE9TW1cweDBuMKIwrzC7MLkA in +MOkwxjDzZYdbVwAA lookup 1 +MLUw1jDGMPww1jDr" a.alt1
EndChar

StartChar: b
Encoding: 98 98 70
Width: 454
GlyphClass: 2
Flags: W
HStem: 20 53<158.351 294.947> 361 73<158.307 295.272> 559 20G<30 93>
VStem: 30 63<20 78 140.049 293.951 376 579> 361 63<140.709 293.236>
LayerCount: 2
Fore
SplineSet
109 389 m 2,0,1
 163 434 163 434 227 434 c 0,2,3
 265 434 265 434 297 419 c 0,4,5
 333 404 333 404 363 373 c 0,6,7
 383 353 383 353 397 330 c 128,-1,8
 411 307 411 307 417.5 281.5 c 128,-1,9
 424 256 424 256 424 227 c 0,10,11
 424 184 424 184 409 147.5 c 128,-1,12
 394 111 394 111 363.5 80.5 c 128,-1,13
 333 50 333 50 297 35 c 0,14,15
 265 20 265 20 227 20 c 0,16,17
 164 20 164 20 109 65 c 2,18,-1
 93 78 l 1,19,-1
 93 57 l 1,20,-1
 93 20 l 1,21,-1
 30 20 l 1,22,-1
 30 579 l 1,23,-1
 93 579 l 1,24,-1
 93 397 l 1,25,-1
 93 376 l 1,26,-1
 109 389 l 2,0,1
135 115 m 0,27,28
 174 73 174 73 227 73 c 0,29,30
 253 73 253 73 275.5 83.5 c 128,-1,31
 298 94 298 94 319 115 c 128,-1,32
 340 136 340 136 350.5 162 c 128,-1,33
 361 188 361 188 361 217 c 0,34,35
 361 232 361 232 358.5 245.5 c 128,-1,36
 356 259 356 259 350.5 272 c 128,-1,37
 345 285 345 285 337 296.5 c 128,-1,38
 329 308 329 308 319 319 c 0,39,40
 299 340 299 340 276 350.5 c 128,-1,41
 253 361 253 361 227 361 c 0,42,43
 175 361 175 361 135 319 c 0,44,45
 93 277 93 277 93 217 c 128,-1,46
 93 157 93 157 135 115 c 0,27,28
EndSplineSet
Validated: 1
EndChar

StartChar: c
Encoding: 99 99 71
Width: 391
GlyphClass: 2
Flags: W
HStem: 10 63<157.167 293.367> 361 63<157.369 293.441>
VStem: 30 63<140.234 294.148>
LayerCount: 2
Fore
SplineSet
135 115 m 0,0,1
 172 73 172 73 221 73 c 0,2,3
 227 73 227 73 233 74 c 0,4,5
 240 75 240 75 247 76 c 128,-1,6
 254 77 254 77 261 79.5 c 128,-1,7
 268 82 268 82 274.5 85 c 128,-1,8
 281 88 281 88 287.5 91.5 c 128,-1,9
 294 95 294 95 300 99 c 128,-1,10
 306 103 306 103 312 108 c 1,11,-1
 356 64 l 1,12,13
 298 10 298 10 221 10 c 0,14,15
 151 10 151 10 91 71 c 0,16,17
 30 132 30 132 30 217.5 c 128,-1,18
 30 303 30 303 91 363 c 0,19,20
 151 424 151 424 221 424 c 0,21,22
 298 424 298 424 356 370 c 1,23,-1
 312 326 l 1,24,25
 271 361 271 361 221 361 c 0,26,27
 173 361 173 361 135 319 c 0,28,29
 93 277 93 277 93 217 c 128,-1,30
 93 157 93 157 135 115 c 0,0,1
EndSplineSet
Validated: 1
EndChar

StartChar: d
Encoding: 100 100 72
Width: 454
GlyphClass: 2
Flags: W
HStem: 20 53<158.6 294.685> 361 73<158.802 294.116> 559 20G<361 424>
VStem: 30 63<140.306 293.309> 361 63<20 78 140.207 292.873 376 579>
LayerCount: 2
Fore
SplineSet
361 397 m 1,0,-1
 361 579 l 1,1,-1
 424 579 l 1,2,-1
 424 20 l 1,3,-1
 361 20 l 1,4,-1
 361 57 l 1,5,-1
 361 78 l 1,6,-1
 345 65 l 2,7,8
 317 42 317 42 287 31 c 0,9,10
 259 20 259 20 227 20 c 0,11,12
 151 20 151 20 90.5 80.5 c 128,-1,13
 30 141 30 141 30 227 c 128,-1,14
 30 313 30 313 90.5 373.5 c 128,-1,15
 151 434 151 434 227 434 c 0,16,17
 290 434 290 434 345 389 c 2,18,-1
 361 376 l 1,19,-1
 361 397 l 1,0,-1
135 115 m 0,20,21
 174 73 174 73 227 73 c 0,22,23
 253 73 253 73 275.5 83.5 c 128,-1,24
 298 94 298 94 319 115 c 128,-1,25
 340 136 340 136 350.5 162 c 128,-1,26
 361 188 361 188 361 217 c 128,-1,27
 361 246 361 246 349.5 273 c 128,-1,28
 338 300 338 300 319 319 c 0,29,30
 313 325 313 325 305 331 c 0,31,32
 298 337 298 337 291 341.5 c 128,-1,33
 284 346 284 346 276 350 c 0,34,35
 264 356 264 356 252 358.5 c 128,-1,36
 240 361 240 361 227 361 c 0,37,38
 175 361 175 361 135 319 c 0,39,40
 93 277 93 277 93 217 c 128,-1,41
 93 157 93 157 135 115 c 0,20,21
EndSplineSet
Validated: 1
EndChar

StartChar: e
Encoding: 101 101 73
Width: 454
GlyphClass: 2
Flags: W
HStem: 10 63<159.135 298.647> 183 62<97 358> 361 63<159.448 295.348>
LayerCount: 2
Fore
SplineSet
424 217 m 0,0,1
 424 200 424 200 421 183 c 1,2,-1
 111 183 l 1,3,-1
 97 183 l 1,4,-1
 102 170 l 2,5,6
 112 142 112 142 131 120 c 0,7,8
 141 109 141 109 153 100 c 0,9,10
 163 91 163 91 175 85 c 128,-1,11
 187 79 187 79 200 76 c 128,-1,12
 213 73 213 73 227 73 c 0,13,14
 259 73 259 73 287 90 c 1,15,-1
 331 44 l 1,16,17
 283 10 283 10 227 10 c 0,18,19
 151 10 151 10 90.5 70.5 c 128,-1,20
 30 131 30 131 30 217 c 128,-1,21
 30 303 30 303 90.5 363.5 c 128,-1,22
 151 424 151 424 227 424 c 0,23,24
 265 424 265 424 297 409 c 0,25,26
 333 394 333 394 363 363 c 0,27,28
 383 343 383 343 397 320 c 128,-1,29
 411 297 411 297 417.5 271.5 c 128,-1,30
 424 246 424 246 424 217 c 0,0,1
96 245 m 1,31,-1
 109 245 l 1,32,-1
 345 245 l 1,33,-1
 358 245 l 1,34,-1
 355 258 l 2,35,36
 352 269 352 269 346.5 279.5 c 128,-1,37
 341 290 341 290 335 299 c 0,38,39
 322 318 322 318 304 332 c 0,40,41
 301 334 301 334 298.5 336.5 c 128,-1,42
 296 339 296 339 293 341 c 128,-1,43
 290 343 290 343 287 344.5 c 128,-1,44
 284 346 284 346 281 347.5 c 128,-1,45
 278 349 278 349 274.5 350.5 c 128,-1,46
 271 352 271 352 268 353 c 0,47,48
 248 361 248 361 227 361 c 0,49,50
 184 361 184 361 150 332 c 0,51,52
 142 326 142 326 136 319.5 c 128,-1,53
 130 313 130 313 124 306 c 128,-1,54
 118 299 118 299 113.5 291.5 c 128,-1,55
 109 284 109 284 105.5 275.5 c 128,-1,56
 102 267 102 267 99 258 c 2,57,-1
 96 245 l 1,31,-1
EndSplineSet
Validated: 1
Substitution2: "'aalt' +MFkweTBmMG51cE9TW1cweDBuMKIwrzC7MLkA in +MOkwxjDzZYdbVwAA lookup 1 +MLUw1jDGMPww1jDr" e.alt1
EndChar

StartChar: f
Encoding: 102 102 74
Width: 269
GlyphClass: 2
Flags: W
HStem: 20 21G<102 163> 413 62<30 102 163 279> 660 63<184.956 282.844>
VStem: 102 61<20 413 475 599>
LayerCount: 2
Fore
SplineSet
169.5 613 m 128,-1,1
 167 606 167 606 165 599 c 1,2,-1
 163 599 l 1,3,-1
 163 589 l 1,4,-1
 163 579 l 1,5,-1
 163 578 l 1,6,-1
 163 485 l 1,7,-1
 163 475 l 1,8,-1
 171 475 l 1,9,-1
 279 475 l 1,10,-1
 279 413 l 1,11,-1
 171 413 l 1,12,-1
 163 413 l 1,13,-1
 163 403 l 1,14,-1
 163 20 l 1,15,-1
 102 20 l 1,16,-1
 102 403 l 1,17,-1
 102 413 l 1,18,-1
 92 413 l 1,19,-1
 30 413 l 1,20,-1
 30 475 l 1,21,-1
 92 475 l 1,22,-1
 102 475 l 1,23,-1
 102 485 l 2,24,25
 102 501 102 501 102 533 c 128,-1,26
 102 565 102 565 102 579 c 0,27,28
 102 581 102 581 102.5 584 c 128,-1,29
 103 587 103 587 103 588 c 0,30,31
 107 644 107 644 148 684 c 0,32,33
 183 723 183 723 231 723 c 0,34,35
 237 723 237 723 243.5 722.5 c 128,-1,36
 250 722 250 722 257 720 c 0,37,38
 264 719 264 719 271 716.5 c 128,-1,39
 278 714 278 714 284.5 711.5 c 128,-1,40
 291 709 291 709 298 705 c 0,41,42
 314 696 314 696 327 684 c 128,-1,43
 340 672 340 672 350 657 c 0,44,45
 367 631 367 631 371 599 c 1,46,-1
 307 599 l 1,47,48
 301 623 301 623 281 640 c 0,49,50
 269 650 269 650 256 655 c 0,51,52
 244 660 244 660 231 660 c 0,53,54
 215 660 215 660 200 651 c 0,55,56
 193 646 193 646 186.5 640 c 128,-1,57
 180 634 180 634 176 626 c 0,58,0
 172 620 172 620 169.5 613 c 128,-1,1
EndSplineSet
Validated: 1
EndChar

StartChar: g
Encoding: 103 103 75
Width: 454
GlyphClass: 2
Flags: W
HStem: -289 63<158.635 295.575> 0 73<158.6 294.659> 361 53<158.802 295.272>
VStem: 30 63<-158.688 -92 140.691 293.694> 361 63<-158.951 58 140.207 293.146>
LayerCount: 2
Fore
SplineSet
135 115 m 0,0,1
 174 73 174 73 227 73 c 0,2,3
 253 73 253 73 275.5 83.5 c 128,-1,4
 298 94 298 94 319 115 c 128,-1,5
 340 136 340 136 350.5 162 c 128,-1,6
 361 188 361 188 361 217 c 0,7,8
 361 232 361 232 358.5 245.5 c 128,-1,9
 356 259 356 259 350.5 272 c 128,-1,10
 345 285 345 285 337 296.5 c 128,-1,11
 329 308 329 308 319 319 c 0,12,13
 299 340 299 340 276 350.5 c 128,-1,14
 253 361 253 361 227 361 c 0,15,16
 175 361 175 361 135 319 c 0,17,18
 93 277 93 277 93 217 c 128,-1,19
 93 157 93 157 135 115 c 0,0,1
90.5 353.5 m 128,-1,21
 151 414 151 414 227 414 c 0,22,23
 265 414 265 414 297 399 c 0,24,25
 333 384 333 384 363 353 c 0,26,27
 383 333 383 333 397 310 c 128,-1,28
 411 287 411 287 417.5 261.5 c 128,-1,29
 424 236 424 236 424 207 c 2,30,-1
 424 -82 l 2,31,32
 424 -104 424 -104 420 -123.5 c 128,-1,33
 416 -143 416 -143 408.5 -161.5 c 128,-1,34
 401 -180 401 -180 390 -196.5 c 128,-1,35
 379 -213 379 -213 363 -228 c 0,36,37
 343 -248 343 -248 320 -262 c 0,38,39
 298 -275 298 -275 275 -282 c 128,-1,40
 252 -289 252 -289 227 -289 c 0,41,42
 151 -289 151 -289 91 -228 c 0,43,44
 62 -199 62 -199 47 -165.5 c 128,-1,45
 32 -132 32 -132 30 -92 c 1,46,-1
 93 -92 l 1,47,48
 97 -146 97 -146 135 -184 c 0,49,50
 174 -226 174 -226 226.5 -226 c 128,-1,51
 279 -226 279 -226 319 -184 c 0,52,53
 361 -142 361 -142 361 -82 c 2,54,-1
 361 37 l 1,55,-1
 361 58 l 1,56,-1
 345 45 l 2,57,58
 316 22 316 22 286 11 c 0,59,60
 258 0 258 0 227 0 c 0,61,62
 151 0 151 0 90.5 60.5 c 128,-1,63
 30 121 30 121 30 207 c 128,-1,20
 30 293 30 293 90.5 353.5 c 128,-1,21
EndSplineSet
Validated: 1
EndChar

StartChar: h
Encoding: 104 104 76
Width: 455
GlyphClass: 2
Flags: W
HStem: 20 21G<30 93 361 424> 371 63<158.307 295.272> 559 20G<30 93>
VStem: 30 63<20 303.951 376 579> 361 63<20 303.236>
LayerCount: 2
Fore
SplineSet
109 389 m 2,0,1
 163 434 163 434 227 434 c 0,2,3
 265 434 265 434 297 419 c 0,4,5
 333 404 333 404 363 373 c 0,6,7
 383 353 383 353 397 330 c 128,-1,8
 411 307 411 307 417.5 281.5 c 128,-1,9
 424 256 424 256 424 227 c 2,10,-1
 424 20 l 1,11,-1
 361 20 l 1,12,-1
 361 227 l 2,13,14
 361 242 361 242 358.5 255.5 c 128,-1,15
 356 269 356 269 350.5 282 c 128,-1,16
 345 295 345 295 337 306.5 c 128,-1,17
 329 318 329 318 319 329 c 0,18,19
 299 350 299 350 276 360.5 c 128,-1,20
 253 371 253 371 227 371 c 0,21,22
 175 371 175 371 135 329 c 0,23,24
 93 287 93 287 93 227 c 2,25,-1
 93 20 l 1,26,-1
 30 20 l 1,27,-1
 30 579 l 1,28,-1
 93 579 l 1,29,-1
 93 397 l 1,30,-1
 93 376 l 1,31,-1
 109 389 l 2,0,1
EndSplineSet
Validated: 1
EndChar

StartChar: i
Encoding: 105 105 77
Width: 123
GlyphClass: 2
Flags: W
HStem: 404 20G<30 93> 516 63<39.2822 83.7178>
VStem: 30 63<10 424 525.282 569.202>
LayerCount: 2
Fore
SplineSet
93 424 m 1,0,-1
 93 10 l 1,1,-1
 30 10 l 1,2,-1
 30 424 l 1,3,-1
 93 424 l 1,0,-1
77 520 m 0,4,5
 70 516 70 516 61 516 c 0,6,7
 48 516 48 516 39 525 c 128,-1,8
 30 534 30 534 30 547 c 0,9,10
 30 554 30 554 32 559.5 c 128,-1,11
 34 565 34 565 39 569.5 c 128,-1,12
 44 574 44 574 50 576 c 0,13,14
 56 578 56 578 62 579 c 0,15,16
 75 579 75 579 84 569.5 c 128,-1,17
 93 560 93 560 93 547 c 0,18,19
 93 539 93 539 89 532 c 0,20,21
 88 530 88 530 86 527.5 c 128,-1,22
 84 525 84 525 81.5 523 c 128,-1,23
 79 521 79 521 77 520 c 0,4,5
EndSplineSet
Validated: 1
EndChar

StartChar: j
Encoding: 106 106 78
Width: 196
GlyphClass: 2
Flags: W
HStem: 394 20G<102 165> 516 63<111.798 155.718>
VStem: 102 63<38.4766 414 525.282 576.655>
LayerCount: 2
Fore
SplineSet
30 -27 m 1,0,1
 102 38 102 38 102 135 c 2,2,-1
 102 414 l 1,3,-1
 165 414 l 1,4,-1
 165 135 l 2,5,6
 165 55 165 55 124 -11 c 0,7,8
 88 -70 88 -70 30 -105 c 1,9,-1
 30 -27 l 1,0,1
156 525 m 128,-1,11
 147 516 147 516 134 516 c 128,-1,12
 121 516 121 516 111.5 525 c 128,-1,13
 102 534 102 534 102 547 c 0,14,15
 102 550 102 550 102.5 553.5 c 128,-1,16
 103 557 103 557 105 559 c 0,17,18
 106 562 106 562 107.5 564.5 c 128,-1,19
 109 567 109 567 112 569 c 0,20,21
 116 573 116 573 122 576 c 0,22,23
 125 577 125 577 128 578 c 128,-1,24
 131 579 131 579 134 579 c 0,25,26
 138 579 138 579 142 578 c 128,-1,27
 146 577 146 577 149 575 c 0,28,29
 156 571 156 571 160.5 563 c 128,-1,30
 165 555 165 555 165 547 c 0,31,10
 165 534 165 534 156 525 c 128,-1,11
EndSplineSet
Validated: 1
Substitution2: "'aalt' +MFkweTBmMG51cE9TW1cweDBuMKIwrzC7MLkA in +MOkwxjDzZYdbVwAA lookup 1 +MLUw1jDGMPww1jDr" j.alt1
EndChar

StartChar: k
Encoding: 107 107 79
Width: 393
GlyphClass: 2
Flags: W
HStem: 20 21G<30 93 226.398 344> 558 20G<30 93>
VStem: 30 63<20 157 296 578>
LayerCount: 2
Fore
SplineSet
250 433 m 1,0,-1
 345 433 l 1,1,-1
 117 234 l 1,2,-1
 109 226 l 1,3,-1
 117 218 l 1,4,-1
 344 20 l 1,5,-1
 249 20 l 1,6,-1
 110 143 l 1,7,-1
 93 157 l 1,8,-1
 93 135 l 1,9,-1
 93 20 l 1,10,-1
 30 20 l 1,11,-1
 30 578 l 1,12,-1
 93 578 l 1,13,-1
 93 318 l 1,14,-1
 93 296 l 1,15,-1
 110 310 l 1,16,-1
 250 433 l 1,0,-1
EndSplineSet
Validated: 1
EndChar

StartChar: l
Encoding: 108 108 80
Width: 123
GlyphClass: 2
Flags: W
HStem: 20 21G<30 93> 559 20G<30 93>
VStem: 30 63<20 579>
LayerCount: 2
Fore
SplineSet
93 579 m 1,0,-1
 93 20 l 1,1,-1
 30 20 l 1,2,-1
 30 579 l 1,3,-1
 93 579 l 1,0,-1
EndSplineSet
Validated: 1
Substitution2: "'aalt' +MFkweTBmMG51cE9TW1cweDBuMKIwrzC7MLkA in +MOkwxjDzZYdbVwAA lookup 1 +MLUw1jDGMPww1jDr" l.alt1
EndChar

StartChar: m
Encoding: 109 109 81
Width: 806
GlyphClass: 2
Flags: W
HStem: 361 63<161.131 307.076 498.093 645.261>
VStem: 30 63<10 293.951> 372 61<10 294.499> 712 63<10 291.795>
CounterMasks: 1 70
LayerCount: 2
Fore
SplineSet
747 321 m 0,0,1
 775 273 775 273 775 217 c 2,2,-1
 775 10 l 1,3,-1
 712 10 l 1,4,-1
 712 217 l 2,5,6
 712 256 712 256 692.5 289 c 128,-1,7
 673 322 673 322 641 342 c 0,8,9
 609 361 609 361 571.5 361 c 128,-1,10
 534 361 534 361 502 341.5 c 128,-1,11
 470 322 470 322 451.5 289.5 c 128,-1,12
 433 257 433 257 433 218 c 2,13,-1
 433 217 l 1,14,-1
 433 10 l 1,15,-1
 372 10 l 1,16,-1
 372 217 l 1,17,-1
 372 218 l 2,18,19
 372 238 372 238 367.5 255.5 c 128,-1,20
 363 273 363 273 354 289 c 128,-1,21
 345 305 345 305 331 319 c 0,22,23
 311 340 311 340 286.5 350.5 c 128,-1,24
 262 361 262 361 234 361 c 0,25,26
 177 361 177 361 135 319 c 128,-1,27
 93 277 93 277 93 217 c 2,28,-1
 93 10 l 1,29,-1
 30 10 l 1,30,-1
 30 217 l 2,31,32
 30 303 30 303 90.5 363.5 c 128,-1,33
 151 424 151 424 234 424 c 0,34,35
 237 424 237 424 239.5 424 c 128,-1,36
 242 424 242 424 244.5 424 c 128,-1,37
 247 424 247 424 250 423.5 c 128,-1,38
 253 423 253 423 255.5 422.5 c 128,-1,39
 258 422 258 422 261 422 c 128,-1,40
 264 422 264 422 267 421.5 c 128,-1,41
 270 421 270 421 272 420 c 0,42,43
 291 416 291 416 308 409 c 0,44,45
 325 401 325 401 341 390.5 c 128,-1,46
 357 380 357 380 371 367 c 0,47,48
 378 361 378 361 383.5 354 c 128,-1,49
 389 347 389 347 394 339 c 2,50,-1
 401 326 l 1,51,-1
 410 338 l 2,52,53
 424 358 424 358 441.5 374 c 128,-1,54
 459 390 459 390 480.5 401.5 c 128,-1,55
 502 413 502 413 524.5 418.5 c 128,-1,56
 547 424 547 424 571 424 c 0,57,58
 582 424 582 424 592.5 423 c 128,-1,59
 603 422 603 422 613.5 419.5 c 128,-1,60
 624 417 624 417 633.5 414 c 128,-1,61
 643 411 643 411 653 406 c 0,62,63
 663 402 663 402 672 396 c 0,64,65
 696 382 696 382 714.5 363.5 c 128,-1,66
 733 345 733 345 747 321 c 0,0,1
EndSplineSet
Validated: 1
EndChar

StartChar: n
Encoding: 110 110 82
Width: 455
GlyphClass: 2
Flags: W
HStem: 361 63<158.802 295.759>
VStem: 30 63<10 293.951> 361 63<10 293.236>
LayerCount: 2
Fore
SplineSet
417 271 m 128,-1,1
 424 245 424 245 424 217 c 2,2,-1
 424 10 l 1,3,-1
 361 10 l 1,4,-1
 361 217 l 2,5,6
 361 232 361 232 358.5 245.5 c 128,-1,7
 356 259 356 259 350.5 272 c 128,-1,8
 345 285 345 285 337 296.5 c 128,-1,9
 329 308 329 308 319 319 c 0,10,11
 299 340 299 340 276 350.5 c 128,-1,12
 253 361 253 361 227 361 c 0,13,14
 175 361 175 361 135 319 c 0,15,16
 93 277 93 277 93 217 c 2,17,-1
 93 10 l 1,18,-1
 30 10 l 1,19,-1
 30 217 l 2,20,21
 30 303 30 303 90.5 363.5 c 128,-1,22
 151 424 151 424 227 424 c 0,23,24
 240 424 240 424 251.5 422.5 c 128,-1,25
 263 421 263 421 274.5 417.5 c 128,-1,26
 286 414 286 414 297 408 c 0,27,28
 309 403 309 403 321 396 c 0,29,30
 369 368 369 368 396 321 c 0,31,0
 410 297 410 297 417 271 c 128,-1,1
EndSplineSet
Validated: 1
EndChar

StartChar: o
Encoding: 111 111 83
Width: 454
GlyphClass: 2
Flags: W
HStem: 10 63<158.6 294.947> 361 63<158.802 295.272>
VStem: 30 63<139.86 294.14> 361 63<140.207 293.236>
LayerCount: 2
Fore
SplineSet
90.5 363.5 m 128,-1,1
 151 424 151 424 227 424 c 0,2,3
 265 424 265 424 297 409 c 0,4,5
 333 394 333 394 363 363 c 0,6,7
 383 343 383 343 397 320 c 128,-1,8
 411 297 411 297 417.5 271.5 c 128,-1,9
 424 246 424 246 424 217 c 0,10,11
 424 174 424 174 409 137.5 c 128,-1,12
 394 101 394 101 363.5 70.5 c 128,-1,13
 333 40 333 40 297 25 c 0,14,15
 265 10 265 10 227 10 c 0,16,17
 151 10 151 10 90.5 70.5 c 128,-1,18
 30 131 30 131 30 217 c 128,-1,0
 30 303 30 303 90.5 363.5 c 128,-1,1
135 115 m 0,19,20
 174 73 174 73 227 73 c 0,21,22
 253 73 253 73 275.5 83.5 c 128,-1,23
 298 94 298 94 319 115 c 128,-1,24
 340 136 340 136 350.5 162 c 128,-1,25
 361 188 361 188 361 217 c 0,26,27
 361 232 361 232 358.5 245.5 c 128,-1,28
 356 259 356 259 350.5 272 c 128,-1,29
 345 285 345 285 337 296.5 c 128,-1,30
 329 308 329 308 319 319 c 0,31,32
 299 340 299 340 276 350.5 c 128,-1,33
 253 361 253 361 227 361 c 0,34,35
 175 361 175 361 135 319 c 0,36,37
 93 277 93 277 93 217 c 128,-1,38
 93 157 93 157 135 115 c 0,19,20
EndSplineSet
Validated: 1
EndChar

StartChar: p
Encoding: 112 112 84
Width: 454
GlyphClass: 2
Flags: W
HStem: -289 21G<30 93> 0 73<158.351 294.947> 361 53<159.156 294.588>
VStem: 30 63<-289 58 140.049 293.436> 361 63<140.223 292.796>
LayerCount: 2
Fore
SplineSet
90.5 353.5 m 128,-1,1
 151 414 151 414 227 414 c 0,2,3
 240 414 240 414 251.5 412.5 c 128,-1,4
 263 411 263 411 274.5 407.5 c 128,-1,5
 286 404 286 404 297 398 c 0,6,7
 309 393 309 393 321 386 c 0,8,9
 369 358 369 358 396 311 c 0,10,11
 410 287 410 287 417 261 c 128,-1,12
 424 235 424 235 424 207 c 0,13,14
 424 164 424 164 409 127.5 c 128,-1,15
 394 91 394 91 363.5 60.5 c 128,-1,16
 333 30 333 30 297 15 c 0,17,18
 265 0 265 0 227 0 c 0,19,20
 164 0 164 0 109 45 c 2,21,-1
 93 58 l 1,22,-1
 93 37 l 1,23,-1
 93 -289 l 1,24,-1
 30 -289 l 1,25,-1
 30 207 l 2,26,0
 30 293 30 293 90.5 353.5 c 128,-1,1
135 115 m 0,27,28
 174 73 174 73 227 73 c 0,29,30
 253 73 253 73 275.5 83.5 c 128,-1,31
 298 94 298 94 319 115 c 128,-1,32
 340 136 340 136 350.5 162 c 128,-1,33
 361 188 361 188 361 217 c 128,-1,34
 361 246 361 246 349.5 273 c 128,-1,35
 338 300 338 300 319 319 c 0,36,37
 313 325 313 325 305 331 c 0,38,39
 298 337 298 337 291 341.5 c 128,-1,40
 284 346 284 346 276 350 c 0,41,42
 264 356 264 356 252 358.5 c 128,-1,43
 240 361 240 361 227 361 c 0,44,45
 175 361 175 361 135 319 c 0,46,47
 93 277 93 277 93 217 c 128,-1,48
 93 157 93 157 135 115 c 0,27,28
EndSplineSet
Validated: 1
EndChar

StartChar: q
Encoding: 113 113 85
Width: 454
GlyphClass: 2
Flags: W
HStem: -289 21G<361 424> 0 73<158.988 294.685> 361 53<158.802 295.272>
VStem: 30 63<140.816 293.694> 361 63<-289 58 140.207 293.146>
LayerCount: 2
Fore
SplineSet
90.5 353.5 m 128,-1,1
 151 414 151 414 227 414 c 0,2,3
 265 414 265 414 297 399 c 0,4,5
 333 384 333 384 363 353 c 0,6,7
 383 333 383 333 397 310 c 128,-1,8
 411 287 411 287 417.5 261.5 c 128,-1,9
 424 236 424 236 424 207 c 2,10,-1
 424 -289 l 1,11,-1
 361 -289 l 1,12,-1
 361 37 l 1,13,-1
 361 58 l 1,14,-1
 345 45 l 2,15,16
 317 22 317 22 287 11 c 0,17,18
 259 0 259 0 227 0 c 0,19,20
 151 0 151 0 90.5 60.5 c 128,-1,21
 30 121 30 121 30 207 c 128,-1,0
 30 293 30 293 90.5 353.5 c 128,-1,1
163 92 m 0,22,23
 192 73 192 73 227 73 c 0,24,25
 253 73 253 73 275.5 83.5 c 128,-1,26
 298 94 298 94 319 115 c 128,-1,27
 340 136 340 136 350.5 162 c 128,-1,28
 361 188 361 188 361 217 c 0,29,30
 361 232 361 232 358.5 245.5 c 128,-1,31
 356 259 356 259 350.5 272 c 128,-1,32
 345 285 345 285 337 296.5 c 128,-1,33
 329 308 329 308 319 319 c 0,34,35
 299 340 299 340 276 350.5 c 128,-1,36
 253 361 253 361 227 361 c 0,37,38
 175 361 175 361 135 319 c 0,39,40
 93 277 93 277 93 217 c 0,41,42
 93 209 93 209 94 201.5 c 128,-1,43
 95 194 95 194 96.5 187 c 128,-1,44
 98 180 98 180 100 172.5 c 128,-1,45
 102 165 102 165 105 158.5 c 128,-1,46
 108 152 108 152 112 145 c 0,47,48
 122 128 122 128 135 115 c 128,-1,49
 148 102 148 102 163 92 c 0,22,23
EndSplineSet
Validated: 1
EndChar

StartChar: r
Encoding: 114 114 86
Width: 185
GlyphClass: 2
Flags: W
HStem: 399 20G<139 155>
VStem: 30 63<10 318.792>
LayerCount: 2
Fore
SplineSet
30 10 m 1,0,-1
 30 255 l 2,1,2
 30 296 30 296 48 331 c 0,3,4
 57 349 57 349 69 364 c 128,-1,5
 81 379 81 379 97 391 c 0,6,7
 123 411 123 411 155 419 c 1,8,-1
 155 353 l 1,9,10
 146 349 146 349 138.5 343.5 c 128,-1,11
 131 338 131 338 125 331.5 c 128,-1,12
 119 325 119 325 113 317 c 0,13,14
 94 291 94 291 93 259 c 2,15,-1
 93 258 l 1,16,-1
 93 257 l 1,17,-1
 93 255 l 1,18,-1
 93 253 l 1,19,-1
 93 252 l 1,20,-1
 93 103 l 1,21,-1
 93 10 l 1,22,-1
 30 10 l 1,0,-1
EndSplineSet
Validated: 1
EndChar

StartChar: s
Encoding: 115 115 87
Width: 299
GlyphClass: 2
Flags: W
HStem: 10 63<107.225 193.219> 186 62<104.976 188.983> 361 63<107.417 194.62>
VStem: 30 63<89.4072 119 258.924 346.583> 206 63<85.2351 171.171 315.125 350.027>
CounterMasks: 1 e0
LayerCount: 2
Fore
SplineSet
149 248 m 2,0,-1
 159 248 l 1,1,2
 203 245 203 245 234 214 c 0,3,4
 269 180 269 180 269 130 c 0,5,6
 269 105 269 105 260.5 84 c 128,-1,7
 252 63 252 63 234 45 c 0,8,9
 199 10 199 10 149.5 10 c 128,-1,10
 100 10 100 10 65 45 c 0,11,12
 34 76 34 76 30 119 c 1,13,-1
 94 119 l 1,14,15
 97 102 97 102 109 89 c 0,16,17
 125 73 125 73 149 73 c 0,18,19
 165 73 165 73 177.5 80.5 c 128,-1,20
 190 88 190 88 198 101 c 128,-1,21
 206 114 206 114 206 129 c 0,22,23
 206 153 206 153 189.5 169.5 c 128,-1,24
 173 186 173 186 149 186 c 2,25,-1
 139 186 l 2,26,27
 112 188 112 188 90 201 c 0,28,29
 76 209 76 209 65 220 c 128,-1,30
 54 231 54 231 46 245 c 0,31,32
 30 272 30 272 30 305 c 0,33,34
 30 354 30 354 65 389 c 128,-1,35
 100 424 100 424 149 424 c 0,36,37
 174 424 174 424 196 414 c 0,38,39
 207 409 207 409 216.5 403 c 128,-1,40
 226 397 226 397 234 389 c 0,41,42
 250 373 250 373 259 351 c 0,43,44
 261 347 261 347 262.5 342 c 128,-1,45
 264 337 264 337 265.5 332.5 c 128,-1,46
 267 328 267 328 267.5 323.5 c 128,-1,47
 268 319 268 319 269 315 c 1,48,-1
 205 315 l 1,49,50
 203 324 203 324 199.5 331 c 128,-1,51
 196 338 196 338 190 345 c 0,52,53
 182 353 182 353 172 357 c 0,54,55
 162 361 162 361 150 361 c 0,56,57
 126 361 126 361 109.5 344.5 c 128,-1,58
 93 328 93 328 93 304 c 0,59,60
 93 296 93 296 95 289.5 c 128,-1,61
 97 283 97 283 100.5 276.5 c 128,-1,62
 104 270 104 270 109 264 c 0,63,64
 117 256 117 256 127.5 252 c 128,-1,65
 138 248 138 248 149 248 c 2,0,-1
EndSplineSet
Validated: 1
EndChar

StartChar: t
Encoding: 116 116 88
Width: 330
GlyphClass: 2
Flags: W
HStem: 20 21G<132 196> 371 63<30 132 196 299> 559 20G<133 196>
VStem: 132 64<20 371 434 579>
LayerCount: 2
Fore
SplineSet
196 20 m 1,0,-1
 132 20 l 1,1,-1
 132 361 l 1,2,-1
 132 371 l 1,3,-1
 122 371 l 1,4,-1
 30 371 l 1,5,-1
 30 434 l 1,6,-1
 123 434 l 1,7,-1
 133 434 l 1,8,-1
 133 444 l 1,9,-1
 133 579 l 1,10,-1
 196 579 l 1,11,-1
 196 444 l 1,12,-1
 196 434 l 1,13,-1
 206 434 l 1,14,-1
 299 434 l 1,15,-1
 299 371 l 1,16,-1
 206 371 l 1,17,-1
 196 371 l 1,18,-1
 196 361 l 1,19,-1
 196 20 l 1,0,-1
EndSplineSet
Validated: 1
Substitution2: "'aalt' +MFkweTBmMG51cE9TW1cweDBuMKIwrzC7MLkA in +MOkwxjDzZYdbVwAA lookup 1 +MLUw1jDGMPww1jDr" t.alt1
EndChar

StartChar: u
Encoding: 117 117 89
Width: 454
GlyphClass: 2
Flags: W
HStem: 10 63<158.988 294.947> 404 20G<30 93 361 424>
VStem: 30 63<141.978 424> 361 63<140.207 424>
LayerCount: 2
Fore
SplineSet
361 217 m 2,0,-1
 361 424 l 1,1,-1
 424 424 l 1,2,-1
 424 217 l 2,3,4
 424 174 424 174 409 137.5 c 128,-1,5
 394 101 394 101 363.5 70.5 c 128,-1,6
 333 40 333 40 297 25 c 0,7,8
 265 10 265 10 227 10 c 0,9,10
 151 10 151 10 90.5 70.5 c 128,-1,11
 30 131 30 131 30 217 c 2,12,-1
 30 424 l 1,13,-1
 93 424 l 1,14,-1
 93 217 l 2,15,16
 93 209 93 209 94 201.5 c 128,-1,17
 95 194 95 194 96.5 187 c 128,-1,18
 98 180 98 180 100 172.5 c 128,-1,19
 102 165 102 165 105 158.5 c 128,-1,20
 108 152 108 152 112 145 c 0,21,22
 122 128 122 128 135 115 c 128,-1,23
 148 102 148 102 163 92 c 0,24,25
 192 73 192 73 227 73 c 0,26,27
 253 73 253 73 275.5 83.5 c 128,-1,28
 298 94 298 94 319 115 c 128,-1,29
 340 136 340 136 350.5 162 c 128,-1,30
 361 188 361 188 361 217 c 2,0,-1
EndSplineSet
Validated: 1
EndChar

StartChar: v
Encoding: 118 118 90
Width: 411
GlyphClass: 2
Flags: W
HStem: 404 20G<-6 73.0833 288.917 368>
LayerCount: 2
Fore
SplineSet
189 184 m 1,0,-1
 298 424 l 1,1,-1
 368 424 l 1,2,-1
 181 23 l 1,3,-1
 -6 424 l 1,4,-1
 64 424 l 1,5,-1
 173 184 l 1,6,-1
 181 165 l 1,7,-1
 189 184 l 1,0,-1
EndSplineSet
Validated: 1
EndChar

StartChar: w
Encoding: 119 119 91
Width: 688
GlyphClass: 2
Flags: W
HStem: 404 20G<30 109.583 565.417 646>
LayerCount: 2
Fore
SplineSet
460 184 m 1,0,-1
 575 424 l 1,1,-1
 646 424 l 1,2,-1
 452 23 l 1,3,-1
 346 250 l 1,4,-1
 338 269 l 1,5,-1
 329 250 l 1,6,-1
 223 23 l 1,7,-1
 30 424 l 1,8,-1
 100 424 l 1,9,-1
 215 184 l 1,10,-1
 223 165 l 1,11,-1
 232 184 l 1,12,-1
 274 275 l 1,13,-1
 303 336 l 1,14,-1
 338 411 l 1,15,-1
 373 336 l 1,16,-1
 443 184 l 1,17,-1
 452 165 l 1,18,-1
 460 184 l 1,0,-1
EndSplineSet
Validated: 1
EndChar

StartChar: x
Encoding: 120 120 92
Width: 409
GlyphClass: 2
Flags: W
HStem: 404 20G<30 118.029 273.826 362>
VStem: 30 332
LayerCount: 2
Fore
SplineSet
227 217 m 1,0,-1
 230 211 l 1,1,-1
 362 10 l 1,2,-1
 286 10 l 1,3,-1
 202 148 l 1,4,-1
 195 160 l 1,5,-1
 189 148 l 1,6,-1
 106 10 l 1,7,-1
 30 10 l 1,8,-1
 162 211 l 1,9,-1
 165 217 l 1,10,-1
 162 223 l 1,11,-1
 30 424 l 1,12,-1
 106 424 l 1,13,-1
 189 286 l 1,14,-1
 195 274 l 1,15,-1
 202 286 l 1,16,-1
 286 424 l 1,17,-1
 362 424 l 1,18,-1
 230 223 l 1,19,-1
 227 217 l 1,0,-1
EndSplineSet
Validated: 1
EndChar

StartChar: y
Encoding: 121 121 93
Width: 403
GlyphClass: 2
Flags: W
HStem: 394 20G<30 110.11 279.89 360>
VStem: 30 330
LayerCount: 2
Fore
SplineSet
202 223 m 1,0,-1
 289 414 l 1,1,-1
 360 414 l 1,2,-1
 101 -145 l 1,3,-1
 30 -145 l 1,4,-1
 165 131 l 1,5,-1
 166 135 l 1,6,-1
 165 139 l 1,7,-1
 30 414 l 1,8,-1
 101 414 l 1,9,-1
 188 223 l 1,10,-1
 195 205 l 1,11,-1
 202 223 l 1,0,-1
EndSplineSet
Validated: 1
EndChar

StartChar: z
Encoding: 122 122 94
Width: 332
GlyphClass: 2
Flags: W
HStem: 10 63<134 300> 360 63<30 198>
VStem: 30 270
LayerCount: 2
Fore
SplineSet
30 423 m 1,0,-1
 295 423 l 1,1,-1
 141 87 l 1,2,-1
 134 73 l 1,3,-1
 150 73 l 1,4,-1
 300 73 l 1,5,-1
 300 10 l 1,6,-1
 36 10 l 1,7,-1
 191 346 l 1,8,-1
 198 360 l 1,9,-1
 182 360 l 1,10,-1
 30 360 l 1,11,-1
 30 423 l 1,0,-1
EndSplineSet
Validated: 1
EndChar

StartChar: braceleft
Encoding: 123 123 95
Width: 254
GlyphClass: 2
Flags: W
HStem: -41 65<187.525 220>
VStem: 116 62<33.6406 203 380 547.484>
LayerCount: 2
Fore
SplineSet
182 525.5 m 128,-1,1
 178 516 178 516 178 506 c 2,2,-1
 178 353 l 1,3,-1
 126 298 l 1,4,-1
 119 291 l 1,5,-1
 126 284 l 1,6,-1
 178 230 l 1,7,-1
 178 77 l 2,8,9
 178 55 178 55 193 39 c 0,10,11
 196 36 196 36 199 34 c 128,-1,12
 202 32 202 32 205.5 30 c 128,-1,13
 209 28 209 28 212.5 26.5 c 128,-1,14
 216 25 216 25 220 24 c 2,15,-1
 220 -41 l 1,16,17
 179 -38 179 -38 149 -7 c 0,18,19
 116 27 116 27 116 77 c 2,20,-1
 116 199 l 1,21,-1
 116 203 l 1,22,-1
 113 206 l 1,23,-1
 30 291 l 1,24,-1
 113 377 l 1,25,-1
 116 380 l 1,26,-1
 116 385 l 1,27,-1
 116 506 l 2,28,29
 116 530 116 530 124 550 c 128,-1,30
 132 570 132 570 149 586 c 0,31,32
 178 616 178 616 220 620 c 1,33,-1
 220 556 l 1,34,35
 205 553 205 553 193 542 c 0,36,0
 186 535 186 535 182 525.5 c 128,-1,1
EndSplineSet
Validated: 1
EndChar

StartChar: verticalbar
Encoding: 124 124 96
Width: 123
GlyphClass: 2
Flags: W
VStem: 30 63<-96 772>
LayerCount: 2
Fore
SplineSet
93 -96 m 1,0,-1
 30 -96 l 1,1,-1
 30 772 l 1,2,-1
 93 772 l 1,3,-1
 93 -96 l 1,0,-1
EndSplineSet
Validated: 1
EndChar

StartChar: braceright
Encoding: 125 125 97
Width: 254
GlyphClass: 2
Flags: W
VStem: 71 63<33.6406 203 380 547.747>
LayerCount: 2
Fore
SplineSet
134 380 m 1,0,-1
 137 377 l 1,1,-1
 220 291 l 1,2,-1
 137 206 l 1,3,-1
 134 203 l 1,4,-1
 134 199 l 1,5,-1
 134 77 l 2,6,7
 134 27 134 27 100 -7 c 0,8,9
 70 -38 70 -38 30 -41 c 1,10,-1
 30 24 l 1,11,12
 45 27 45 27 56 40 c 0,13,14
 71 56 71 56 71 77 c 2,15,-1
 71 230 l 1,16,-1
 123 284 l 1,17,-1
 130 291 l 1,18,-1
 123 298 l 1,19,-1
 71 353 l 1,20,-1
 71 506 l 2,21,22
 71 527 71 527 56 542 c 0,23,24
 45 553 45 553 30 556 c 1,25,-1
 30 620 l 1,26,27
 71 617 71 617 100 586 c 0,28,29
 134 552 134 552 134 506 c 2,30,-1
 134 385 l 1,31,-1
 134 380 l 1,0,-1
EndSplineSet
Validated: 1
EndChar

StartChar: asciitilde
Encoding: 126 126 98
Width: 600
GlyphClass: 2
Flags: W
HStem: 173 63<356.654 470.75> 342 63<129.524 243.467>
VStem: 30 63<226 306.048> 507 63<271.746 352>
LayerCount: 2
Fore
SplineSet
505 352 m 1,0,-1
 569 352 l 1,1,2
 570 346 570 346 570 341.5 c 128,-1,3
 570 337 570 337 570 332 c 0,4,5
 570 326 570 326 569.5 319.5 c 128,-1,6
 569 313 569 313 567.5 306 c 128,-1,7
 566 299 566 299 564.5 292.5 c 128,-1,8
 563 286 563 286 560.5 279 c 128,-1,9
 558 272 558 272 555 265 c 0,10,11
 527 205 527 205 465 183 c 0,12,13
 436 173 436 173 412 173 c 0,14,15
 381 173 381 173 349 188 c 0,16,17
 293 217 293 217 272 278 c 0,18,19
 259 315 259 315 225 333 c 0,20,21
 219 336 219 336 213 338 c 128,-1,22
 207 340 207 340 200.5 341 c 128,-1,23
 194 342 194 342 187 342 c 0,24,25
 169 342 169 342 156 336 c 0,26,27
 138 329 138 329 124.5 316.5 c 128,-1,28
 111 304 111 304 102 287 c 128,-1,29
 93 270 93 270 93 246 c 0,30,31
 93 236 93 236 95 226 c 1,32,-1
 31 226 l 1,33,34
 30 236 30 236 30 247 c 0,35,36
 30 251 30 251 30 255 c 128,-1,37
 30 259 30 259 30.5 262.5 c 128,-1,38
 31 266 31 266 31.5 270 c 128,-1,39
 32 274 32 274 33 277.5 c 128,-1,40
 34 281 34 281 35 284.5 c 128,-1,41
 36 288 36 288 37 292 c 128,-1,42
 38 296 38 296 39 299 c 128,-1,43
 40 302 40 302 41.5 305.5 c 128,-1,44
 43 309 43 309 45 313 c 0,45,46
 73 374 73 374 134 396 c 0,47,48
 143 399 143 399 152 401 c 0,49,50
 160 403 160 403 168.5 404 c 128,-1,51
 177 405 177 405 187 405 c 0,52,53
 221 405 221 405 250 390 c 0,54,55
 306 363 306 363 328 301 c 0,56,57
 335 282 335 282 346.5 268 c 128,-1,58
 358 254 358 254 375 246 c 0,59,60
 392 236 392 236 412 236 c 0,61,62
 420 236 420 236 428 237.5 c 128,-1,63
 436 239 436 239 444 243 c 0,64,65
 481 256 481 256 498 292 c 0,66,67
 507 313 507 313 507 333 c 0,68,69
 507 341 507 341 505 352 c 1,0,-1
EndSplineSet
Validated: 1
EndChar

StartChar: exclamdown
Encoding: 161 161 100
Width: 175
GlyphClass: 2
Flags: W
HStem: 352 63<56.3359 116.773>
VStem: 55 63<144.08 260 353.301 413.515>
LayerCount: 2
Fore
SplineSet
95 353 m 128,-1,1
 91 352 91 352 86 352 c 0,2,3
 83 352 83 352 80 352.5 c 128,-1,4
 77 353 77 353 74.5 354 c 128,-1,5
 72 355 72 355 69.5 357 c 128,-1,6
 67 359 67 359 64 361 c 0,7,8
 59 366 59 366 57 372 c 128,-1,9
 55 378 55 378 55 384 c 0,10,11
 55 397 55 397 64.5 406 c 128,-1,12
 74 415 74 415 86 415 c 0,13,14
 98 415 98 415 108 406 c 0,15,16
 118 398 118 398 118 384 c 0,17,18
 118 377 118 377 116 371.5 c 128,-1,19
 114 366 114 366 109 361 c 0,20,21
 106 358 106 358 102.5 356 c 128,-1,0
 99 354 99 354 95 353 c 128,-1,1
55 260 m 1,22,-1
 119 260 l 1,23,-1
 143 -154 l 1,24,-1
 30 -154 l 1,25,-1
 55 260 l 1,22,-1
EndSplineSet
Validated: 1
EndChar

StartChar: cent
Encoding: 162 162 101
Width: 514
GlyphClass: 2
Flags: W
HStem: -65 135<268.521 322.31> 523 60<259 267 324 332>
VStem: 30 63<198.213 399.283> 267 57<-65 9 583 658>
LayerCount: 2
Fore
SplineSet
156 137 m 0,0,1
 214 70 214 70 296 70 c 0,2,3
 374 70 374 70 435 126 c 1,4,-1
 480 82 l 1,5,6
 416 23 416 23 332 10 c 2,7,-1
 324 9 l 1,8,-1
 324 0 l 1,9,-1
 324 -65 l 1,10,-1
 267 -65 l 1,11,-1
 267 3 l 1,12,-1
 267 12 l 1,13,-1
 259 13 l 2,14,15
 228 18 228 18 200 30.5 c 128,-1,16
 172 43 172 43 147 63 c 0,17,18
 92 103 92 103 61 166 c 128,-1,19
 30 229 30 229 30 300 c 0,20,21
 30 327 30 327 34.5 353 c 128,-1,22
 39 379 39 379 47.5 403 c 128,-1,23
 56 427 56 427 68 449 c 0,24,25
 81 470 81 470 99 489 c 0,26,27
 166 567 166 567 259 582 c 2,28,-1
 267 583 l 1,29,-1
 267 592 l 1,30,-1
 267 658 l 1,31,-1
 324 658 l 1,32,-1
 324 592 l 1,33,-1
 324 583 l 1,34,-1
 332 582 l 2,35,36
 416 570 416 570 480 511 c 1,37,-1
 435 466 l 1,38,39
 374 523 374 523 296 523 c 0,40,41
 214 523 214 523 156 460 c 0,42,43
 93 393 93 393 93 298.5 c 128,-1,44
 93 204 93 204 156 137 c 0,0,1
EndSplineSet
Validated: 1
EndChar

StartChar: sterling
Encoding: 163 163 102
Width: 382
GlyphClass: 2
Flags: W
HStem: 17 63<30 129 186 352> 223 63<30 77 183 279> 523 63<135.517 254.433>
VStem: 30 63<340.883 478.729> 141 52<80.1875 222.797>
LayerCount: 2
Fore
SplineSet
186 80 m 1,0,-1
 196 80 l 1,1,-1
 352 80 l 1,2,-1
 352 17 l 1,3,-1
 30 17 l 1,4,-1
 30 80 l 1,5,-1
 122 80 l 1,6,-1
 129 80 l 1,7,-1
 131 87 l 2,8,9
 141 116 141 116 141 143 c 0,10,11
 141 182 141 182 126 217 c 2,12,-1
 124 223 l 1,13,-1
 117 223 l 1,14,-1
 30 223 l 1,15,-1
 30 286 l 1,16,-1
 57 286 l 1,17,-1
 77 286 l 1,18,-1
 65 303 l 2,19,20
 30 351 30 351 30 410 c 0,21,22
 30 484 30 484 80 536 c 0,23,24
 130 586 130 586 191 586 c 0,25,26
 243 586 243 586 290 546 c 1,27,-1
 245 501 l 1,28,29
 219 523 219 523 191 523 c 0,30,31
 155 523 155 523 124 491 c 0,32,33
 93 457 93 457 93 411 c 128,-1,34
 93 365 93 365 121 333 c 1,35,-1
 121 332 l 1,36,-1
 124 329 l 2,37,38
 125 328 125 328 126 327 c 128,-1,39
 127 326 127 326 128 325 c 2,40,-1
 130 324 l 2,41,42
 137 317 137 317 143.5 308.5 c 128,-1,43
 150 300 150 300 156 290 c 2,44,-1
 158 286 l 1,45,-1
 162 286 l 1,46,-1
 279 286 l 1,47,-1
 279 223 l 1,48,-1
 193 223 l 1,49,-1
 183 223 l 1,50,-1
 186 210 l 2,51,52
 189 199 189 199 190.5 188 c 128,-1,53
 192 177 192 177 192.5 165.5 c 128,-1,54
 193 154 193 154 193 143 c 0,55,56
 193 122 193 122 188 92 c 2,57,-1
 186 80 l 1,0,-1
EndSplineSet
Validated: 1
EndChar

StartChar: currency
Encoding: 164 164 103
Width: 487
GlyphClass: 2
Flags: W
HStem: -81 66<210 268> 280 62<174.611 304.702>
VStem: 42 67<46.8428 213.602> 370 66<96 212.469>
LayerCount: 2
Fore
SplineSet
398 6 m 1,0,-1
 404 0 l 1,1,-1
 449 -45 l 1,2,-1
 405 -90 l 1,3,-1
 359 -46 l 1,4,-1
 353 -40 l 1,5,-1
 346 -45 l 2,6,7
 297 -81 297 -81 239 -81 c 128,-1,8
 181 -81 181 -81 131 -45 c 2,9,-1
 125 -40 l 1,10,-1
 119 -46 l 1,11,-1
 74 -90 l 1,12,-1
 30 -45 l 1,13,-1
 75 0 l 1,14,-1
 81 6 l 1,15,-1
 76 13 l 2,16,17
 42 66 42 66 42 130 c 128,-1,18
 42 194 42 194 76 247 c 2,19,-1
 81 254 l 1,20,-1
 75 260 l 1,21,-1
 30 305 l 1,22,-1
 74 351 l 1,23,-1
 119 306 l 1,24,-1
 125 300 l 1,25,-1
 131 305 l 2,26,27
 181 342 181 342 239 342 c 128,-1,28
 297 342 297 342 346 305 c 2,29,-1
 353 300 l 1,30,-1
 359 306 l 1,31,-1
 405 351 l 1,32,-1
 449 305 l 1,33,-1
 404 260 l 1,34,-1
 398 254 l 1,35,-1
 402 247 l 2,36,37
 419 220 419 220 427.5 191 c 128,-1,38
 436 162 436 162 436 131 c 0,39,40
 436 67 436 67 402 13 c 2,41,-1
 398 6 l 1,0,-1
370 99 m 1,42,-1
 371 105 l 2,43,44
 373 118 373 118 373 130 c 0,45,46
 373 134 373 134 373 138.5 c 128,-1,47
 373 143 373 143 372.5 147.5 c 128,-1,48
 372 152 372 152 371 156 c 0,49,50
 370 161 370 161 370 162 c 2,51,-1
 370 163 l 1,52,-1
 370 164 l 2,53,54
 369 168 369 168 367.5 173 c 128,-1,55
 366 178 366 178 364 182 c 0,56,57
 352 213 352 213 329 237 c 0,58,59
 308 261 308 261 279 272 c 2,60,-1
 271 275 l 2,61,62
 265 277 265 277 261 277 c 0,63,64
 249 280 249 280 239 280 c 0,65,66
 237 280 237 280 235.5 280 c 128,-1,67
 234 280 234 280 232.5 279.5 c 128,-1,68
 231 279 231 279 229 279 c 128,-1,69
 227 279 227 279 225 278.5 c 128,-1,70
 223 278 223 278 221 277.5 c 128,-1,71
 219 277 219 277 217 276.5 c 128,-1,72
 215 276 215 276 213.5 275.5 c 128,-1,73
 212 275 212 275 210 275 c 128,-1,74
 208 275 208 275 205.5 274 c 128,-1,75
 203 273 203 273 200 272 c 0,76,77
 196 270 196 270 193 269 c 128,-1,78
 190 268 190 268 186.5 266 c 128,-1,79
 183 264 183 264 180 262 c 0,80,81
 142 240 142 240 121 197 c 0,82,83
 118 192 118 192 117 189 c 128,-1,84
 116 186 116 186 114 182 c 0,85,86
 111 173 111 173 109 164 c 2,87,-1
 109 163 l 1,88,-1
 109 162 l 2,89,90
 109 159 109 159 108 156 c 0,91,92
 105 142 105 142 105 130.5 c 128,-1,93
 105 119 105 119 108 105 c 0,94,95
 109 100 109 100 109 99 c 2,96,-1
 109 97 l 1,97,-1
 109 96 l 2,98,99
 111 89 111 89 114 80 c 0,100,101
 116 72 116 72 121 64 c 0,102,103
 141 22 141 22 180 -2 c 0,104,105
 189 -7 189 -7 200 -10 c 0,106,107
 206 -13 206 -13 208 -14 c 2,108,-1
 210 -15 l 1,109,-1
 211 -15 l 2,110,111
 214 -15 214 -15 217 -16 c 0,112,-1
 218 -16 l 2,113,114
 230 -18 230 -18 239.5 -18 c 128,-1,115
 249 -18 249 -18 261 -16 c 0,116,117
 265 -15 265 -15 267 -15 c 2,118,-1
 268 -15 l 1,119,-1
 270 -14 l 2,120,121
 273 -13 273 -13 279 -10 c 0,122,123
 290 -7 290 -7 299 -2 c 0,124,125
 337 20 337 20 358 64 c 0,126,127
 360 69 360 69 361.5 72.5 c 128,-1,128
 363 76 363 76 364 80 c 0,129,130
 367 88 367 88 370 96 c 2,131,-1
 370 97 l 1,132,-1
 370 99 l 1,42,-1
EndSplineSet
Validated: 1
EndChar

StartChar: yen
Encoding: 165 165 104
Width: 558
GlyphClass: 2
Flags: W
HStem: 148 63<144 239 298 394> 265 63<144 211 327 394>
VStem: 239 59<17 148 211 265>
LayerCount: 2
Fore
SplineSet
429 586 m 1,0,-1
 508 586 l 1,1,-1
 338 345 l 1,2,-1
 327 328 l 1,3,-1
 346 328 l 1,4,-1
 394 328 l 1,5,-1
 394 265 l 1,6,-1
 307 265 l 1,7,-1
 298 265 l 1,8,-1
 298 255 l 1,9,-1
 298 221 l 1,10,-1
 298 211 l 1,11,-1
 307 211 l 1,12,-1
 394 211 l 1,13,-1
 394 148 l 1,14,-1
 307 148 l 1,15,-1
 298 148 l 1,16,-1
 298 138 l 1,17,-1
 298 17 l 1,18,-1
 239 17 l 1,19,-1
 239 138 l 1,20,-1
 239 148 l 1,21,-1
 230 148 l 1,22,-1
 144 148 l 1,23,-1
 144 211 l 1,24,-1
 230 211 l 1,25,-1
 239 211 l 1,26,-1
 239 221 l 1,27,-1
 239 255 l 1,28,-1
 239 265 l 1,29,-1
 230 265 l 1,30,-1
 144 265 l 1,31,-1
 144 328 l 1,32,-1
 192 328 l 1,33,-1
 211 328 l 1,34,-1
 200 345 l 1,35,-1
 30 586 l 1,36,-1
 109 586 l 1,37,-1
 262 369 l 1,38,-1
 269 358 l 1,39,-1
 276 369 l 1,40,-1
 429 586 l 1,0,-1
EndSplineSet
Validated: 1
EndChar

StartChar: section
Encoding: 167 167 105
Width: 380
GlyphClass: 2
Flags: W
HStem: -122 63<127.797 250.931> 134 59<130.021 248.24> 396 60<129.269 249.245> 638 63<127.226 251.366>
VStem: 30 63<265 358.857 486.725 603.493> 286 63<-23.8707 99.4727 231.151 323 324 358.15>
LayerCount: 2
Fore
SplineSet
279 176 m 1,0,-1
 296 158 l 1,1,-1
 302 152 l 2,2,3
 349 104 349 104 349 37.5 c 128,-1,4
 349 -29 349 -29 303 -76 c 0,5,6
 256 -122 256 -122 189.5 -122 c 128,-1,7
 123 -122 123 -122 77 -77 c 0,8,9
 43 -44 43 -44 33 2 c 1,10,-1
 99 2 l 1,11,12
 106 -18 106 -18 121 -32 c 0,13,14
 150 -59 150 -59 189.5 -59 c 128,-1,15
 229 -59 229 -59 257 -32 c 0,16,17
 286 -3 286 -3 286 37.5 c 128,-1,18
 286 78 286 78 258 107 c 0,19,20
 237 128 237 128 207 134 c 2,21,-1
 206 134 l 1,22,-1
 205 134 l 2,23,24
 203 134 203 134 200 133 c 0,25,-1
 198 133 l 1,26,-1
 192 132 l 1,27,-1
 190 132 l 1,28,29
 123 132 123 132 77 179 c 0,30,31
 43 213 43 213 34 262 c 2,32,-1
 33 265 l 1,33,-1
 33 266 l 1,34,-1
 32 272 l 2,35,36
 30 289 30 289 30 295 c 128,-1,37
 30 301 30 301 30.5 307.5 c 128,-1,38
 31 314 31 314 32 320.5 c 128,-1,39
 33 327 33 327 34.5 333 c 128,-1,40
 36 339 36 339 37.5 344.5 c 128,-1,41
 39 350 39 350 41.5 355.5 c 128,-1,42
 44 361 44 361 47 366.5 c 128,-1,43
 50 372 50 372 53 377.5 c 128,-1,44
 56 383 56 383 60 388 c 128,-1,45
 64 393 64 393 68 398 c 128,-1,46
 72 403 72 403 77 408 c 2,47,-1
 79 409 l 2,48,49
 82 411 82 411 83 413 c 2,50,-1
 90 420 l 1,51,-1
 83 427 l 1,52,-1
 77 433 l 2,53,54
 30 480 30 480 30 546 c 0,55,56
 30 568 30 568 35 587 c 128,-1,57
 40 606 40 606 50.5 623 c 128,-1,58
 61 640 61 640 76 655 c 0,59,60
 99 678 99 678 127.5 689.5 c 128,-1,61
 156 701 156 701 190 701 c 0,62,63
 256 701 256 701 302 655 c 0,64,65
 336 623 336 623 346 576 c 1,66,-1
 280 576 l 1,67,68
 273 596 273 596 258 611 c 0,69,70
 230 638 230 638 190 638 c 0,71,72
 185 638 185 638 180 637.5 c 128,-1,73
 175 637 175 637 170.5 636 c 128,-1,74
 166 635 166 635 161.5 634 c 128,-1,75
 157 633 157 633 153 631.5 c 128,-1,76
 149 630 149 630 144.5 627.5 c 128,-1,77
 140 625 140 625 136.5 622.5 c 128,-1,78
 133 620 133 620 129 617.5 c 128,-1,79
 125 615 125 615 122 611 c 0,80,81
 93 584 93 584 93 545.5 c 128,-1,82
 93 507 93 507 121 480 c 0,83,84
 142 460 142 460 173 455 c 0,85,-1
 174 455 l 2,86,87
 177 455 177 455 181 456 c 0,88,89
 182 456 182 456 184 456 c 2,90,-1
 190 456 l 2,91,92
 223 456 223 456 251 445 c 0,93,94
 279 433 279 433 302 409 c 0,95,96
 319 392 319 392 329.5 371.5 c 128,-1,97
 340 351 340 351 345 325 c 2,98,-1
 345 324 l 1,99,-1
 346 323 l 2,100,101
 346 322 346 322 346.5 321 c 128,-1,102
 347 320 347 320 347 319.5 c 128,-1,103
 347 319 347 319 347 318 c 128,-1,104
 347 317 347 317 347 316 c 0,105,106
 349 299 349 299 349 292 c 0,107,108
 349 258 349 258 337.5 230 c 128,-1,109
 326 202 326 202 302 178 c 2,110,-1
 300 176 l 1,111,-1
 279 176 l 1,0,-1
279 259 m 0,112,113
 286 276 286 276 286 293 c 2,114,-1
 286 294 l 2,115,116
 286 302 286 302 285 310 c 128,-1,117
 284 318 284 318 281.5 325.5 c 128,-1,118
 279 333 279 333 275.5 340 c 128,-1,119
 272 347 272 347 267.5 353.5 c 128,-1,120
 263 360 263 360 258 366 c 0,121,122
 244 381 244 381 226.5 388.5 c 128,-1,123
 209 396 209 396 190 396 c 0,124,125
 159 396 159 396 134 378 c 0,126,127
 122 369 122 369 113.5 357 c 128,-1,128
 105 345 105 345 100 330 c 0,129,130
 93 313 93 313 93 296 c 2,131,-1
 93 295 l 1,132,-1
 93 294 l 2,133,134
 93 273 93 273 100 255 c 128,-1,135
 107 237 107 237 121.5 222.5 c 128,-1,136
 136 208 136 208 153 200.5 c 128,-1,137
 170 193 170 193 190 193 c 0,138,139
 220 193 220 193 244.5 211.5 c 128,-1,140
 269 230 269 230 279 259 c 0,112,113
EndSplineSet
Validated: 1
EndChar

StartChar: dieresis
Encoding: 168 168 106
Width: 277
GlyphClass: 2
Flags: W
HStem: 582 73<33.0828 91.6553 177.625 236.938>
VStem: 30 73<585.481 644.171> 175 72<584.792 643.875>
LayerCount: 2
Fore
SplineSet
225 584.5 m 128,-1,1
 219 582 219 582 211 582 c 0,2,3
 196 582 196 582 186 592 c 0,4,5
 176 602 176 602 175 618 c 0,6,7
 175 623 175 623 176 628 c 128,-1,8
 177 633 177 633 179.5 637 c 128,-1,9
 182 641 182 641 186 644 c 0,10,11
 191 649 191 649 197 652 c 128,-1,12
 203 655 203 655 211 655 c 0,13,14
 216 655 216 655 220.5 654 c 128,-1,15
 225 653 225 653 230 650 c 0,16,17
 232 649 232 649 233.5 647.5 c 128,-1,18
 235 646 235 646 237 645 c 0,19,20
 240 641 240 641 242 637 c 128,-1,21
 244 633 244 633 246 629 c 0,22,23
 247 624 247 624 247 619 c 0,24,25
 247 611 247 611 244.5 604.5 c 128,-1,26
 242 598 242 598 236.5 592.5 c 128,-1,0
 231 587 231 587 225 584.5 c 128,-1,1
80.5 584.5 m 128,-1,28
 74 582 74 582 66 582 c 0,29,30
 64 582 64 582 61.5 582.5 c 128,-1,31
 59 583 59 583 57 583.5 c 128,-1,32
 55 584 55 584 53 585 c 0,33,34
 46 588 46 588 40 593 c 0,35,36
 38 595 38 595 36 598 c 128,-1,37
 34 601 34 601 33 604 c 0,38,39
 30 611 30 611 30 619 c 128,-1,40
 30 627 30 627 32.5 633 c 128,-1,41
 35 639 35 639 40.5 644.5 c 128,-1,42
 46 650 46 650 52 652 c 0,43,44
 58 654 58 654 66 655 c 0,45,46
 81 655 81 655 92 644.5 c 128,-1,47
 103 634 103 634 103 618 c 0,48,49
 103 613 103 613 102 608.5 c 128,-1,50
 101 604 101 604 98.5 600 c 128,-1,51
 96 596 96 596 92 593 c 0,52,27
 87 587 87 587 80.5 584.5 c 128,-1,28
EndSplineSet
Validated: 1
EndChar

StartChar: copyright
Encoding: 169 169 107
Width: 599
GlyphClass: 2
Flags: W
HStem: 27 63<210.228 388.915> 162 63<251.609 354.745> 368 63<251.609 354.413> 523 63<210.59 389.261>
VStem: 30 63<211.739 401.594> 173 59<244.164 349.358> 506 63<211.08 402.724>
LayerCount: 2
Fore
SplineSet
400 565.5 m 128,-1,1
 446 545 446 545 487 504 c 128,-1,2
 528 463 528 463 548.5 413.5 c 128,-1,3
 569 364 569 364 569 306 c 0,4,5
 569 190 569 190 487 109 c 0,6,7
 408 27 408 27 299 27 c 128,-1,8
 190 27 190 27 112 109 c 0,9,10
 30 191 30 191 30 306.5 c 128,-1,11
 30 422 30 422 112 504 c 0,12,13
 192 586 192 586 300 586 c 0,14,0
 354 586 354 586 400 565.5 c 128,-1,1
377 106 m 0,15,16
 413 122 413 122 443 153 c 0,17,18
 506 216 506 216 506 306 c 0,19,20
 506 336 506 336 499 363 c 128,-1,21
 492 390 492 390 478 414.5 c 128,-1,22
 464 439 464 439 443 460 c 0,23,24
 384 523 384 523 299.5 523 c 128,-1,25
 215 523 215 523 156 460 c 0,26,27
 93 397 93 397 93 307 c 128,-1,28
 93 217 93 217 156 153 c 0,29,30
 216 90 216 90 300 90 c 0,31,32
 342 90 342 90 377 106 c 0,15,16
340 354 m 1,33,34
 322 368 322 368 300 368 c 0,35,36
 295 368 295 368 290.5 367.5 c 128,-1,37
 286 367 286 367 282 365.5 c 128,-1,38
 278 364 278 364 274 362.5 c 128,-1,39
 270 361 270 361 266 358.5 c 128,-1,40
 262 356 262 356 258.5 353.5 c 128,-1,41
 255 351 255 351 252 347 c 0,42,43
 242 337 242 337 237 324 c 128,-1,44
 232 311 232 311 232 296.5 c 128,-1,45
 232 282 232 282 237 269 c 128,-1,46
 242 256 242 256 252 246 c 0,47,48
 272 225 272 225 300 225 c 0,49,50
 304 225 304 225 307.5 225.5 c 128,-1,51
 311 226 311 226 314.5 227 c 128,-1,52
 318 228 318 228 321.5 229 c 128,-1,53
 325 230 325 230 328 231.5 c 128,-1,54
 331 233 331 233 334 235 c 128,-1,55
 337 237 337 237 340 239 c 2,56,-1
 382 194 l 1,57,58
 347 162 347 162 299 162 c 0,59,60
 247 162 247 162 210 201 c 128,-1,61
 173 240 173 240 173 296 c 128,-1,62
 173 352 173 352 210 391.5 c 128,-1,63
 247 431 247 431 299 431 c 0,64,65
 311 431 311 431 322.5 429 c 128,-1,66
 334 427 334 427 344 423 c 128,-1,67
 354 419 354 419 363.5 413 c 128,-1,68
 373 407 373 407 382 399 c 1,69,-1
 340 354 l 1,33,34
EndSplineSet
Validated: 1
EndChar

StartChar: guillemotleft
Encoding: 171 171 108
Width: 572
GlyphClass: 2
Flags: W
LayerCount: 2
Fore
SplineSet
305 485 m 1,0,-1
 126 287 l 1,1,-1
 119 280 l 1,2,-1
 126 273 l 1,3,-1
 305 75 l 1,4,-1
 264 31 l 1,5,-1
 30 280 l 1,6,-1
 264 530 l 1,7,-1
 305 485 l 1,0,-1
533 485 m 1,8,-1
 347 287 l 1,9,-1
 340 280 l 1,10,-1
 347 273 l 1,11,-1
 533 75 l 1,12,-1
 489 31 l 1,13,-1
 258 280 l 1,14,-1
 489 530 l 1,15,-1
 533 485 l 1,8,-1
EndSplineSet
Validated: 1
EndChar

StartChar: registered
Encoding: 174 174 110
Width: 599
GlyphClass: 2
Flags: W
HStem: 27 63<209.895 387.901> 244 63<258 306> 361 63<258 326> 523 63<210.141 388.368>
VStem: 30 63<210.684 401.015> 200 58<169 244 307 361> 337 59<307.321 360.797> 506 63<211.57 401.47>
LayerCount: 2
Fore
SplineSet
299 586 m 0,0,1
 408 586 408 586 487 504 c 0,2,3
 503 487 503 487 516.5 469 c 128,-1,4
 530 451 530 451 539.5 432 c 128,-1,5
 549 413 549 413 555.5 392.5 c 128,-1,6
 562 372 562 372 565.5 350.5 c 128,-1,7
 569 329 569 329 569 306 c 0,8,9
 569 191 569 191 487 109 c 0,10,11
 410 27 410 27 299 27 c 0,12,13
 190 27 190 27 112 109 c 0,14,15
 71 149 71 149 50.5 198 c 128,-1,16
 30 247 30 247 30 306 c 0,17,18
 30 422 30 422 112 504 c 0,19,20
 191 586 191 586 299 586 c 0,0,1
377 106 m 128,-1,22
 413 122 413 122 443 153 c 0,23,24
 506 217 506 217 506 306 c 0,25,26
 506 350 506 350 490 388.5 c 128,-1,27
 474 427 474 427 443 459 c 0,28,29
 383 523 383 523 299 523 c 128,-1,30
 215 523 215 523 156 459 c 0,31,32
 93 396 93 396 93 306 c 128,-1,33
 93 216 93 216 156 153 c 0,34,35
 215 90 215 90 299 90 c 0,36,21
 341 90 341 90 377 106 c 128,-1,22
369 403 m 1,37,-1
 370 402 l 1,38,39
 383 388 383 388 389.5 371 c 128,-1,40
 396 354 396 354 396 334 c 0,41,42
 396 294 396 294 368 263 c 2,43,-1
 364 258 l 1,44,-1
 366 253 l 1,45,-1
 395 169 l 1,46,-1
 333 169 l 1,47,-1
 309 237 l 1,48,-1
 306 244 l 1,49,-1
 300 244 l 1,50,-1
 267 244 l 1,51,-1
 258 244 l 1,52,-1
 258 234 l 1,53,-1
 258 169 l 1,54,-1
 200 169 l 1,55,-1
 200 424 l 1,56,-1
 326 424 l 2,57,58
 331 424 331 424 335.5 423.5 c 128,-1,59
 340 423 340 423 344.5 421.5 c 128,-1,60
 349 420 349 420 352.5 417.5 c 128,-1,61
 356 415 356 415 360 412 c 128,-1,62
 364 409 364 409 368 406 c 2,63,-1
 369 403 l 1,37,-1
328 307 m 1,64,-1
 330 312 l 2,65,66
 333 317 333 317 335 322.5 c 128,-1,67
 337 328 337 328 337 333 c 0,68,69
 337 348 337 348 329 358 c 2,70,-1
 326 361 l 1,71,-1
 322 361 l 1,72,-1
 267 361 l 1,73,-1
 258 361 l 1,74,-1
 258 351 l 1,75,-1
 258 317 l 1,76,-1
 258 307 l 1,77,-1
 267 307 l 1,78,-1
 322 307 l 1,79,-1
 328 307 l 1,64,-1
EndSplineSet
Validated: 1
EndChar

StartChar: degree
Encoding: 176 176 111
Width: 247
GlyphClass: 2
Flags: W
HStem: 582 63<102.282 151.777> 706 62<98.2368 151.745>
VStem: 30 63<650.487 700.547> 153 63<646.211 704.707>
LayerCount: 2
Fore
SplineSet
123 768 m 0,0,1
 162 768 162 768 189 741 c 128,-1,2
 216 714 216 714 216 675 c 0,3,4
 216 655 216 655 209.5 639 c 128,-1,5
 203 623 203 623 189 609 c 0,6,7
 180 600 180 600 169.5 594 c 128,-1,8
 159 588 159 588 147.5 585 c 128,-1,9
 136 582 136 582 123 582 c 0,10,11
 84 582 84 582 57 610 c 128,-1,12
 30 638 30 638 30 676 c 0,13,14
 30 695 30 695 36.5 711 c 128,-1,15
 43 727 43 727 57 741 c 0,16,17
 64 748 64 748 71.5 753 c 128,-1,18
 79 758 79 758 87 761.5 c 128,-1,19
 95 765 95 765 104 766.5 c 128,-1,20
 113 768 113 768 123 768 c 0,0,1
124 645 m 0,21,22
 137 646 137 646 145 654 c 0,23,24
 147 656 147 656 148.5 658.5 c 128,-1,25
 150 661 150 661 151 664 c 128,-1,26
 152 667 152 667 152.5 670 c 128,-1,27
 153 673 153 673 153 675.5 c 128,-1,28
 153 678 153 678 152.5 681 c 128,-1,29
 152 684 152 684 151 687 c 128,-1,30
 150 690 150 690 148.5 692.5 c 128,-1,31
 147 695 147 695 145 697 c 128,-1,32
 143 699 143 699 140.5 700.5 c 128,-1,33
 138 702 138 702 135 704 c 0,34,35
 132 706 132 706 130 706 c 128,-1,36
 128 706 128 706 124 706 c 0,37,38
 111 706 111 706 102 697 c 128,-1,39
 93 688 93 688 93 675.5 c 128,-1,40
 93 663 93 663 102 654 c 128,-1,41
 111 645 111 645 124 645 c 0,21,22
EndSplineSet
Validated: 1
EndChar

StartChar: plusminus
Encoding: 177 177 112
Width: 454
GlyphClass: 2
Flags: W
HStem: -154 63<30 424> 150 63<31 200 254 423>
VStem: 200 54<-34 150 213 387>
LayerCount: 2
Fore
SplineSet
254 -34 m 1,0,-1
 200 -34 l 1,1,-1
 200 139 l 1,2,-1
 200 150 l 1,3,-1
 191 150 l 1,4,-1
 31 150 l 1,5,-1
 31 213 l 1,6,-1
 191 213 l 1,7,-1
 200 213 l 1,8,-1
 200 223 l 1,9,-1
 200 387 l 1,10,-1
 254 387 l 1,11,-1
 254 223 l 1,12,-1
 254 213 l 1,13,-1
 263 213 l 1,14,-1
 423 213 l 1,15,-1
 423 150 l 1,16,-1
 263 150 l 1,17,-1
 254 150 l 1,18,-1
 254 139 l 1,19,-1
 254 -34 l 1,0,-1
424 -91 m 1,20,-1
 424 -154 l 1,21,-1
 30 -154 l 1,22,-1
 30 -91 l 1,23,-1
 424 -91 l 1,20,-1
EndSplineSet
Validated: 1
EndChar

StartChar: acute
Encoding: 180 180 113
Width: 206
GlyphClass: 2
Flags: W
HStem: 582 73
VStem: 30 118
LayerCount: 2
Fore
SplineSet
30 582 m 1,0,-1
 103 655 l 1,1,-1
 148 655 l 1,2,-1
 75 582 l 1,3,-1
 30 582 l 1,0,-1
EndSplineSet
Validated: 1
EndChar

StartChar: paragraph
Encoding: 182 182 114
Width: 434
GlyphClass: 2
Flags: W
HStem: 20 21G<225 280 341 404> 559 20G<150.5 280 341 404>
VStem: 30 250<344.242 503.256> 225 55<20 268> 341 63<20 579>
LayerCount: 2
Fore
SplineSet
404 579 m 1,0,-1
 404 20 l 1,1,-1
 341 20 l 1,2,-1
 341 579 l 1,3,-1
 404 579 l 1,0,-1
75.5 533.5 m 128,-1,5
 121 579 121 579 180 579 c 2,6,-1
 280 579 l 1,7,-1
 280 20 l 1,8,-1
 225 20 l 1,9,-1
 225 258 l 1,10,-1
 225 268 l 1,11,-1
 216 268 l 1,12,-1
 180 268 l 2,13,14
 152 268 152 268 126 279 c 0,15,16
 99 290 99 290 76 314 c 0,17,18
 54 338 54 338 42 364 c 0,19,20
 30 392 30 392 30 424 c 0,21,4
 30 488 30 488 75.5 533.5 c 128,-1,5
EndSplineSet
Validated: 1
EndChar

StartChar: guillemotright
Encoding: 187 187 115
Width: 572
GlyphClass: 2
Flags: W
LayerCount: 2
Fore
SplineSet
299 530 m 1,0,-1
 533 280 l 1,1,-1
 299 31 l 1,2,-1
 258 75 l 1,3,-1
 437 273 l 1,4,-1
 444 280 l 1,5,-1
 437 287 l 1,6,-1
 258 485 l 1,7,-1
 299 530 l 1,0,-1
75 530 m 1,8,-1
 305 280 l 1,9,-1
 75 31 l 1,10,-1
 30 75 l 1,11,-1
 216 273 l 1,12,-1
 222 280 l 1,13,-1
 216 287 l 1,14,-1
 30 485 l 1,15,-1
 75 530 l 1,8,-1
EndSplineSet
Validated: 1
EndChar

StartChar: questiondown
Encoding: 191 191 116
Width: 399
GlyphClass: 2
Flags: W
HStem: -154 63<140.928 257.178> 152 118<173 225.555> 352 63<180.735 217.749>
VStem: 30 63<-42.1265 98.4498> 173 53<210 270 361.282 405.718> 305 63<-42.7678 100.024>
LayerCount: 2
Fore
SplineSet
218 361 m 128,-1,1
 210 352 210 352 199 352 c 0,2,3
 193 352 193 352 189 354 c 128,-1,4
 185 356 185 356 181 361 c 128,-1,5
 177 366 177 366 175 372 c 0,6,7
 173 378 173 378 173 384 c 0,8,9
 173 397 173 397 180.5 406 c 128,-1,10
 188 415 188 415 199 415 c 128,-1,11
 210 415 210 415 218 406 c 128,-1,12
 226 397 226 397 226 383.5 c 128,-1,0
 226 370 226 370 218 361 c 128,-1,1
232 208 m 2,13,14
 279 196 279 196 316 158 c 0,15,16
 368 104 368 104 368 27 c 0,17,18
 368 1 368 1 362 -22 c 0,19,20
 356 -44 356 -44 344.5 -64 c 128,-1,21
 333 -84 333 -84 316 -101 c 0,22,23
 290 -127 290 -127 258 -141 c 0,24,25
 230 -154 230 -154 199 -154 c 0,26,27
 135 -154 135 -154 82.5 -101.5 c 128,-1,28
 30 -49 30 -49 30 25 c 0,29,30
 30 84 30 84 64 130 c 1,31,-1
 111 87 l 1,32,33
 93 59 93 59 93 25 c 0,34,35
 93 -23 93 -23 127 -57 c 0,36,37
 159 -91 159 -91 199 -91 c 0,38,39
 212 -91 212 -91 224 -87 c 128,-1,40
 236 -83 236 -83 247 -76 c 0,41,42
 260 -68 260 -68 271 -57 c 0,43,44
 288 -40 288 -40 296 -20 c 0,45,46
 305 2 305 2 305 28 c 0,47,48
 305 79 305 79 271 115 c 0,49,50
 239 152 239 152 199 152 c 2,51,-1
 173 152 l 1,52,-1
 173 270 l 1,53,-1
 226 270 l 1,54,-1
 226 218 l 1,55,-1
 226 210 l 1,56,-1
 232 208 l 2,13,14
EndSplineSet
Validated: 1
EndChar

StartChar: Agrave
Encoding: 192 192 117
Width: 599
GlyphClass: 2
Flags: W
HStem: 155 63<201 386>
LayerCount: 2
Fore
SplineSet
258 492 m 1,0,-1
 293 567 l 1,1,-1
 557 10 l 1,2,-1
 486 10 l 1,3,-1
 418 149 l 1,4,-1
 415 155 l 1,5,-1
 410 155 l 1,6,-1
 177 155 l 1,7,-1
 171 155 l 1,8,-1
 169 149 l 1,9,-1
 101 10 l 1,10,-1
 30 10 l 1,11,-1
 258 492 l 1,0,-1
201 218 m 1,12,-1
 216 218 l 1,13,-1
 370 218 l 1,14,-1
 386 218 l 1,15,-1
 379 232 l 1,16,-1
 301 397 l 1,17,-1
 293 415 l 1,18,-1
 284 397 l 1,19,-1
 208 232 l 1,20,-1
 201 218 l 1,12,-1
280 723 m 1,21,-1
 348 651 l 1,22,-1
 306 651 l 1,23,-1
 238 723 l 1,24,-1
 280 723 l 1,21,-1
EndSplineSet
Validated: 1
EndChar

StartChar: Aacute
Encoding: 193 193 118
Width: 599
GlyphClass: 2
Flags: W
HStem: 155 63<200 386>
LayerCount: 2
Fore
SplineSet
30 10 m 1,0,-1
 293 567 l 1,1,-1
 557 10 l 1,2,-1
 486 10 l 1,3,-1
 418 149 l 1,4,-1
 416 155 l 1,5,-1
 410 155 l 1,6,-1
 177 155 l 1,7,-1
 171 155 l 1,8,-1
 169 149 l 1,9,-1
 101 10 l 1,10,-1
 30 10 l 1,0,-1
200 218 m 1,11,-1
 215 218 l 1,12,-1
 370 218 l 1,13,-1
 386 218 l 1,14,-1
 379 232 l 1,15,-1
 301 397 l 1,16,-1
 293 415 l 1,17,-1
 285 397 l 1,18,-1
 207 232 l 1,19,-1
 200 218 l 1,11,-1
306 723 m 1,20,-1
 348 723 l 1,21,-1
 280 651 l 1,22,-1
 238 651 l 1,23,-1
 306 723 l 1,20,-1
EndSplineSet
Validated: 1
EndChar

StartChar: Acircumflex
Encoding: 194 194 119
Width: 599
GlyphClass: 2
Flags: W
HStem: 155 63<201 386> 578 21G<164.034 209.825 376.175 422.333>
LayerCount: 2
Fore
SplineSet
30 10 m 1,0,-1
 293 567 l 1,1,-1
 557 10 l 1,2,-1
 486 10 l 1,3,-1
 418 149 l 1,4,-1
 416 155 l 1,5,-1
 410 155 l 1,6,-1
 177 155 l 1,7,-1
 171 155 l 1,8,-1
 169 149 l 1,9,-1
 101 10 l 1,10,-1
 30 10 l 1,0,-1
201 218 m 1,11,-1
 216 218 l 1,12,-1
 370 218 l 1,13,-1
 386 218 l 1,14,-1
 379 232 l 1,15,-1
 301 397 l 1,16,-1
 293 415 l 1,17,-1
 284 397 l 1,18,-1
 208 232 l 1,19,-1
 201 218 l 1,11,-1
293 643 m 1,20,-1
 289 641 l 1,21,-1
 173 578 l 1,22,-1
 160 607 l 1,23,-1
 293 679 l 1,24,-1
 427 608 l 1,25,-1
 413 578 l 1,26,-1
 297 641 l 1,27,-1
 293 643 l 1,20,-1
EndSplineSet
Validated: 1
EndChar

StartChar: Atilde
Encoding: 195 195 120
Width: 599
GlyphClass: 2
Flags: W
HStem: 155 63<201 386> 594 31<315.88 386.009> 662 32<199.063 272.014>
LayerCount: 2
Fore
SplineSet
235 662 m 0,0,1
 219 662 219 662 207 653 c 0,2,3
 200 648 200 648 194.5 641.5 c 128,-1,4
 189 635 189 635 186 628 c 1,5,-1
 157 635 l 1,6,7
 166 663 166 663 191 681 c 0,8,9
 211 694 211 694 235 694 c 0,10,11
 241 694 241 694 255 692 c 0,12,13
 272 688 272 688 284 678.5 c 128,-1,14
 296 669 296 669 306 653 c 0,15,16
 319 632 319 632 339 627 c 0,17,18
 343 626 343 626 345.5 625.5 c 128,-1,19
 348 625 348 625 351 625 c 0,20,21
 367 625 367 625 379 635 c 0,22,23
 393 644 393 644 400 660 c 1,24,-1
 429 653 l 1,25,26
 420 623 420 623 395 608 c 0,27,-1
 394 607 l 2,28,29
 375 594 375 594 351 594 c 0,30,31
 345 594 345 594 340 594.5 c 128,-1,32
 335 595 335 595 333 596 c 2,33,34
 299 604 299 604 280 635 c 0,35,36
 270 654 270 654 246 661 c 0,37,38
 243 662 243 662 235 662 c 0,0,1
201 218 m 1,39,-1
 216 218 l 1,40,-1
 370 218 l 1,41,-1
 386 218 l 1,42,-1
 379 232 l 1,43,-1
 301 397 l 1,44,-1
 293 415 l 1,45,-1
 284 397 l 1,46,-1
 208 232 l 1,47,-1
 201 218 l 1,39,-1
30 10 m 1,48,-1
 293 567 l 1,49,-1
 557 10 l 1,50,-1
 486 10 l 1,51,-1
 418 149 l 1,52,-1
 416 155 l 1,53,-1
 410 155 l 1,54,-1
 177 155 l 1,55,-1
 171 155 l 1,56,-1
 169 149 l 1,57,-1
 101 10 l 1,58,-1
 30 10 l 1,48,-1
EndSplineSet
Validated: 1
EndChar

StartChar: Adieresis
Encoding: 196 196 121
Width: 599
GlyphClass: 2
Flags: W
HStem: 155 63<201 386> 625 72<202.313 249.202 329.1 384.687>
VStem: 192 67<635.829 686.171> 327 68<627.143 686.171>
LayerCount: 2
Fore
SplineSet
30 10 m 1,0,-1
 293 567 l 1,1,-1
 557 10 l 1,2,-1
 486 10 l 1,3,-1
 418 149 l 1,4,-1
 416 155 l 1,5,-1
 410 155 l 1,6,-1
 177 155 l 1,7,-1
 171 155 l 1,8,-1
 169 149 l 1,9,-1
 101 10 l 1,10,-1
 30 10 l 1,0,-1
201 218 m 1,11,-1
 216 218 l 1,12,-1
 370 218 l 1,13,-1
 386 218 l 1,14,-1
 379 232 l 1,15,-1
 301 397 l 1,16,-1
 293 415 l 1,17,-1
 284 397 l 1,18,-1
 208 232 l 1,19,-1
 201 218 l 1,11,-1
374 627.5 m 128,-1,21
 368 625 368 625 361 625 c 0,22,23
 356 625 356 625 352 626 c 128,-1,24
 348 627 348 627 344 630 c 0,25,26
 341 632 341 632 339 633.5 c 128,-1,27
 337 635 337 635 335 637.5 c 128,-1,28
 333 640 333 640 331 643 c 0,29,30
 326 651 326 651 327 661 c 0,31,32
 327 664 327 664 327 666 c 128,-1,33
 327 668 327 668 327.5 670.5 c 128,-1,34
 328 673 328 673 329 675 c 128,-1,35
 330 677 330 677 331 679 c 0,36,37
 336 687 336 687 344 692 c 0,38,39
 348 694 348 694 352 695.5 c 128,-1,40
 356 697 356 697 361 697 c 0,41,42
 375 697 375 697 385 686.5 c 128,-1,43
 395 676 395 676 395 661 c 0,44,45
 395 657 395 657 394.5 653.5 c 128,-1,46
 394 650 394 650 392.5 647 c 128,-1,47
 391 644 391 644 389 641 c 128,-1,48
 387 638 387 638 385 636 c 0,49,20
 380 630 380 630 374 627.5 c 128,-1,21
238.5 627.5 m 128,-1,51
 233 625 233 625 226 625 c 0,52,53
 212 625 212 625 202 635.5 c 128,-1,54
 192 646 192 646 192 661 c 0,55,56
 192 665 192 665 192.5 668.5 c 128,-1,57
 193 672 193 672 194.5 675 c 128,-1,58
 196 678 196 678 197.5 681 c 128,-1,59
 199 684 199 684 202 686 c 0,60,61
 207 691 207 691 212.5 694 c 128,-1,62
 218 697 218 697 226 697 c 0,63,64
 240 697 240 697 249.5 686.5 c 128,-1,65
 259 676 259 676 259 661 c 0,66,67
 259 657 259 657 258.5 653.5 c 128,-1,68
 258 650 258 650 257 647 c 128,-1,69
 256 644 256 644 254 641 c 128,-1,70
 252 638 252 638 249 636 c 0,71,50
 244 630 244 630 238.5 627.5 c 128,-1,51
EndSplineSet
Validated: 1
EndChar

StartChar: Aring
Encoding: 197 197 122
Width: 599
GlyphClass: 2
Flags: W
HStem: 155 63<200 386> 717 32<256.75 329.941>
VStem: 211 30<620.826 700.218> 346 30<621.002 699.462>
LayerCount: 2
Fore
SplineSet
304 574 m 2,0,-1
 294 572 l 1,1,-1
 283 574 l 2,2,3
 263 577 263 577 246.5 589 c 128,-1,4
 230 601 230 601 220 620 c 0,5,6
 215 629 215 629 213 639.5 c 128,-1,7
 211 650 211 650 211 661 c 0,8,9
 211 698 211 698 235 723.5 c 128,-1,10
 259 749 259 749 293 749 c 0,11,12
 310 749 310 749 324.5 742.5 c 128,-1,13
 339 736 339 736 351.5 723 c 128,-1,14
 364 710 364 710 370 695 c 128,-1,15
 376 680 376 680 376 661 c 0,16,17
 376 650 376 650 373.5 640 c 128,-1,18
 371 630 371 630 366.5 621 c 128,-1,19
 362 612 362 612 355 603 c 0,20,21
 344 590 344 590 331.5 583 c 128,-1,22
 319 576 319 576 304 574 c 2,0,-1
290 560 m 1,23,-1
 293 567 l 1,24,-1
 297 560 l 1,25,-1
 557 10 l 1,26,-1
 486 10 l 1,27,-1
 418 149 l 1,28,-1
 415 155 l 1,29,-1
 410 155 l 1,30,-1
 177 155 l 1,31,-1
 171 155 l 1,32,-1
 169 149 l 1,33,-1
 101 10 l 1,34,-1
 30 10 l 1,35,-1
 290 560 l 1,23,-1
242.5 676 m 128,-1,37
 241 669 241 669 241 661 c 0,38,39
 241 645 241 645 247.5 632.5 c 128,-1,40
 254 620 254 620 267 612 c 0,41,42
 273 608 273 608 279.5 606.5 c 128,-1,43
 286 605 286 605 293 605 c 0,44,45
 297 605 297 605 300.5 605.5 c 128,-1,46
 304 606 304 606 307 607 c 128,-1,47
 310 608 310 608 313.5 609.5 c 128,-1,48
 317 611 317 611 320 612.5 c 128,-1,49
 323 614 323 614 325.5 616.5 c 128,-1,50
 328 619 328 619 331 621 c 0,51,52
 339 629 339 629 342.5 639.5 c 128,-1,53
 346 650 346 650 346 661 c 0,54,55
 346 684 346 684 330.5 700.5 c 128,-1,56
 315 717 315 717 293 717 c 0,57,58
 286 717 286 717 279.5 715 c 128,-1,59
 273 713 273 713 267 709.5 c 128,-1,60
 261 706 261 706 256 700.5 c 128,-1,61
 251 695 251 695 247.5 689 c 128,-1,36
 244 683 244 683 242.5 676 c 128,-1,37
200 218 m 1,62,-1
 215 218 l 1,63,-1
 370 218 l 1,64,-1
 386 218 l 1,65,-1
 379 232 l 1,66,-1
 301 397 l 1,67,-1
 293 415 l 1,68,-1
 285 397 l 1,69,-1
 207 232 l 1,70,-1
 200 218 l 1,62,-1
EndSplineSet
Validated: 1
EndChar

StartChar: AE
Encoding: 198 198 123
Width: 783
GlyphClass: 2
Flags: W
HStem: 10 63<470 742> 157 62<228 409> 258 63<470 742> 516 63<470 742>
VStem: 409 61<73 157 219 258 321 480>
LayerCount: 2
Fore
SplineSet
742 579 m 1,0,-1
 742 516 l 1,1,-1
 480 516 l 1,2,-1
 470 516 l 1,3,-1
 470 506 l 1,4,-1
 470 332 l 1,5,-1
 470 321 l 1,6,-1
 480 321 l 1,7,-1
 742 321 l 1,8,-1
 742 258 l 1,9,-1
 480 258 l 1,10,-1
 470 258 l 1,11,-1
 470 248 l 1,12,-1
 470 83 l 1,13,-1
 470 73 l 1,14,-1
 480 73 l 1,15,-1
 742 73 l 1,16,-1
 742 10 l 1,17,-1
 409 10 l 1,18,-1
 409 147 l 1,19,-1
 409 157 l 1,20,-1
 400 157 l 1,21,-1
 188 157 l 1,22,-1
 183 157 l 1,23,-1
 181 153 l 1,24,-1
 75 10 l 1,25,-1
 -3 10 l 1,26,-1
 405 579 l 1,27,-1
 742 579 l 1,0,-1
409 219 m 1,28,-1
 409 229 l 1,29,-1
 409 450 l 1,30,-1
 409 480 l 1,31,-1
 392 456 l 1,32,-1
 239 236 l 1,33,-1
 228 219 l 1,34,-1
 247 219 l 1,35,-1
 400 219 l 1,36,-1
 409 219 l 1,28,-1
EndSplineSet
Validated: 1
EndChar

StartChar: Ccedilla
Encoding: 199 199 124
Width: 514
GlyphClass: 2
Flags: W
HStem: -157 32<250.407 323.906> -11 62<265 386.413> 503 63<211.182 386.551>
VStem: 30 63<178.26 377.256> 333 28<-112.879 -68.701>
LayerCount: 2
Fore
SplineSet
319 -11 m 1,0,-1
 272 -11 l 1,1,-1
 265 -10 l 2,2,3
 169 3 169 3 100 86 c 0,4,5
 30 168 30 168 30 279 c 0,6,7
 30 340 30 340 50.5 391 c 128,-1,8
 71 442 71 442 112 484 c 0,9,10
 190 566 190 566 295 566 c 0,11,12
 321 566 321 566 344 561 c 0,13,14
 368 556 368 556 392.5 547 c 128,-1,15
 417 538 417 538 438.5 524 c 128,-1,16
 460 510 460 510 480 492 c 1,17,-1
 435 447 l 1,18,19
 374 503 374 503 295 503 c 0,20,21
 214 503 214 503 156 437 c 0,22,23
 93 371 93 371 93 277.5 c 128,-1,24
 93 184 93 184 156 117 c 0,25,26
 214 51 214 51 295 51 c 0,27,28
 374 51 374 51 435 107 c 1,29,-1
 480 62 l 1,30,31
 409 -3 409 -3 319 -11 c 1,0,-1
272 -25 m 1,32,-1
 278 -15 l 1,33,-1
 316 -30 l 2,34,35
 325 -34 325 -34 336 -42 c 0,36,37
 361 -60 361 -60 361 -91 c 0,38,39
 361 -105 361 -105 355 -117.5 c 128,-1,40
 349 -130 349 -130 336 -140 c 0,41,42
 324 -149 324 -149 310 -153 c 128,-1,43
 296 -157 296 -157 281 -157 c 0,44,45
 268 -157 268 -157 256 -154 c 128,-1,46
 244 -151 244 -151 233 -145 c 1,47,-1
 250 -118 l 1,48,49
 263 -125 263 -125 281 -125 c 0,50,51
 287 -125 287 -125 292 -124 c 128,-1,52
 297 -123 297 -123 302 -121.5 c 128,-1,53
 307 -120 307 -120 311 -118 c 128,-1,54
 315 -116 315 -116 319 -113 c 0,55,56
 326 -108 326 -108 329.5 -103 c 128,-1,57
 333 -98 333 -98 333 -91 c 128,-1,58
 333 -84 333 -84 329 -78 c 128,-1,59
 325 -72 325 -72 318 -68 c 0,60,61
 302 -56 302 -56 281 -56 c 2,62,-1
 254 -56 l 1,63,-1
 272 -25 l 1,32,-1
EndSplineSet
Validated: 1
EndChar

StartChar: Egrave
Encoding: 200 200 125
Width: 382
GlyphClass: 2
Flags: W
HStem: 10 63<93 352> 258 63<93 352> 516 63<93 352>
VStem: 30 63<73 258 321 516>
LayerCount: 2
Fore
SplineSet
352 579 m 1,0,-1
 352 516 l 1,1,-1
 103 516 l 1,2,-1
 93 516 l 1,3,-1
 93 506 l 1,4,-1
 93 332 l 1,5,-1
 93 321 l 1,6,-1
 103 321 l 1,7,-1
 352 321 l 1,8,-1
 352 258 l 1,9,-1
 103 258 l 1,10,-1
 93 258 l 1,11,-1
 93 248 l 1,12,-1
 93 83 l 1,13,-1
 93 73 l 1,14,-1
 103 73 l 1,15,-1
 352 73 l 1,16,-1
 352 10 l 1,17,-1
 30 10 l 1,18,-1
 30 579 l 1,19,-1
 352 579 l 1,0,-1
180 723 m 1,20,-1
 240 650 l 1,21,-1
 202 650 l 1,22,-1
 142 723 l 1,23,-1
 180 723 l 1,20,-1
EndSplineSet
Validated: 1
EndChar

StartChar: Eacute
Encoding: 201 201 126
Width: 382
GlyphClass: 2
Flags: W
HStem: 10 63<93 352> 258 63<93 352> 516 63<93 352>
VStem: 30 63<73 258 321 516>
LayerCount: 2
Fore
SplineSet
352 579 m 1,0,-1
 352 516 l 1,1,-1
 103 516 l 1,2,-1
 93 516 l 1,3,-1
 93 506 l 1,4,-1
 93 332 l 1,5,-1
 93 321 l 1,6,-1
 103 321 l 1,7,-1
 352 321 l 1,8,-1
 352 258 l 1,9,-1
 103 258 l 1,10,-1
 93 258 l 1,11,-1
 93 248 l 1,12,-1
 93 83 l 1,13,-1
 93 73 l 1,14,-1
 103 73 l 1,15,-1
 352 73 l 1,16,-1
 352 10 l 1,17,-1
 30 10 l 1,18,-1
 30 579 l 1,19,-1
 352 579 l 1,0,-1
202 723 m 1,20,-1
 240 723 l 1,21,-1
 180 650 l 1,22,-1
 142 650 l 1,23,-1
 202 723 l 1,20,-1
EndSplineSet
Validated: 1
EndChar

StartChar: Ecircumflex
Encoding: 202 202 127
Width: 382
GlyphClass: 2
Flags: W
HStem: 10 63<93 352> 258 63<93 352> 516 63<93 352>
VStem: 30 63<73 258 321 516>
LayerCount: 2
Fore
SplineSet
352 579 m 1,0,-1
 352 516 l 1,1,-1
 103 516 l 1,2,-1
 93 516 l 1,3,-1
 93 506 l 1,4,-1
 93 332 l 1,5,-1
 93 321 l 1,6,-1
 103 321 l 1,7,-1
 352 321 l 1,8,-1
 352 258 l 1,9,-1
 103 258 l 1,10,-1
 93 258 l 1,11,-1
 93 248 l 1,12,-1
 93 83 l 1,13,-1
 93 73 l 1,14,-1
 103 73 l 1,15,-1
 352 73 l 1,16,-1
 352 10 l 1,17,-1
 30 10 l 1,18,-1
 30 579 l 1,19,-1
 352 579 l 1,0,-1
191 686 m 1,20,-1
 187 684 l 1,21,-1
 72 622 l 1,22,-1
 58 651 l 1,23,-1
 191 722 l 1,24,-1
 324 651 l 1,25,-1
 310 622 l 1,26,-1
 195 684 l 1,27,-1
 191 686 l 1,20,-1
EndSplineSet
Validated: 1
EndChar

StartChar: Edieresis
Encoding: 203 203 128
Width: 382
GlyphClass: 2
Flags: W
HStem: 10 63<93 352> 258 63<93 352> 516 63<93 352> 625 72<94.6378 153.655 222.345 278.655>
VStem: 30 63<73 258 321 516> 92 70<627.824 685.656> 220 70<628 686.171>
LayerCount: 2
Fore
SplineSet
352 579 m 1,0,-1
 352 516 l 1,1,-1
 103 516 l 1,2,-1
 93 516 l 1,3,-1
 93 506 l 1,4,-1
 93 332 l 1,5,-1
 93 321 l 1,6,-1
 103 321 l 1,7,-1
 352 321 l 1,8,-1
 352 258 l 1,9,-1
 103 258 l 1,10,-1
 93 258 l 1,11,-1
 93 248 l 1,12,-1
 93 83 l 1,13,-1
 93 73 l 1,14,-1
 103 73 l 1,15,-1
 352 73 l 1,16,-1
 352 10 l 1,17,-1
 30 10 l 1,18,-1
 30 579 l 1,19,-1
 352 579 l 1,0,-1
267 627.5 m 128,-1,21
 261 625 261 625 253 625 c 0,22,23
 248 625 248 625 243.5 626 c 128,-1,24
 239 627 239 627 235 630 c 0,25,26
 228 635 228 635 224 643 c 128,-1,27
 220 651 220 651 220 661 c 0,28,29
 220 665 220 665 220.5 668.5 c 128,-1,30
 221 672 221 672 222 675 c 128,-1,31
 223 678 223 678 224.5 681 c 128,-1,32
 226 684 226 684 228 686 c 0,33,34
 233 691 233 691 239 694 c 128,-1,35
 245 697 245 697 253 697 c 0,36,37
 268 697 268 697 279 686.5 c 128,-1,38
 290 676 290 676 290 661 c 0,39,40
 290 656 290 656 289 651.5 c 128,-1,41
 288 647 288 647 285.5 643 c 128,-1,42
 283 639 283 639 279 636 c 0,43,20
 273 630 273 630 267 627.5 c 128,-1,21
142.5 627.5 m 128,-1,45
 136 625 136 625 128 625 c 0,46,47
 125 625 125 625 122 625.5 c 128,-1,48
 119 626 119 626 116 627 c 128,-1,49
 113 628 113 628 110 630 c 0,50,51
 101 635 101 635 96.5 643 c 128,-1,52
 92 651 92 651 92 661 c 0,53,54
 92 665 92 665 92.5 668.5 c 128,-1,55
 93 672 93 672 94.5 675 c 128,-1,56
 96 678 96 678 98 681 c 128,-1,57
 100 684 100 684 103 686 c 0,58,59
 108 691 108 691 114 694 c 0,60,61
 120 697 120 697 128 697 c 0,62,63
 143 697 143 697 154 686 c 0,64,65
 162 675 162 675 162 661 c 0,66,67
 162 653 162 653 160 647 c 128,-1,68
 158 641 158 641 153.5 635.5 c 128,-1,44
 149 630 149 630 142.5 627.5 c 128,-1,45
EndSplineSet
Validated: 1
EndChar

StartChar: Igrave
Encoding: 204 204 129
Width: 207
GlyphClass: 2
Flags: W
HStem: 20 21G<58 120> 559 20G<58 120>
VStem: 58 62<20 579>
LayerCount: 2
Fore
SplineSet
120 579 m 1,0,-1
 120 20 l 1,1,-1
 58 20 l 1,2,-1
 58 579 l 1,3,-1
 120 579 l 1,0,-1
75 723 m 1,4,-1
 148 650 l 1,5,-1
 103 650 l 1,6,-1
 30 723 l 1,7,-1
 75 723 l 1,4,-1
EndSplineSet
Validated: 1
EndChar

StartChar: Iacute
Encoding: 205 205 130
Width: 207
GlyphClass: 2
Flags: W
HStem: 20 21G<57 120> 559 20G<57 120>
VStem: 57 63<20 579>
LayerCount: 2
Fore
SplineSet
120 579 m 1,0,-1
 120 20 l 1,1,-1
 57 20 l 1,2,-1
 57 579 l 1,3,-1
 120 579 l 1,0,-1
103 723 m 1,4,-1
 148 723 l 1,5,-1
 75 650 l 1,6,-1
 30 650 l 1,7,-1
 103 723 l 1,4,-1
EndSplineSet
Validated: 1
EndChar

StartChar: Icircumflex
Encoding: 206 206 131
Width: 353
GlyphClass: 2
Flags: W
HStem: 20 21G<141 204> 559 20G<141 204>
VStem: 141 63<20 579>
LayerCount: 2
Fore
SplineSet
30 651 m 1,0,-1
 173 722 l 1,1,-1
 315 651 l 1,2,-1
 301 622 l 1,3,-1
 177 684 l 1,4,-1
 173 686 l 1,5,-1
 168 684 l 1,6,-1
 44 622 l 1,7,-1
 30 651 l 1,0,-1
204 579 m 1,8,-1
 204 20 l 1,9,-1
 141 20 l 1,10,-1
 141 579 l 1,11,-1
 204 579 l 1,8,-1
EndSplineSet
Validated: 1
EndChar

StartChar: Idieresis
Encoding: 207 207 132
Width: 278
GlyphClass: 2
Flags: W
HStem: 20 21G<107 170> 559 20G<107 170> 625 72<40.8292 91.6553 185.829 244.417>
VStem: 30 73<635.829 686.171> 107 63<20 579> 175 72<635.829 693.979>
LayerCount: 2
Fore
SplineSet
220.5 626 m 128,-1,1
 216 625 216 625 211 625 c 0,2,3
 196 625 196 625 185.5 635.5 c 128,-1,4
 175 646 175 646 175 661 c 0,5,6
 175 665 175 665 175.5 668.5 c 128,-1,7
 176 672 176 672 177.5 675 c 128,-1,8
 179 678 179 678 181 681 c 128,-1,9
 183 684 183 684 186 686 c 0,10,11
 191 691 191 691 197 694 c 128,-1,12
 203 697 203 697 211 697 c 0,13,14
 216 697 216 697 220.5 696 c 128,-1,15
 225 695 225 695 229.5 692.5 c 128,-1,16
 234 690 234 690 237 687 c 128,-1,17
 240 684 240 684 242 680 c 0,18,19
 247 672 247 672 247 661 c 0,20,21
 247 653 247 653 244.5 647 c 128,-1,22
 242 641 242 641 236 636 c 0,23,24
 232 632 232 632 228.5 629.5 c 128,-1,0
 225 627 225 627 220.5 626 c 128,-1,1
80.5 627.5 m 128,-1,26
 74 625 74 625 66 625 c 0,27,28
 51 625 51 625 40.5 635.5 c 128,-1,29
 30 646 30 646 30 661 c 0,30,31
 30 669 30 669 32.5 675 c 128,-1,32
 35 681 35 681 40.5 686.5 c 128,-1,33
 46 692 46 692 52 694 c 0,34,35
 58 696 58 696 66 697 c 0,36,37
 81 697 81 697 92 686.5 c 128,-1,38
 103 676 103 676 103 661 c 0,39,40
 103 653 103 653 100.5 647 c 128,-1,41
 98 641 98 641 92.5 635.5 c 128,-1,25
 87 630 87 630 80.5 627.5 c 128,-1,26
170 579 m 1,42,-1
 170 20 l 1,43,-1
 107 20 l 1,44,-1
 107 579 l 1,45,-1
 170 579 l 1,42,-1
EndSplineSet
Validated: 1
EndChar

StartChar: Eth
Encoding: 208 208 133
Width: 608
GlyphClass: 2
Flags: W
HStem: 10 63<171 396.949> 258 63<30 110 171 290> 516 63<171 397.441>
VStem: 110 61<73 258 321 516> 515 62<194.661 392.766>
LayerCount: 2
Fore
SplineSet
306 579 m 1,0,-1
 308 579 l 2,1,2
 417 579 417 579 495 497 c 0,3,4
 577 411 577 411 577 290 c 0,5,6
 577 173 577 173 495 92 c 0,7,8
 416 10 416 10 308 10 c 2,9,-1
 307 10 l 1,10,-1
 306 10 l 1,11,-1
 110 10 l 1,12,-1
 110 248 l 1,13,-1
 110 258 l 1,14,-1
 100 258 l 1,15,-1
 30 258 l 1,16,-1
 30 321 l 1,17,-1
 100 321 l 1,18,-1
 110 321 l 1,19,-1
 110 331 l 1,20,-1
 110 579 l 1,21,-1
 306 579 l 1,0,-1
307 73 m 1,22,-1
 308 73 l 2,23,24
 336 73 336 73 361 80 c 128,-1,25
 386 87 386 87 409 101 c 128,-1,26
 432 115 432 115 451 136 c 0,27,28
 515 200 515 200 515 291 c 0,29,30
 515 322 515 322 508 351 c 128,-1,31
 501 380 501 380 487 405 c 128,-1,32
 473 430 473 430 452 453 c 0,33,34
 422 485 422 485 386 500.5 c 128,-1,35
 350 516 350 516 308 516 c 2,36,-1
 307 516 l 1,37,-1
 306 516 l 1,38,-1
 180 516 l 1,39,-1
 171 516 l 1,40,-1
 171 506 l 1,41,-1
 171 332 l 1,42,-1
 171 321 l 1,43,-1
 180 321 l 1,44,-1
 290 321 l 1,45,-1
 290 258 l 1,46,-1
 180 258 l 1,47,-1
 171 258 l 1,48,-1
 171 248 l 1,49,-1
 171 83 l 1,50,-1
 171 73 l 1,51,-1
 180 73 l 1,52,-1
 306 73 l 1,53,-1
 307 73 l 1,22,-1
EndSplineSet
Validated: 1
EndChar

StartChar: Ntilde
Encoding: 209 209 134
Width: 481
GlyphClass: 2
Flags: W
HStem: 21 21G<30 93> 559 20G<389 451> 611 32<263.501 335.551> 679 32<149.614 221.823>
VStem: 30 63<21 412> 389 62<188 579>
LayerCount: 2
Fore
SplineSet
389 212 m 1,0,-1
 389 579 l 1,1,-1
 451 579 l 1,2,-1
 451 34 l 1,3,-1
 110 395 l 1,4,-1
 93 412 l 1,5,-1
 93 388 l 1,6,-1
 93 21 l 1,7,-1
 30 21 l 1,8,-1
 30 566 l 1,9,-1
 96 501 l 1,10,-1
 137 460 l 1,11,-1
 373 205 l 1,12,-1
 389 188 l 1,13,-1
 389 212 l 1,0,-1
186 679 m 0,14,15
 170 679 170 679 158 670 c 0,16,17
 144 661 144 661 136 645 c 1,18,-1
 104 652 l 1,19,20
 114 680 114 680 141 698 c 0,21,22
 162 711 162 711 185 711 c 0,23,24
 187 711 187 711 190 711 c 128,-1,25
 193 711 193 711 196.5 710.5 c 128,-1,26
 200 710 200 710 205 709 c 0,27,28
 213 707 213 707 220 703.5 c 128,-1,29
 227 700 227 700 233.5 695 c 128,-1,30
 240 690 240 690 245 684 c 128,-1,31
 250 678 250 678 255 670 c 0,32,33
 267 650 267 650 288 644 c 0,34,35
 293 643 293 643 299 643 c 0,36,37
 303 643 303 643 307 643.5 c 128,-1,38
 311 644 311 644 314.5 645 c 128,-1,39
 318 646 318 646 321.5 648 c 128,-1,40
 325 650 325 650 327 652 c 0,41,42
 341 661 341 661 348 677 c 1,43,-1
 377 670 l 1,44,45
 368 642 368 642 344 624 c 0,46,47
 324 611 324 611 299 611 c 0,48,49
 293 611 293 611 281 613 c 0,50,51
 248 621 248 621 230 652 c 0,52,53
 220 671 220 671 195 678 c 0,54,55
 190 679 190 679 186 679 c 0,14,15
EndSplineSet
Validated: 1
EndChar

StartChar: Ograve
Encoding: 210 210 135
Width: 599
GlyphClass: 2
Flags: W
HStem: 20 63<210.228 389.087> 516 63<210.474 389.764>
VStem: 30 63<204.371 395.697> 506 63<204.413 395.738>
LayerCount: 2
Fore
SplineSet
112 497 m 0,0,1
 191 579 191 579 299 579 c 0,2,3
 353 579 353 579 399.5 558.5 c 128,-1,4
 446 538 446 538 487 497 c 128,-1,5
 528 456 528 456 548.5 406.5 c 128,-1,6
 569 357 569 357 569 299 c 0,7,8
 569 183 569 183 487 102 c 0,9,10
 408 20 408 20 299 20 c 128,-1,11
 190 20 190 20 112 102 c 0,12,13
 30 184 30 184 30 299 c 0,14,15
 30 328 30 328 35 355 c 128,-1,16
 40 382 40 382 50.5 406.5 c 128,-1,17
 61 431 61 431 76.5 453.5 c 128,-1,18
 92 476 92 476 112 497 c 0,0,1
156 146 m 0,19,20
 216 83 216 83 300 83 c 0,21,22
 342 83 342 83 377.5 99 c 128,-1,23
 413 115 413 115 443 146 c 0,24,25
 506 210 506 210 506 300 c 0,26,27
 506 330 506 330 499 356.5 c 128,-1,28
 492 383 492 383 478 407.5 c 128,-1,29
 464 432 464 432 443 453 c 0,30,31
 413 484 413 484 377 500 c 0,32,33
 342 516 342 516 300 516 c 0,34,35
 216 516 216 516 156 453 c 0,36,37
 93 390 93 390 93 299.5 c 128,-1,38
 93 209 93 209 156 146 c 0,19,20
286 723 m 1,39,-1
 354 650 l 1,40,-1
 312 650 l 1,41,-1
 244 723 l 1,42,-1
 286 723 l 1,39,-1
EndSplineSet
Validated: 1
EndChar

StartChar: Oacute
Encoding: 211 211 136
Width: 599
GlyphClass: 2
Flags: W
HStem: 20 63<210.141 388.915> 516 63<210.141 389.218>
VStem: 30 63<204.282 393.727> 506 63<204.327 394.402>
LayerCount: 2
Fore
SplineSet
312 723 m 1,0,-1
 354 723 l 1,1,-1
 286 650 l 1,2,-1
 244 650 l 1,3,-1
 312 723 l 1,0,-1
156 146 m 0,4,5
 215 83 215 83 299 83 c 0,6,7
 341 83 341 83 377 99 c 128,-1,8
 413 115 413 115 443 146 c 0,9,10
 506 209 506 209 506 299 c 0,11,12
 506 329 506 329 499 356 c 128,-1,13
 492 383 492 383 477.5 407 c 128,-1,14
 463 431 463 431 443 452 c 0,15,16
 413 484 413 484 377 500 c 128,-1,17
 341 516 341 516 299 516 c 0,18,19
 215 516 215 516 156 452 c 0,20,21
 93 388 93 388 93 298.5 c 128,-1,22
 93 209 93 209 156 146 c 0,4,5
112 497 m 0,23,24
 191 579 191 579 299 579 c 0,25,26
 353 579 353 579 399.5 558.5 c 128,-1,27
 446 538 446 538 487 497 c 128,-1,28
 528 456 528 456 548.5 406.5 c 128,-1,29
 569 357 569 357 569 299 c 0,30,31
 569 184 569 184 487 102 c 0,32,33
 408 20 408 20 299 20 c 0,34,35
 191 20 191 20 112 102 c 0,36,37
 30 184 30 184 30 299 c 0,38,39
 30 415 30 415 112 497 c 0,23,24
EndSplineSet
Validated: 1
EndChar

StartChar: Ocircumflex
Encoding: 212 212 137
Width: 599
GlyphClass: 2
Flags: W
HStem: 20 63<210.228 389.087> 516 63<210.474 389.764>
VStem: 30 63<204.371 395.697> 506 63<204.413 395.738>
LayerCount: 2
Fore
SplineSet
112 497 m 0,0,1
 191 579 191 579 299 579 c 0,2,3
 353 579 353 579 399.5 558.5 c 128,-1,4
 446 538 446 538 487 497 c 128,-1,5
 528 456 528 456 548.5 406.5 c 128,-1,6
 569 357 569 357 569 299 c 0,7,8
 569 183 569 183 487 102 c 0,9,10
 408 20 408 20 299 20 c 128,-1,11
 190 20 190 20 112 102 c 0,12,13
 30 184 30 184 30 299 c 0,14,15
 30 328 30 328 35 355 c 128,-1,16
 40 382 40 382 50.5 406.5 c 128,-1,17
 61 431 61 431 76.5 453.5 c 128,-1,18
 92 476 92 476 112 497 c 0,0,1
156 146 m 0,19,20
 216 83 216 83 300 83 c 0,21,22
 342 83 342 83 377.5 99 c 128,-1,23
 413 115 413 115 443 146 c 0,24,25
 506 210 506 210 506 300 c 0,26,27
 506 330 506 330 499 356.5 c 128,-1,28
 492 383 492 383 478 407.5 c 128,-1,29
 464 432 464 432 443 453 c 0,30,31
 413 484 413 484 377 500 c 0,32,33
 342 516 342 516 300 516 c 0,34,35
 216 516 216 516 156 453 c 0,36,37
 93 390 93 390 93 299.5 c 128,-1,38
 93 209 93 209 156 146 c 0,19,20
299 686 m 1,39,-1
 295 684 l 1,40,-1
 179 622 l 1,41,-1
 165 651 l 1,42,-1
 299 722 l 1,43,-1
 433 651 l 1,44,-1
 420 622 l 1,45,-1
 303 684 l 1,46,-1
 299 686 l 1,39,-1
EndSplineSet
Validated: 1
EndChar

StartChar: Otilde
Encoding: 213 213 138
Width: 599
GlyphClass: 2
Flags: W
HStem: 20 63<210.141 388.871> 516 63<210.141 389.218> 611 32<320.299 394.326> 679 32<204.059 278.014>
VStem: 30 63<204.282 393.727> 506 63<204.327 394.402>
LayerCount: 2
Fore
SplineSet
112 497 m 0,0,1
 191 579 191 579 299 579 c 0,2,3
 353 579 353 579 399.5 558.5 c 128,-1,4
 446 538 446 538 487 497 c 128,-1,5
 528 456 528 456 548.5 406.5 c 128,-1,6
 569 357 569 357 569 299 c 0,7,8
 569 184 569 184 487 102 c 0,9,10
 408 20 408 20 299 20 c 0,11,12
 191 20 191 20 112 102 c 0,13,14
 30 184 30 184 30 299 c 0,15,16
 30 415 30 415 112 497 c 0,0,1
156 146 m 0,17,18
 215 83 215 83 299 83 c 0,19,20
 327 83 327 83 352 90 c 128,-1,21
 377 97 377 97 400 111 c 128,-1,22
 423 125 423 125 442 146 c 0,23,24
 506 209 506 209 506 299 c 0,25,26
 506 329 506 329 499 356 c 128,-1,27
 492 383 492 383 477.5 407 c 128,-1,28
 463 431 463 431 443 452 c 0,29,30
 413 484 413 484 377 500 c 128,-1,31
 341 516 341 516 299 516 c 0,32,33
 215 516 215 516 156 452 c 0,34,35
 93 388 93 388 93 298.5 c 128,-1,36
 93 209 93 209 156 146 c 0,17,18
241 679 m 0,37,38
 226 679 226 679 213 670 c 0,39,40
 198 661 198 661 192 645 c 1,41,-1
 163 652 l 1,42,43
 172 680 172 680 197 698 c 0,44,45
 217 711 217 711 241 711 c 0,46,47
 247 711 247 711 261 709 c 0,48,49
 278 705 278 705 290 695.5 c 128,-1,50
 302 686 302 686 312 670 c 0,51,52
 316 663 316 663 321 658 c 128,-1,53
 326 653 326 653 332.5 649.5 c 128,-1,54
 339 646 339 646 345 644 c 0,55,56
 350 643 350 643 357 643 c 0,57,58
 373 643 373 643 386 652 c 0,59,60
 400 661 400 661 406 677 c 1,61,-1
 436 670 l 1,62,63
 434 664 434 664 431.5 658.5 c 128,-1,64
 429 653 429 653 426 648.5 c 128,-1,65
 423 644 423 644 419 639.5 c 128,-1,66
 415 635 415 635 410.5 631.5 c 128,-1,67
 406 628 406 628 401 624 c 0,68,69
 391 617 391 617 380.5 614 c 128,-1,70
 370 611 370 611 357 611 c 0,71,72
 355 611 355 611 352 611 c 128,-1,73
 349 611 349 611 345.5 611.5 c 128,-1,74
 342 612 342 612 338 613 c 0,75,76
 321 617 321 617 308.5 626.5 c 128,-1,77
 296 636 296 636 286 652 c 0,78,79
 276 671 276 671 252 678 c 0,80,81
 249 679 249 679 241 679 c 0,37,38
EndSplineSet
Validated: 1
EndChar

StartChar: Odieresis
Encoding: 214 214 139
Width: 599
GlyphClass: 2
Flags: W
HStem: 20 63<210.228 389.087> 516 63<210.474 389.764> 625 72<208.313 255.202 342.798 390.687>
VStem: 30 63<204.371 395.697> 198 67<635.829 686.171> 333 68<635.829 686.171> 506 63<204.413 395.738>
LayerCount: 2
Fore
SplineSet
112 497 m 0,0,1
 191 579 191 579 299 579 c 0,2,3
 353 579 353 579 399.5 558.5 c 128,-1,4
 446 538 446 538 487 497 c 128,-1,5
 528 456 528 456 548.5 406.5 c 128,-1,6
 569 357 569 357 569 299 c 0,7,8
 569 183 569 183 487 102 c 0,9,10
 408 20 408 20 299 20 c 128,-1,11
 190 20 190 20 112 102 c 0,12,13
 30 184 30 184 30 299 c 0,14,15
 30 328 30 328 35 355 c 128,-1,16
 40 382 40 382 50.5 406.5 c 128,-1,17
 61 431 61 431 76.5 453.5 c 128,-1,18
 92 476 92 476 112 497 c 0,0,1
156 146 m 0,19,20
 216 83 216 83 300 83 c 0,21,22
 342 83 342 83 377.5 99 c 128,-1,23
 413 115 413 115 443 146 c 0,24,25
 506 210 506 210 506 300 c 0,26,27
 506 330 506 330 499 356.5 c 128,-1,28
 492 383 492 383 478 407.5 c 128,-1,29
 464 432 464 432 443 453 c 0,30,31
 413 484 413 484 377 500 c 0,32,33
 342 516 342 516 300 516 c 0,34,35
 216 516 216 516 156 453 c 0,36,37
 93 390 93 390 93 299.5 c 128,-1,38
 93 209 93 209 156 146 c 0,19,20
372.5 625.5 m 128,-1,40
 370 625 370 625 367 625 c 0,41,42
 352 625 352 625 342.5 635.5 c 128,-1,43
 333 646 333 646 333 661 c 0,44,45
 333 663 333 663 333 665.5 c 128,-1,46
 333 668 333 668 334 670.5 c 128,-1,47
 335 673 335 673 336 675 c 0,48,49
 339 682 339 682 343 687 c 128,-1,50
 347 692 347 692 354 694 c 0,51,52
 356 695 356 695 357 695.5 c 128,-1,53
 358 696 358 696 360 696.5 c 128,-1,54
 362 697 362 697 364 697 c 128,-1,55
 366 697 366 697 367 697 c 0,56,57
 381 697 381 697 391 686.5 c 128,-1,58
 401 676 401 676 401 661 c 0,59,60
 401 659 401 659 401 657 c 128,-1,61
 401 655 401 655 400.5 653 c 128,-1,62
 400 651 400 651 399 649 c 0,63,64
 397 643 397 643 395 639 c 0,65,66
 394 637 394 637 392 635 c 0,67,68
 390 634 390 634 387 632 c 0,69,70
 386 631 386 631 384.5 630 c 128,-1,71
 383 629 383 629 381.5 628 c 128,-1,72
 380 627 380 627 378 627 c 0,73,39
 375 626 375 626 372.5 625.5 c 128,-1,40
244.5 627.5 m 128,-1,75
 239 625 239 625 232 625 c 0,76,77
 218 625 218 625 208 635.5 c 128,-1,78
 198 646 198 646 198 661 c 0,79,80
 198 665 198 665 198.5 668.5 c 128,-1,81
 199 672 199 672 200 675 c 128,-1,82
 201 678 201 678 203 681 c 128,-1,83
 205 684 205 684 208 686 c 0,84,85
 213 691 213 691 218.5 694 c 128,-1,86
 224 697 224 697 232 697 c 0,87,88
 246 697 246 697 255.5 686.5 c 128,-1,89
 265 676 265 676 265 661 c 0,90,91
 265 657 265 657 264.5 653.5 c 128,-1,92
 264 650 264 650 263 647 c 128,-1,93
 262 644 262 644 260 641 c 128,-1,94
 258 638 258 638 255 636 c 0,95,74
 250 630 250 630 244.5 627.5 c 128,-1,75
EndSplineSet
Validated: 1
EndChar

StartChar: multiply
Encoding: 215 215 140
Width: 384
GlyphClass: 2
Flags: W
VStem: 30 316
LayerCount: 2
Fore
SplineSet
346 386 m 1,0,-1
 229 262 l 1,1,-1
 222 255 l 1,2,-1
 229 248 l 1,3,-1
 346 125 l 1,4,-1
 301 81 l 1,5,-1
 193 204 l 1,6,-1
 188 211 l 1,7,-1
 182 204 l 1,8,-1
 75 81 l 1,9,-1
 30 125 l 1,10,-1
 146 248 l 1,11,-1
 152 255 l 1,12,-1
 146 262 l 1,13,-1
 30 386 l 1,14,-1
 75 430 l 1,15,-1
 182 314 l 1,16,-1
 188 307 l 1,17,-1
 193 314 l 1,18,-1
 301 430 l 1,19,-1
 346 386 l 1,0,-1
EndSplineSet
Validated: 1
EndChar

StartChar: Oslash
Encoding: 216 216 141
Width: 636
GlyphClass: 2
Flags: W
HStem: 38 63<223.719 403.529> 534 63<223.204 401.813>
VStem: 44 63<224.818 415.356> 520 63<219.856 411.513>
LayerCount: 2
Fore
SplineSet
575 611 m 1,0,-1
 597 589 l 1,1,-1
 519 510 l 1,2,-1
 512 504 l 1,3,-1
 518 497 l 2,4,5
 540 471 540 471 554 442.5 c 128,-1,6
 568 414 568 414 575.5 383 c 128,-1,7
 583 352 583 352 583 318 c 0,8,9
 583 202 583 202 501 120 c 0,10,11
 422 38 422 38 314 38 c 0,12,13
 218 38 218 38 144 104 c 2,14,-1
 137 110 l 1,15,-1
 131 103 l 1,16,-1
 53 24 l 1,17,-1
 30 47 l 1,18,-1
 109 125 l 1,19,-1
 115 131 l 1,20,-1
 109 138 l 2,21,22
 44 215 44 215 44 315 c 0,23,24
 44 316 44 316 44 318 c 0,25,26
 44 433 44 433 126 515 c 0,27,28
 205 597 205 597 314 597 c 0,29,30
 410 597 410 597 482 532 c 2,31,-1
 489 526 l 1,32,-1
 496 533 l 1,33,-1
 575 611 l 1,0,-1
169 471 m 0,34,35
 107 408 107 408 107 318 c 0,36,37
 107 244 107 244 153 185 c 2,38,-1
 159 176 l 1,39,-1
 167 184 l 1,40,-1
 439 474 l 1,41,-1
 447 482 l 1,42,-1
 438 489 l 2,43,44
 383 534 383 534 314 534 c 0,45,46
 272 534 272 534 235.5 518.5 c 128,-1,47
 199 503 199 503 169 471 c 0,34,35
188 147 m 2,48,49
 243 101 243 101 314 101 c 0,50,51
 342 101 342 101 367 108 c 128,-1,52
 392 115 392 115 415 129 c 128,-1,53
 438 143 438 143 458 164 c 0,54,55
 520 227 520 227 520 318 c 0,56,57
 520 326 520 326 519.5 334 c 128,-1,58
 519 342 519 342 517.5 350 c 128,-1,59
 516 358 516 358 514.5 365.5 c 128,-1,60
 513 373 513 373 511 380.5 c 128,-1,61
 509 388 509 388 506 395 c 128,-1,62
 503 402 503 402 499.5 409 c 128,-1,63
 496 416 496 416 492.5 423 c 128,-1,64
 489 430 489 430 484.5 437 c 128,-1,65
 480 444 480 444 475 450 c 2,66,-1
 468 459 l 1,67,-1
 461 451 l 1,68,-1
 187 162 l 1,69,-1
 180 154 l 1,70,-1
 188 147 l 2,48,49
EndSplineSet
Validated: 1
EndChar

StartChar: Ugrave
Encoding: 217 217 142
Width: 537
GlyphClass: 2
Flags: W
HStem: 20 63<186.994 349.276>
VStem: 30 63<181.203 577> 444 63<180.343 577>
LayerCount: 2
Fore
SplineSet
444 270 m 1,0,-1
 444 577 l 1,1,-1
 507 577 l 1,2,-1
 507 270 l 1,3,-1
 507 269 l 1,4,-1
 507 268 l 2,5,6
 507 217 507 217 489 173.5 c 128,-1,7
 471 130 471 130 434 93 c 0,8,9
 363 20 363 20 268 20 c 0,10,11
 206 20 206 20 153 53 c 0,12,13
 96 86 96 86 63 143.5 c 128,-1,14
 30 201 30 201 30 268 c 2,15,-1
 30 269 l 1,16,-1
 30 270 l 1,17,-1
 30 577 l 1,18,-1
 93 577 l 1,19,-1
 93 270 l 1,20,-1
 93 268 l 2,21,22
 93 192 93 192 147 137 c 0,23,24
 196 83 196 83 268 83 c 0,25,26
 303 83 303 83 333.5 96.5 c 128,-1,27
 364 110 364 110 390 137 c 0,28,29
 417 164 417 164 430.5 197 c 128,-1,30
 444 230 444 230 444 268 c 2,31,-1
 444 270 l 1,0,-1
256 722 m 1,32,-1
 322 650 l 1,33,-1
 281 650 l 1,34,-1
 214 722 l 1,35,-1
 256 722 l 1,32,-1
EndSplineSet
Validated: 1
EndChar

StartChar: Uacute
Encoding: 218 218 143
Width: 537
GlyphClass: 2
Flags: W
HStem: 20 63<187.334 349.351>
VStem: 30 63<181.517 577> 444 63<180.343 577>
LayerCount: 2
Fore
SplineSet
444 270 m 1,0,-1
 444 577 l 1,1,-1
 507 577 l 1,2,-1
 507 270 l 1,3,-1
 507 269 l 1,4,-1
 507 268 l 2,5,6
 507 217 507 217 489 173.5 c 128,-1,7
 471 130 471 130 434 93 c 0,8,9
 363 20 363 20 268.5 20 c 128,-1,10
 174 20 174 20 103 93 c 0,11,12
 30 166 30 166 30 268 c 2,13,-1
 30 269 l 1,14,-1
 30 270 l 1,15,-1
 30 577 l 1,16,-1
 93 577 l 1,17,-1
 93 270 l 1,18,-1
 93 268 l 2,19,20
 93 192 93 192 147 137 c 0,21,22
 196 83 196 83 268 83 c 0,23,24
 303 83 303 83 333.5 96.5 c 128,-1,25
 364 110 364 110 390 137 c 0,26,27
 417 164 417 164 430.5 197 c 128,-1,28
 444 230 444 230 444 268 c 2,29,-1
 444 270 l 1,0,-1
281 722 m 1,30,-1
 322 722 l 1,31,-1
 256 650 l 1,32,-1
 214 650 l 1,33,-1
 281 722 l 1,30,-1
EndSplineSet
Validated: 1
EndChar

StartChar: Ucircumflex
Encoding: 219 219 144
Width: 537
GlyphClass: 2
Flags: W
HStem: 20 63<186.994 349.276>
VStem: 30 63<181.203 577> 444 63<180.343 577>
LayerCount: 2
Fore
SplineSet
444 270 m 1,0,-1
 444 577 l 1,1,-1
 507 577 l 1,2,-1
 507 270 l 1,3,-1
 507 269 l 1,4,-1
 507 268 l 2,5,6
 507 217 507 217 489 173.5 c 128,-1,7
 471 130 471 130 434 93 c 0,8,9
 363 20 363 20 268 20 c 0,10,11
 206 20 206 20 153 53 c 0,12,13
 96 86 96 86 63 143.5 c 128,-1,14
 30 201 30 201 30 268 c 2,15,-1
 30 269 l 1,16,-1
 30 270 l 1,17,-1
 30 577 l 1,18,-1
 93 577 l 1,19,-1
 93 270 l 1,20,-1
 93 268 l 2,21,22
 93 192 93 192 147 137 c 0,23,24
 196 83 196 83 268 83 c 0,25,26
 303 83 303 83 333.5 96.5 c 128,-1,27
 364 110 364 110 390 137 c 0,28,29
 417 164 417 164 430.5 197 c 128,-1,30
 444 230 444 230 444 268 c 2,31,-1
 444 270 l 1,0,-1
269 686 m 1,32,-1
 265 684 l 1,33,-1
 149 621 l 1,34,-1
 135 650 l 1,35,-1
 269 721 l 1,36,-1
 402 650 l 1,37,-1
 388 621 l 1,38,-1
 273 684 l 1,39,-1
 269 686 l 1,32,-1
EndSplineSet
Validated: 1
EndChar

StartChar: Udieresis
Encoding: 220 220 145
Width: 537
GlyphClass: 2
Flags: W
HStem: 20 63<186.994 349.276> 624 73<171.342 232.842 311.313 366.009>
VStem: 30 63<181.203 577> 168 68<626.346 694.25> 301 68<634.829 694.421> 444 63<180.343 577>
LayerCount: 2
Fore
SplineSet
444 270 m 1,0,-1
 444 577 l 1,1,-1
 507 577 l 1,2,-1
 507 270 l 1,3,-1
 507 269 l 1,4,-1
 507 268 l 2,5,6
 507 217 507 217 489 173.5 c 128,-1,7
 471 130 471 130 434 93 c 0,8,9
 363 20 363 20 268 20 c 0,10,11
 206 20 206 20 153 53 c 0,12,13
 96 86 96 86 63 143.5 c 128,-1,14
 30 201 30 201 30 268 c 2,15,-1
 30 269 l 1,16,-1
 30 270 l 1,17,-1
 30 577 l 1,18,-1
 93 577 l 1,19,-1
 93 270 l 1,20,-1
 93 268 l 2,21,22
 93 192 93 192 147 137 c 0,23,24
 196 83 196 83 268 83 c 0,25,26
 303 83 303 83 333.5 96.5 c 128,-1,27
 364 110 364 110 390 137 c 0,28,29
 417 164 417 164 430.5 197 c 128,-1,30
 444 230 444 230 444 268 c 2,31,-1
 444 270 l 1,0,-1
340.5 624.5 m 128,-1,33
 338 624 338 624 335 624 c 0,34,35
 321 624 321 624 311 634.5 c 128,-1,36
 301 645 301 645 301 660 c 0,37,38
 301 668 301 668 303.5 674 c 128,-1,39
 306 680 306 680 311.5 686 c 128,-1,40
 317 692 317 692 322.5 694.5 c 128,-1,41
 328 697 328 697 335 697 c 0,42,43
 337 697 337 697 339.5 696.5 c 128,-1,44
 342 696 342 696 344 695.5 c 128,-1,45
 346 695 346 695 348 694 c 128,-1,46
 350 693 350 693 352 692 c 128,-1,47
 354 691 354 691 355.5 689.5 c 128,-1,48
 357 688 357 688 359 686 c 0,49,50
 364 680 364 680 366.5 674 c 128,-1,51
 369 668 369 668 369 660 c 0,52,53
 369 654 369 654 367 648 c 0,54,55
 367 646 367 646 366 644.5 c 128,-1,56
 365 643 365 643 364.5 641.5 c 128,-1,57
 364 640 364 640 363 639 c 0,58,59
 359 634 359 634 355 630 c 0,60,61
 351 627 351 627 346 626 c 0,62,32
 343 625 343 625 340.5 624.5 c 128,-1,33
214.5 626.5 m 128,-1,64
 209 624 209 624 202 624 c 0,65,66
 196 624 196 624 189.5 626.5 c 128,-1,67
 183 629 183 629 178.5 634.5 c 128,-1,68
 174 640 174 640 171 646.5 c 128,-1,69
 168 653 168 653 168 660 c 0,70,71
 168 675 168 675 178 686 c 128,-1,72
 188 697 188 697 201.5 697 c 128,-1,73
 215 697 215 697 225.5 686 c 128,-1,74
 236 675 236 675 236 660 c 0,75,76
 235 645 235 645 226 635 c 0,77,63
 220 629 220 629 214.5 626.5 c 128,-1,64
EndSplineSet
Validated: 1
EndChar

StartChar: Yacute
Encoding: 221 221 146
Width: 558
GlyphClass: 2
Flags: W
HStem: 20 21G<239 298> 559 20G<30 123.101 414.991 508>
VStem: 239 59<20 288>
LayerCount: 2
Fore
SplineSet
277 362 m 1,0,-1
 429 579 l 1,1,-1
 508 579 l 1,2,-1
 300 291 l 1,3,-1
 298 288 l 1,4,-1
 298 285 l 1,5,-1
 298 20 l 1,6,-1
 239 20 l 1,7,-1
 239 285 l 1,8,-1
 239 288 l 1,9,-1
 237 291 l 1,10,-1
 30 579 l 1,11,-1
 109 579 l 1,12,-1
 262 362 l 1,13,-1
 269 351 l 1,14,-1
 277 362 l 1,0,-1
282 723 m 1,15,-1
 324 723 l 1,16,-1
 256 650 l 1,17,-1
 214 650 l 1,18,-1
 282 723 l 1,15,-1
EndSplineSet
Validated: 1
EndChar

StartChar: Thorn
Encoding: 222 222 147
Width: 454
GlyphClass: 2
Flags: W
HStem: 134 63<93 327.013> 392 63<93 326.248> 559 20G<30 93>
VStem: 30 63<10 134 197 392 455 579> 361 63<231.303 356.509>
LayerCount: 2
Fore
SplineSet
102 455 m 1,0,-1
 272 455 l 2,1,2
 301 455 301 455 328 444 c 0,3,4
 355 432 355 432 378 408.5 c 128,-1,5
 401 385 401 385 412.5 356.5 c 128,-1,6
 424 328 424 328 424 294 c 0,7,8
 424 250 424 250 403 214 c 0,9,10
 393 195 393 195 379 180.5 c 128,-1,11
 365 166 365 166 347 155.5 c 128,-1,12
 329 145 329 145 310 139 c 0,13,14
 292 134 292 134 272 134 c 2,15,-1
 102 134 l 1,16,-1
 93 134 l 1,17,-1
 93 124 l 1,18,-1
 93 10 l 1,19,-1
 30 10 l 1,20,-1
 30 579 l 1,21,-1
 93 579 l 1,22,-1
 93 465 l 1,23,-1
 93 455 l 1,24,-1
 102 455 l 1,0,-1
102 197 m 1,25,-1
 272 197 l 2,26,27
 289 197 289 197 304 204 c 0,28,29
 320 211 320 211 333.5 225 c 128,-1,30
 347 239 347 239 354 256.5 c 128,-1,31
 361 274 361 274 361 294 c 0,32,33
 361 334 361 334 334 363 c 128,-1,34
 307 392 307 392 272 392 c 2,35,-1
 102 392 l 1,36,-1
 93 392 l 1,37,-1
 93 381 l 1,38,-1
 93 208 l 1,39,-1
 93 197 l 1,40,-1
 102 197 l 1,25,-1
EndSplineSet
Validated: 1
EndChar

StartChar: germandbls
Encoding: 223 223 148
Width: 432
GlyphClass: 2
Flags: W
HStem: 45 63<210 269.975> 406 66<210 253.081> 684 63<131.25 253.017>
VStem: 30 63<44 644.32> 291 63<510.808 644.811> 338 63<179.349 335.048>
LayerCount: 2
Fore
SplineSet
301 437 m 2,0,1
 323 424 323 424 339 407 c 0,2,3
 370 376 370 376 385.5 338.5 c 128,-1,4
 401 301 401 301 401 257 c 0,5,6
 401 235 401 235 397 214.5 c 128,-1,7
 393 194 393 194 385.5 175.5 c 128,-1,8
 378 157 378 157 366.5 140 c 128,-1,9
 355 123 355 123 339 107 c 0,10,11
 310 78 310 78 275 62 c 0,12,13
 245 47 245 47 210 45 c 1,14,-1
 210 108 l 1,15,16
 259 112 259 112 295 152 c 0,17,18
 338 196 338 196 338 258 c 0,19,20
 338 267 338 267 337 275 c 128,-1,21
 336 283 336 283 334.5 291 c 128,-1,22
 333 299 333 299 330 307 c 128,-1,23
 327 315 327 315 323.5 322 c 128,-1,24
 320 329 320 329 315.5 336 c 128,-1,25
 311 343 311 343 306 349.5 c 128,-1,26
 301 356 301 356 295 363 c 0,27,28
 259 403 259 403 210 406 c 1,29,-1
 210 472 l 1,30,31
 240 477 240 477 262 502 c 0,32,33
 291 533 291 533 291 577.5 c 128,-1,34
 291 622 291 622 262 654 c 0,35,36
 256 661 256 661 249 666.5 c 128,-1,37
 242 672 242 672 234.5 675.5 c 128,-1,38
 227 679 227 679 218.5 681 c 128,-1,39
 210 683 210 683 202 684 c 2,40,-1
 201 684 l 1,41,-1
 195 684 l 2,42,43
 147 684 147 684 117 648 c 0,44,45
 93 618 93 618 93 579 c 2,46,-1
 93 44 l 1,47,-1
 30 44 l 1,48,-1
 30 579 l 2,49,50
 30 641 30 641 69 689 c 0,51,52
 92 717 92 717 127 732 c 0,53,54
 161 747 161 747 195 747 c 2,55,-1
 201 747 l 2,56,57
 260 745 260 745 304 698 c 0,58,59
 354 648 354 648 354 578 c 0,60,61
 354 554 354 554 348.5 533 c 128,-1,62
 343 512 343 512 332 493 c 128,-1,63
 321 474 321 474 304 457 c 0,64,65
 303 456 l 0,66,67
 301 454 301 454 299 453 c 2,68,-1
 290 444 l 1,69,-1
 301 437 l 2,0,1
EndSplineSet
Validated: 1
EndChar

StartChar: agrave
Encoding: 224 224 149
Width: 454
GlyphClass: 2
Flags: W
HStem: 10 63<158.6 294.685> 361 63<158.988 295.447>
VStem: 30 63<139.86 292.862> 361 63<10 68 140.207 293.236 366 424>
LayerCount: 2
Fore
SplineSet
361 387 m 1,0,-1
 361 424 l 1,1,-1
 424 424 l 1,2,-1
 424 10 l 1,3,-1
 361 10 l 1,4,-1
 361 47 l 1,5,-1
 361 68 l 1,6,-1
 345 55 l 2,7,8
 317 32 317 32 287 21 c 0,9,10
 259 10 259 10 227 10 c 0,11,12
 151 10 151 10 90.5 70.5 c 128,-1,13
 30 131 30 131 30 217 c 128,-1,14
 30 303 30 303 90.5 363.5 c 128,-1,15
 151 424 151 424 227 424 c 0,16,17
 290 424 290 424 345 379 c 2,18,-1
 361 366 l 1,19,-1
 361 387 l 1,0,-1
135 115 m 0,20,21
 174 73 174 73 227 73 c 0,22,23
 253 73 253 73 275.5 83.5 c 128,-1,24
 298 94 298 94 319 115 c 128,-1,25
 340 136 340 136 350.5 162 c 128,-1,26
 361 188 361 188 361 217 c 0,27,28
 361 232 361 232 358.5 245.5 c 128,-1,29
 356 259 356 259 350.5 272 c 128,-1,30
 345 285 345 285 337 296.5 c 128,-1,31
 329 308 329 308 319 319 c 0,32,33
 299 340 299 340 276 350.5 c 128,-1,34
 253 361 253 361 227 361 c 0,35,36
 193 361 193 361 163 342 c 0,37,38
 148 332 148 332 135 319 c 128,-1,39
 122 306 122 306 112 289 c 0,40,41
 93 256 93 256 93 217 c 0,42,43
 93 157 93 157 135 115 c 0,20,21
278 553 m 1,44,-1
 348 480 l 1,45,-1
 303 480 l 1,46,-1
 239 553 l 1,47,-1
 278 553 l 1,44,-1
EndSplineSet
Validated: 1
EndChar

StartChar: aacute
Encoding: 225 225 150
Width: 454
GlyphClass: 2
Flags: W
HStem: 10 63<158.6 294.685> 361 63<158.988 295.447>
VStem: 30 63<139.86 292.862> 361 63<10 68 140.207 293.236 366 424>
LayerCount: 2
Fore
SplineSet
361 387 m 1,0,-1
 361 424 l 1,1,-1
 424 424 l 1,2,-1
 424 10 l 1,3,-1
 361 10 l 1,4,-1
 361 47 l 1,5,-1
 361 68 l 1,6,-1
 345 55 l 2,7,8
 317 32 317 32 287 21 c 0,9,10
 259 10 259 10 227 10 c 0,11,12
 151 10 151 10 90.5 70.5 c 128,-1,13
 30 131 30 131 30 217 c 128,-1,14
 30 303 30 303 90.5 363.5 c 128,-1,15
 151 424 151 424 227 424 c 0,16,17
 290 424 290 424 345 379 c 2,18,-1
 361 366 l 1,19,-1
 361 387 l 1,0,-1
135 115 m 0,20,21
 174 73 174 73 227 73 c 0,22,23
 253 73 253 73 275.5 83.5 c 128,-1,24
 298 94 298 94 319 115 c 128,-1,25
 340 136 340 136 350.5 162 c 128,-1,26
 361 188 361 188 361 217 c 0,27,28
 361 232 361 232 358.5 245.5 c 128,-1,29
 356 259 356 259 350.5 272 c 128,-1,30
 345 285 345 285 337 296.5 c 128,-1,31
 329 308 329 308 319 319 c 0,32,33
 299 340 299 340 276 350.5 c 128,-1,34
 253 361 253 361 227 361 c 0,35,36
 193 361 193 361 163 342 c 0,37,38
 148 332 148 332 135 319 c 128,-1,39
 122 306 122 306 112 289 c 0,40,41
 93 256 93 256 93 217 c 0,42,43
 93 157 93 157 135 115 c 0,20,21
313 553 m 1,44,-1
 358 553 l 1,45,-1
 287 480 l 1,46,-1
 247 480 l 1,47,-1
 313 553 l 1,44,-1
EndSplineSet
Validated: 1
EndChar

StartChar: acircumflex
Encoding: 226 226 151
Width: 454
GlyphClass: 2
Flags: W
HStem: 10 63<158.6 294.685> 361 63<158.988 295.447>
VStem: 30 63<139.86 292.862> 361 63<10 68 140.207 293.236 366 424>
LayerCount: 2
Fore
SplineSet
361 387 m 1,0,-1
 361 424 l 1,1,-1
 424 424 l 1,2,-1
 424 10 l 1,3,-1
 361 10 l 1,4,-1
 361 47 l 1,5,-1
 361 68 l 1,6,-1
 345 55 l 2,7,8
 317 32 317 32 287 21 c 0,9,10
 259 10 259 10 227 10 c 0,11,12
 151 10 151 10 90.5 70.5 c 128,-1,13
 30 131 30 131 30 217 c 128,-1,14
 30 303 30 303 90.5 363.5 c 128,-1,15
 151 424 151 424 227 424 c 0,16,17
 290 424 290 424 345 379 c 2,18,-1
 361 366 l 1,19,-1
 361 387 l 1,0,-1
135 115 m 0,20,21
 174 73 174 73 227 73 c 0,22,23
 253 73 253 73 275.5 83.5 c 128,-1,24
 298 94 298 94 319 115 c 128,-1,25
 340 136 340 136 350.5 162 c 128,-1,26
 361 188 361 188 361 217 c 0,27,28
 361 232 361 232 358.5 245.5 c 128,-1,29
 356 259 356 259 350.5 272 c 128,-1,30
 345 285 345 285 337 296.5 c 128,-1,31
 329 308 329 308 319 319 c 0,32,33
 299 340 299 340 276 350.5 c 128,-1,34
 253 361 253 361 227 361 c 0,35,36
 193 361 193 361 163 342 c 0,37,38
 148 332 148 332 135 319 c 128,-1,39
 122 306 122 306 112 289 c 0,40,41
 93 256 93 256 93 217 c 0,42,43
 93 157 93 157 135 115 c 0,20,21
227 532 m 1,44,-1
 223 530 l 1,45,-1
 108 467 l 1,46,-1
 94 496 l 1,47,-1
 227 568 l 1,48,-1
 360 496 l 1,49,-1
 346 467 l 1,50,-1
 231 530 l 1,51,-1
 227 532 l 1,44,-1
EndSplineSet
Validated: 1
EndChar

StartChar: atilde
Encoding: 227 227 152
Width: 454
GlyphClass: 2
Flags: W
HStem: 10 63<158.6 294.455> 361 63<158.802 295.201> 466 32<258.93 313.312> 535 32<146.437 183.984>
VStem: 30 63<139.86 294.14> 361 63<10 68 140.207 293.236 366 424>
LayerCount: 2
Fore
SplineSet
361 424 m 1,0,-1
 424 424 l 1,1,-1
 424 217 l 1,2,-1
 424 10 l 1,3,-1
 361 10 l 1,4,-1
 361 47 l 1,5,-1
 361 68 l 1,6,-1
 345 55 l 2,7,8
 291 10 291 10 227 10 c 0,9,10
 151 10 151 10 90.5 70.5 c 128,-1,11
 30 131 30 131 30 217 c 128,-1,12
 30 303 30 303 90.5 363.5 c 128,-1,13
 151 424 151 424 227 424 c 0,14,15
 289 424 289 424 345 379 c 2,16,-1
 361 366 l 1,17,-1
 361 387 l 1,18,-1
 361 424 l 1,0,-1
135 115 m 0,19,20
 174 73 174 73 227 73 c 0,21,22
 253 73 253 73 275.5 83.5 c 128,-1,23
 298 94 298 94 319 115 c 128,-1,24
 340 136 340 136 350.5 162 c 128,-1,25
 361 188 361 188 361 217 c 0,26,27
 361 232 361 232 358.5 245.5 c 128,-1,28
 356 259 356 259 350.5 272 c 128,-1,29
 345 285 345 285 337 296.5 c 128,-1,30
 329 308 329 308 319 319 c 0,31,32
 299 340 299 340 276 350.5 c 128,-1,33
 253 361 253 361 227 361 c 0,34,35
 175 361 175 361 135 319 c 0,36,37
 93 277 93 277 93 217 c 128,-1,38
 93 157 93 157 135 115 c 0,19,20
145 527 m 1,39,-1
 144 526 l 2,40,41
 129 515 129 515 122 500 c 1,42,-1
 91 507 l 1,43,44
 101 537 101 537 128 553 c 0,45,46
 150 567 150 567 172 567 c 2,47,-1
 190 564 l 2,48,49
 221 556 221 556 239 525 c 0,50,51
 250 506 250 506 270 499 c 0,52,53
 275 498 275 498 282 498 c 0,54,55
 287 498 287 498 291.5 499 c 128,-1,56
 296 500 296 500 300.5 502 c 128,-1,57
 305 504 305 504 309 507 c 2,58,-1
 310 507 l 2,59,60
 325 518 325 518 332 532 c 1,61,-1
 363 525 l 1,62,63
 358 510 358 510 349 499 c 128,-1,64
 340 488 340 488 326 480 c 0,65,66
 304 466 304 466 282 466 c 0,67,68
 278 466 278 466 273.5 466.5 c 128,-1,69
 269 467 269 467 265 469 c 2,70,71
 232 477 232 477 215 508 c 2,72,-1
 215 509 l 2,73,74
 202 529 202 529 184 534 c 2,75,-1
 183 534 l 1,76,-1
 182 534 l 2,77,78
 181 534 181 534 178 534 c 0,79,80
 174 535 174 535 172 535 c 0,81,82
 160 535 160 535 146 527 c 2,83,-1
 145 527 l 1,39,-1
EndSplineSet
Validated: 1
EndChar

StartChar: adieresis
Encoding: 228 228 153
Width: 454
GlyphClass: 2
Flags: W
HStem: 10 63<158.6 294.685> 361 63<158.988 295.261> 480 73<158.743 217.475 293.798 350.911>
VStem: 30 63<139.86 292.862> 156 65<482.136 551.02> 284 70<490.829 550> 361 63<10 68 140.207 293.702 366 424>
LayerCount: 2
Fore
SplineSet
361 387 m 1,0,-1
 361 424 l 1,1,-1
 424 424 l 1,2,-1
 424 10 l 1,3,-1
 361 10 l 1,4,-1
 361 47 l 1,5,-1
 361 68 l 1,6,-1
 345 55 l 2,7,8
 317 32 317 32 287 21 c 0,9,10
 259 10 259 10 227 10 c 0,11,12
 151 10 151 10 90.5 70.5 c 128,-1,13
 30 131 30 131 30 217 c 128,-1,14
 30 303 30 303 90.5 363.5 c 128,-1,15
 151 424 151 424 227 424 c 0,16,17
 290 424 290 424 345 379 c 2,18,-1
 361 366 l 1,19,-1
 361 387 l 1,0,-1
135 115 m 0,20,21
 174 73 174 73 227 73 c 0,22,23
 253 73 253 73 275.5 83.5 c 128,-1,24
 298 94 298 94 319 115 c 128,-1,25
 340 136 340 136 350.5 162 c 128,-1,26
 361 188 361 188 361 217 c 0,27,28
 361 256 361 256 342 289 c 0,29,30
 332 306 332 306 319 319 c 128,-1,31
 306 332 306 332 291 342 c 0,32,33
 284 347 284 347 276 350.5 c 128,-1,34
 268 354 268 354 260 356.5 c 128,-1,35
 252 359 252 359 244 360 c 128,-1,36
 236 361 236 361 227 361 c 0,37,38
 193 361 193 361 163 342 c 0,39,40
 148 332 148 332 135 319 c 128,-1,41
 122 306 122 306 112 289 c 0,42,43
 93 256 93 256 93 217 c 0,44,45
 93 157 93 157 135 115 c 0,20,21
337 485 m 0,46,47
 329 480 329 480 318 480 c 0,48,49
 303 480 303 480 293.5 490.5 c 128,-1,50
 284 501 284 501 284 516 c 0,51,52
 284 524 284 524 286 530 c 128,-1,53
 288 536 288 536 293.5 542 c 128,-1,54
 299 548 299 548 304 550 c 0,55,56
 310 553 310 553 318 553 c 0,57,58
 320 553 320 553 322 553 c 128,-1,59
 324 553 324 553 326 552.5 c 128,-1,60
 328 552 328 552 330 551 c 128,-1,61
 332 550 332 550 333.5 549.5 c 128,-1,62
 335 549 335 549 337 547.5 c 128,-1,63
 339 546 339 546 340.5 545 c 128,-1,64
 342 544 342 544 343 542 c 0,65,66
 349 536 349 536 351.5 530 c 128,-1,67
 354 524 354 524 354 516 c 0,68,69
 354 507 354 507 349 498 c 0,70,71
 347 494 347 494 344 490.5 c 128,-1,72
 341 487 341 487 337 485 c 0,46,47
201 483 m 0,73,74
 195 480 195 480 188 480 c 0,75,76
 186 480 186 480 184 480.5 c 128,-1,77
 182 481 182 481 180 481.5 c 128,-1,78
 178 482 178 482 176 482.5 c 128,-1,79
 174 483 174 483 172 484.5 c 128,-1,80
 170 486 170 486 168.5 487.5 c 128,-1,81
 167 489 167 489 166 491 c 0,82,83
 160 496 160 496 158 502 c 0,84,85
 156 508 156 508 156 516 c 0,86,87
 156 521 156 521 157 526 c 128,-1,88
 158 531 158 531 160 535 c 128,-1,89
 162 539 162 539 166 542 c 0,90,91
 171 547 171 547 176 550 c 128,-1,92
 181 553 181 553 188 553 c 0,93,94
 191 553 191 553 193.5 552.5 c 128,-1,95
 196 552 196 552 198 551.5 c 128,-1,96
 200 551 200 551 202.5 549.5 c 128,-1,97
 205 548 205 548 207 546.5 c 128,-1,98
 209 545 209 545 211 542 c 0,99,100
 216 537 216 537 218.5 530.5 c 128,-1,101
 221 524 221 524 221 516 c 0,102,103
 221 509 221 509 218 503 c 0,104,105
 215 496 215 496 211 490 c 0,106,107
 209 488 209 488 206.5 486 c 128,-1,108
 204 484 204 484 201 483 c 0,73,74
EndSplineSet
Validated: 1
EndChar

StartChar: aring
Encoding: 229 229 154
Width: 454
GlyphClass: 2
Flags: W
HStem: 18 53<158.6 294.207> 359 73<158.629 221 234 295.551> 452 32<233 261.53> 596 32<192.412 261.588>
VStem: 30 63<138.306 292.034> 149 28<501.373 578.383> 221 13<432 452> 277 28<501.525 578.383> 361 63<18 74 138.207 291.236 375 432>
LayerCount: 2
Fore
SplineSet
361 432 m 1,0,-1
 424 432 l 1,1,-1
 424 18 l 1,2,-1
 361 18 l 1,3,-1
 361 54 l 1,4,-1
 361 74 l 1,5,-1
 345 62 l 2,6,7
 290 18 290 18 227 18 c 0,8,9
 151 18 151 18 90.5 78.5 c 128,-1,10
 30 139 30 139 30 225 c 0,11,12
 30 242 30 242 32.5 258 c 128,-1,13
 35 274 35 274 39.5 288.5 c 128,-1,14
 44 303 44 303 51 317 c 128,-1,15
 58 331 58 331 67 344 c 128,-1,16
 76 357 76 357 88 369 c 0,17,18
 146 429 146 429 221 432 c 1,19,-1
 222 452 l 1,20,21
 207 453 207 453 194 460 c 128,-1,22
 181 467 181 467 170.5 480 c 128,-1,23
 160 493 160 493 154.5 507.5 c 128,-1,24
 149 522 149 522 149 540 c 0,25,26
 149 576 149 576 171.5 602 c 128,-1,27
 194 628 194 628 227 628 c 128,-1,28
 260 628 260 628 282.5 602 c 128,-1,29
 305 576 305 576 305 540 c 0,30,31
 305 506 305 506 284 480 c 0,32,33
 281 476 281 476 277 472.5 c 128,-1,34
 273 469 273 469 269 466 c 128,-1,35
 265 463 265 463 261 460.5 c 128,-1,36
 257 458 257 458 252.5 456.5 c 128,-1,37
 248 455 248 455 243 453.5 c 128,-1,38
 238 452 238 452 233 452 c 1,39,-1
 234 432 l 1,40,41
 292 429 292 429 345 387 c 2,42,-1
 361 375 l 1,43,-1
 361 395 l 1,44,-1
 361 432 l 1,0,-1
135 113 m 0,45,46
 174 71 174 71 227 71 c 0,47,48
 253 71 253 71 275.5 81.5 c 128,-1,49
 298 92 298 92 319 113 c 128,-1,50
 340 134 340 134 350.5 160 c 128,-1,51
 361 186 361 186 361 215 c 0,52,53
 361 230 361 230 358.5 243.5 c 128,-1,54
 356 257 356 257 350.5 270 c 128,-1,55
 345 283 345 283 337 294.5 c 128,-1,56
 329 306 329 306 319 317 c 0,57,58
 299 338 299 338 276 348.5 c 128,-1,59
 253 359 253 359 227 359 c 0,60,61
 175 359 175 359 135 317 c 0,62,63
 93 275 93 275 93 215 c 128,-1,64
 93 155 93 155 135 113 c 0,45,46
192 580 m 128,-1,66
 177 564 177 564 177 540 c 128,-1,67
 177 516 177 516 192 500 c 128,-1,68
 207 484 207 484 227 484 c 128,-1,69
 247 484 247 484 262 500 c 128,-1,70
 277 516 277 516 277 540 c 128,-1,71
 277 564 277 564 262 580 c 128,-1,72
 247 596 247 596 227 596 c 128,-1,65
 207 596 207 596 192 580 c 128,-1,66
EndSplineSet
Validated: 1
EndChar

StartChar: ae
Encoding: 230 230 155
Width: 806
GlyphClass: 2
Flags: W
HStem: 8 63<160.25 307.126 498.167 648.882> 180 63<436 709> 359 63<160.345 307.025 500.017 642.795>
VStem: 30 63<137.86 290.862> 372 61<8 64 364 422>
LayerCount: 2
Fore
SplineSet
772 180 m 1,0,-1
 694 180 l 1,1,-1
 450 180 l 1,2,-1
 436 180 l 1,3,-1
 441 167 l 2,4,5
 448 146 448 146 460.5 128.5 c 128,-1,6
 473 111 473 111 491 98 c 0,7,8
 503 89 503 89 516 83 c 128,-1,9
 529 77 529 77 543 74 c 128,-1,10
 557 71 557 71 571 71 c 0,11,12
 588 71 588 71 605 75 c 128,-1,13
 622 79 622 79 637 88 c 1,14,-1
 682 42 l 1,15,16
 632 8 632 8 571 8 c 0,17,18
 502 8 502 8 448 52 c 2,19,-1
 433 64 l 1,20,-1
 433 44 l 1,21,-1
 433 8 l 1,22,-1
 372 8 l 1,23,-1
 372 44 l 1,24,-1
 372 64 l 1,25,-1
 357 52 l 2,26,27
 303 8 303 8 234 8 c 0,28,29
 151 8 151 8 90.5 68.5 c 128,-1,30
 30 129 30 129 30 215 c 128,-1,31
 30 301 30 301 90.5 361.5 c 128,-1,32
 151 422 151 422 234 422 c 0,33,34
 303 422 303 422 357 377 c 2,35,-1
 372 364 l 1,36,-1
 372 385 l 1,37,-1
 372 422 l 1,38,-1
 433 422 l 1,39,-1
 433 385 l 1,40,-1
 433 364 l 1,41,-1
 448 377 l 2,42,43
 502 422 502 422 571 422 c 0,44,45
 599 422 599 422 624 415.5 c 128,-1,46
 649 409 649 409 671 395 c 0,47,48
 694 382 694 382 714 361 c 0,49,50
 744 331 744 331 759.5 294.5 c 128,-1,51
 775 258 775 258 775 215 c 0,52,53
 775 197 775 197 772 180 c 1,0,-1
135 113 m 0,54,55
 176 71 176 71 234 71 c 0,56,57
 292 71 292 71 332 113 c 0,58,59
 372 154 372 154 372 214 c 0,60,61
 372 244 372 244 362 270 c 128,-1,62
 352 296 352 296 331.5 317 c 128,-1,63
 311 338 311 338 286.5 348.5 c 128,-1,64
 262 359 262 359 234 359 c 0,65,66
 197 359 197 359 164 340 c 0,67,68
 148 330 148 330 135 317 c 128,-1,69
 122 304 122 304 112 287 c 0,70,71
 93 254 93 254 93 215 c 0,72,73
 93 155 93 155 135 113 c 0,54,55
435 243 m 1,74,-1
 448 243 l 1,75,-1
 696 243 l 1,76,-1
 709 243 l 1,77,-1
 706 256 l 2,78,79
 701 274 701 274 691 290 c 0,80,81
 686 298 686 298 680.5 305 c 128,-1,82
 675 312 675 312 668 318 c 0,83,84
 655 330 655 330 640 339 c 0,85,86
 635 342 635 342 630 345 c 128,-1,87
 625 348 625 348 619 350.5 c 128,-1,88
 613 353 613 353 607 354 c 0,89,90
 589 359 589 359 571 359 c 0,91,92
 540 359 540 359 513 345.5 c 128,-1,93
 486 332 486 332 466.5 309 c 128,-1,94
 447 286 447 286 439 256 c 2,95,-1
 435 243 l 1,74,-1
EndSplineSet
Validated: 1
EndChar

StartChar: ccedilla
Encoding: 231 231 156
Width: 391
GlyphClass: 2
Flags: W
HStem: -147 32<155.188 219.35> 8 63<174 293.25> 359 63<157.369 293.876>
VStem: 30 63<138.54 292.102> 227 30<-105.314 -54.8623>
LayerCount: 2
Fore
SplineSet
180 8 m 1025,0,-1
188 8 m 1,1,-1
 214 -21 l 2,2,3
 217 -24 217 -24 231 -31 c 0,4,5
 257 -46 257 -46 257 -80 c 0,6,7
 257 -86 257 -86 256 -91.5 c 128,-1,8
 255 -97 255 -97 253 -102.5 c 128,-1,9
 251 -108 251 -108 247.5 -112.5 c 128,-1,10
 244 -117 244 -117 239.5 -121 c 128,-1,11
 235 -125 235 -125 231 -129 c 0,12,13
 210 -147 210 -147 182 -147 c 0,14,15
 174 -147 174 -147 166.5 -145.5 c 128,-1,16
 159 -144 159 -144 152 -141 c 0,17,18
 144 -138 144 -138 137 -134 c 1,19,-1
 155 -108 l 1,20,21
 161 -112 161 -112 167.5 -113.5 c 128,-1,22
 174 -115 174 -115 182 -115 c 0,23,24
 192 -115 192 -115 200 -112 c 128,-1,25
 208 -109 208 -109 215 -103 c 0,26,27
 218 -101 218 -101 220 -98.5 c 128,-1,28
 222 -96 222 -96 223.5 -93 c 128,-1,29
 225 -90 225 -90 226 -87 c 128,-1,30
 227 -84 227 -84 227 -80 c 0,31,32
 227 -68 227 -68 216 -58 c 0,33,34
 203 -46 203 -46 182 -46 c 2,35,-1
 158 -46 l 1,36,-1
 180 8 l 1,37,-1
 183 13 l 1,38,-1
 173 17 l 1,39,40
 113 36 113 36 71.5 90 c 128,-1,41
 30 144 30 144 30 215 c 0,42,43
 30 301 30 301 91 361 c 0,44,45
 151 422 151 422 221 422 c 0,46,47
 258 422 258 422 292 408.5 c 128,-1,48
 326 395 326 395 356 368 c 1,49,-1
 312 324 l 1,50,51
 271 359 271 359 221 359 c 0,52,53
 173 359 173 359 135 317 c 0,54,55
 93 275 93 275 93 215.5 c 128,-1,56
 93 156 93 156 135 113 c 0,57,58
 172 71 172 71 221 71 c 128,-1,59
 270 71 270 71 312 106 c 1,60,-1
 356 61 l 1,61,62
 298 8 298 8 221 8 c 2,63,-1
 188 8 l 1,1,-1
EndSplineSet
Validated: 1
EndChar

StartChar: egrave
Encoding: 232 232 157
Width: 454
GlyphClass: 2
Flags: W
HStem: 8 63<160.459 298.882> 180 63<97 358> 359 63<159.74 294.667>
LayerCount: 2
Fore
SplineSet
421 180 m 1,0,-1
 343 180 l 1,1,-1
 111 180 l 1,2,-1
 97 180 l 1,3,-1
 102 167 l 2,4,5
 112 139 112 139 131 117 c 0,6,7
 136 112 136 112 141.5 107 c 128,-1,8
 147 102 147 102 153 98 c 0,9,10
 158 94 158 94 163.5 90 c 128,-1,11
 169 86 169 86 175 83 c 0,12,13
 187 77 187 77 200 74 c 128,-1,14
 213 71 213 71 227 71 c 0,15,16
 259 71 259 71 287 88 c 1,17,-1
 331 42 l 1,18,19
 305 24 305 24 280 16 c 128,-1,20
 255 8 255 8 227 8 c 0,21,22
 151 8 151 8 90.5 68.5 c 128,-1,23
 30 129 30 129 30 215 c 128,-1,24
 30 301 30 301 90.5 361.5 c 128,-1,25
 151 422 151 422 227 422 c 0,26,27
 240 422 240 422 252 420.5 c 128,-1,28
 264 419 264 419 275.5 415.5 c 128,-1,29
 287 412 287 412 297 407 c 0,30,31
 308 402 308 402 320 395 c 128,-1,32
 332 388 332 388 342.5 380 c 128,-1,33
 353 372 353 372 363 361 c 0,34,35
 393 331 393 331 408.5 294.5 c 128,-1,36
 424 258 424 258 424 215 c 0,37,38
 424 197 424 197 421 180 c 1,0,-1
96 243 m 1,39,-1
 109 243 l 1,40,-1
 345 243 l 1,41,-1
 358 243 l 1,42,-1
 355 256 l 2,43,44
 346 286 346 286 326 309 c 128,-1,45
 306 332 306 332 281 346 c 0,46,47
 268 353 268 353 254.5 356 c 128,-1,48
 241 359 241 359 227 359 c 0,49,50
 184 359 184 359 150 330 c 0,51,52
 142 324 142 324 136 317.5 c 128,-1,53
 130 311 130 311 124 304 c 128,-1,54
 118 297 118 297 113.5 289.5 c 128,-1,55
 109 282 109 282 105.5 273.5 c 128,-1,56
 102 265 102 265 99 256 c 2,57,-1
 96 243 l 1,39,-1
214 550 m 1,58,-1
 279 477 l 1,59,-1
 240 477 l 1,60,-1
 175 550 l 1,61,-1
 214 550 l 1,58,-1
EndSplineSet
Validated: 1
EndChar

StartChar: eacute
Encoding: 233 233 158
Width: 454
GlyphClass: 2
Flags: W
HStem: 8 63<160.811 298.882> 180 63<97 358> 359 63<159.74 293.069>
LayerCount: 2
Fore
SplineSet
421 180 m 1,0,-1
 343 180 l 1,1,-1
 111 180 l 1,2,-1
 97 180 l 1,3,-1
 102 167 l 2,4,5
 107 153 107 153 114.5 140.5 c 128,-1,6
 122 128 122 128 131.5 117.5 c 128,-1,7
 141 107 141 107 153 98 c 0,8,9
 186 71 186 71 227 71 c 0,10,11
 259 71 259 71 287 88 c 1,12,-1
 331 42 l 1,13,14
 305 24 305 24 280 16 c 128,-1,15
 255 8 255 8 227 8 c 0,16,17
 151 8 151 8 90.5 68.5 c 128,-1,18
 30 129 30 129 30 215 c 128,-1,19
 30 301 30 301 90.5 361.5 c 128,-1,20
 151 422 151 422 227 422 c 0,21,22
 240 422 240 422 252 420.5 c 128,-1,23
 264 419 264 419 275.5 415.5 c 128,-1,24
 287 412 287 412 297 407 c 0,25,26
 308 402 308 402 320 395 c 128,-1,27
 332 388 332 388 342.5 380 c 128,-1,28
 353 372 353 372 363 361 c 0,29,30
 393 331 393 331 408.5 294.5 c 128,-1,31
 424 258 424 258 424 215 c 0,32,33
 424 197 424 197 421 180 c 1,0,-1
96 243 m 1,34,-1
 109 243 l 1,35,-1
 345 243 l 1,36,-1
 358 243 l 1,37,-1
 355 256 l 2,38,39
 352 267 352 267 346.5 277.5 c 128,-1,40
 341 288 341 288 335 297 c 0,41,42
 322 316 322 316 304 329 c 0,43,44
 288 342 288 342 268 351 c 0,45,46
 258 355 258 355 247.5 357 c 128,-1,47
 237 359 237 359 227 359 c 0,48,49
 184 359 184 359 150 330 c 0,50,51
 142 324 142 324 136 317.5 c 128,-1,52
 130 311 130 311 124 304 c 128,-1,53
 118 297 118 297 113.5 289.5 c 128,-1,54
 109 282 109 282 105.5 273.5 c 128,-1,55
 102 265 102 265 99 256 c 2,56,-1
 96 243 l 1,34,-1
240 550 m 1,57,-1
 279 550 l 1,58,-1
 214 477 l 1,59,-1
 175 477 l 1,60,-1
 240 550 l 1,57,-1
EndSplineSet
Validated: 1
EndChar

StartChar: ecircumflex
Encoding: 234 234 159
Width: 454
GlyphClass: 2
Flags: W
HStem: 8 63<160.459 298.882> 180 63<97 358> 359 63<159.74 294.667>
LayerCount: 2
Fore
SplineSet
421 180 m 1,0,-1
 343 180 l 1,1,-1
 111 180 l 1,2,-1
 97 180 l 1,3,-1
 102 167 l 2,4,5
 112 139 112 139 131 117 c 0,6,7
 136 112 136 112 141.5 107 c 128,-1,8
 147 102 147 102 153 98 c 0,9,10
 158 94 158 94 163.5 90 c 128,-1,11
 169 86 169 86 175 83 c 0,12,13
 187 77 187 77 200 74 c 128,-1,14
 213 71 213 71 227 71 c 0,15,16
 259 71 259 71 287 88 c 1,17,-1
 331 42 l 1,18,19
 305 24 305 24 280 16 c 128,-1,20
 255 8 255 8 227 8 c 0,21,22
 151 8 151 8 90.5 68.5 c 128,-1,23
 30 129 30 129 30 215 c 128,-1,24
 30 301 30 301 90.5 361.5 c 128,-1,25
 151 422 151 422 227 422 c 0,26,27
 240 422 240 422 252 420.5 c 128,-1,28
 264 419 264 419 275.5 415.5 c 128,-1,29
 287 412 287 412 297 407 c 0,30,31
 308 402 308 402 320 395 c 128,-1,32
 332 388 332 388 342.5 380 c 128,-1,33
 353 372 353 372 363 361 c 0,34,35
 393 331 393 331 408.5 294.5 c 128,-1,36
 424 258 424 258 424 215 c 0,37,38
 424 197 424 197 421 180 c 1,0,-1
96 243 m 1,39,-1
 109 243 l 1,40,-1
 345 243 l 1,41,-1
 358 243 l 1,42,-1
 355 256 l 2,43,44
 346 286 346 286 326 309 c 128,-1,45
 306 332 306 332 281 346 c 0,46,47
 268 353 268 353 254.5 356 c 128,-1,48
 241 359 241 359 227 359 c 0,49,50
 184 359 184 359 150 330 c 0,51,52
 142 324 142 324 136 317.5 c 128,-1,53
 130 311 130 311 124 304 c 128,-1,54
 118 297 118 297 113.5 289.5 c 128,-1,55
 109 282 109 282 105.5 273.5 c 128,-1,56
 102 265 102 265 99 256 c 2,57,-1
 96 243 l 1,39,-1
227 529 m 1,58,-1
 223 527 l 1,59,-1
 109 464 l 1,60,-1
 94 493 l 1,61,-1
 227 565 l 1,62,-1
 360 493 l 1,63,-1
 345 464 l 1,64,-1
 231 527 l 1,65,-1
 227 529 l 1,58,-1
EndSplineSet
Validated: 1
EndChar

StartChar: edieresis
Encoding: 235 235 160
Width: 454
GlyphClass: 2
Flags: W
HStem: 8 63<160.811 298.882> 180 63<97 358> 359 63<159.74 294.667> 477 73<131.286 185.718 261.331 315.171>
VStem: 128 67<479.43 539.171> 259 67<480.052 539.171>
LayerCount: 2
Fore
SplineSet
421 180 m 1,0,-1
 343 180 l 1,1,-1
 111 180 l 1,2,-1
 97 180 l 1,3,-1
 102 167 l 2,4,5
 107 153 107 153 114.5 140.5 c 128,-1,6
 122 128 122 128 131.5 117.5 c 128,-1,7
 141 107 141 107 153 98 c 0,8,9
 186 71 186 71 227 71 c 0,10,11
 259 71 259 71 287 88 c 1,12,-1
 331 42 l 1,13,14
 305 24 305 24 280 16 c 128,-1,15
 255 8 255 8 227 8 c 0,16,17
 151 8 151 8 90.5 68.5 c 128,-1,18
 30 129 30 129 30 215 c 128,-1,19
 30 301 30 301 90.5 361.5 c 128,-1,20
 151 422 151 422 227 422 c 0,21,22
 240 422 240 422 252 420.5 c 128,-1,23
 264 419 264 419 275.5 415.5 c 128,-1,24
 287 412 287 412 297 407 c 0,25,26
 308 402 308 402 320 395 c 128,-1,27
 332 388 332 388 342.5 380 c 128,-1,28
 353 372 353 372 363 361 c 0,29,30
 393 331 393 331 408.5 294.5 c 128,-1,31
 424 258 424 258 424 215 c 0,32,33
 424 197 424 197 421 180 c 1,0,-1
96 243 m 1,34,-1
 109 243 l 1,35,-1
 345 243 l 1,36,-1
 358 243 l 1,37,-1
 355 256 l 2,38,39
 346 286 346 286 326 309 c 128,-1,40
 306 332 306 332 281 346 c 0,41,42
 268 353 268 353 254.5 356 c 128,-1,43
 241 359 241 359 227 359 c 0,44,45
 184 359 184 359 150 330 c 0,46,47
 142 324 142 324 136 317.5 c 128,-1,48
 130 311 130 311 124 304 c 128,-1,49
 118 297 118 297 113.5 289.5 c 128,-1,50
 109 282 109 282 105.5 273.5 c 128,-1,51
 102 265 102 265 99 256 c 2,52,-1
 96 243 l 1,34,-1
307.5 482 m 128,-1,54
 300 477 300 477 291 477 c 0,55,56
 289 477 289 477 286.5 477.5 c 128,-1,57
 284 478 284 478 282 478.5 c 128,-1,58
 280 479 280 479 278.5 479.5 c 128,-1,59
 277 480 277 480 275 481.5 c 128,-1,60
 273 483 273 483 271.5 484.5 c 128,-1,61
 270 486 270 486 268 488 c 0,62,63
 263 493 263 493 261 499.5 c 128,-1,64
 259 506 259 506 259 514 c 0,65,66
 259 519 259 519 260 523.5 c 128,-1,67
 261 528 261 528 263 532 c 128,-1,68
 265 536 265 536 268 539 c 0,69,70
 273 544 273 544 278.5 547 c 128,-1,71
 284 550 284 550 291 550 c 0,72,73
 305 550 305 550 315.5 539.5 c 128,-1,74
 326 529 326 529 326 514 c 0,75,76
 326 511 326 511 325.5 507.5 c 128,-1,77
 325 504 325 504 324 501 c 128,-1,78
 323 498 323 498 321 496 c 0,79,53
 315 487 315 487 307.5 482 c 128,-1,54
169 477.5 m 128,-1,81
 166 477 166 477 163 477 c 0,82,83
 158 477 158 477 154 478 c 128,-1,84
 150 479 150 479 146 481.5 c 128,-1,85
 142 484 142 484 139 488 c 0,86,87
 134 493 134 493 131 499.5 c 128,-1,88
 128 506 128 506 128 514 c 0,89,90
 128 519 128 519 129 523.5 c 128,-1,91
 130 528 130 528 132.5 532 c 128,-1,92
 135 536 135 536 139 539 c 0,93,94
 144 544 144 544 150 547 c 128,-1,95
 156 550 156 550 163 550 c 0,96,97
 177 550 177 550 186 539.5 c 128,-1,98
 195 529 195 529 195 514 c 0,99,100
 195 506 195 506 193 499 c 0,101,102
 191 493 191 493 186 488 c 128,-1,103
 181 483 181 483 175 480 c 0,104,80
 172 478 172 478 169 477.5 c 128,-1,81
EndSplineSet
Validated: 1
EndChar

StartChar: igrave
Encoding: 236 236 161
Width: 207
GlyphClass: 2
Flags: W
HStem: 402 20G<58 120>
VStem: 58 62<8 422>
LayerCount: 2
Fore
SplineSet
120 422 m 1,0,-1
 120 8 l 1,1,-1
 58 8 l 1,2,-1
 58 422 l 1,3,-1
 120 422 l 1,0,-1
75 550 m 1,4,-1
 148 477 l 1,5,-1
 103 477 l 1,6,-1
 30 550 l 1,7,-1
 75 550 l 1,4,-1
EndSplineSet
Validated: 1
EndChar

StartChar: iacute
Encoding: 237 237 162
Width: 207
GlyphClass: 2
Flags: W
HStem: 402 20G<58 120>
VStem: 58 62<8 422>
LayerCount: 2
Fore
SplineSet
120 422 m 1,0,-1
 120 8 l 1,1,-1
 58 8 l 1,2,-1
 58 422 l 1,3,-1
 120 422 l 1,0,-1
103 550 m 1,4,-1
 148 550 l 1,5,-1
 75 477 l 1,6,-1
 30 477 l 1,7,-1
 103 550 l 1,4,-1
EndSplineSet
Validated: 1
EndChar

StartChar: icircumflex
Encoding: 238 238 163
Width: 353
GlyphClass: 2
Flags: W
HStem: 402 20G<142 205>
VStem: 142 63<8 422>
LayerCount: 2
Fore
SplineSet
205 422 m 1,0,-1
 205 8 l 1,1,-1
 142 8 l 1,2,-1
 142 422 l 1,3,-1
 205 422 l 1,0,-1
30 493 m 1,4,-1
 173 565 l 1,5,-1
 316 494 l 1,6,-1
 301 464 l 1,7,-1
 177 527 l 1,8,-1
 173 529 l 1,9,-1
 168 527 l 1,10,-1
 44 464 l 1,11,-1
 30 493 l 1,4,-1
EndSplineSet
Validated: 1
EndChar

StartChar: idieresis
Encoding: 239 239 164
Width: 278
GlyphClass: 2
Flags: W
HStem: 402 20G<107 170> 477 73<33.2856 91.6553 178.286 236.171>
VStem: 30 73<487.829 539.171> 107 63<8 422> 175 72<487.829 539.171>
LayerCount: 2
Fore
SplineSet
170 422 m 1,0,-1
 170 8 l 1,1,-1
 107 8 l 1,2,-1
 107 422 l 1,3,-1
 170 422 l 1,0,-1
197 547.5 m 128,-1,5
 203 550 203 550 211 550 c 0,6,7
 226 550 226 550 236.5 539.5 c 128,-1,8
 247 529 247 529 247 513.5 c 128,-1,9
 247 498 247 498 236.5 487.5 c 128,-1,10
 226 477 226 477 211 477 c 0,11,12
 208 477 208 477 205 477.5 c 128,-1,13
 202 478 202 478 199.5 478.5 c 128,-1,14
 197 479 197 479 194.5 480.5 c 128,-1,15
 192 482 192 482 190 483.5 c 128,-1,16
 188 485 188 485 186 488 c 0,17,18
 181 493 181 493 178 499.5 c 128,-1,19
 175 506 175 506 175 514 c 0,20,21
 175 519 175 519 176 523.5 c 128,-1,22
 177 528 177 528 179.5 532 c 128,-1,23
 182 536 182 536 186 539 c 0,24,4
 191 545 191 545 197 547.5 c 128,-1,5
92.5 487.5 m 128,-1,26
 82 477 82 477 66 477 c 0,27,28
 61 477 61 477 56.5 478 c 128,-1,29
 52 479 52 479 48 481.5 c 128,-1,30
 44 484 44 484 41 488 c 0,31,32
 36 493 36 493 33 499.5 c 128,-1,33
 30 506 30 506 30 514 c 0,34,35
 30 519 30 519 31 523.5 c 128,-1,36
 32 528 32 528 34.5 532 c 128,-1,37
 37 536 37 536 41 539 c 0,38,39
 46 544 46 544 52 547 c 0,40,41
 58 550 58 550 66 550 c 0,42,43
 81 550 81 550 92 539.5 c 128,-1,44
 103 529 103 529 103 513.5 c 128,-1,25
 103 498 103 498 92.5 487.5 c 128,-1,26
EndSplineSet
Validated: 1
EndChar

StartChar: eth
Encoding: 240 240 165
Width: 471
GlyphClass: 2
Flags: W
HStem: 44 63<158.781 296.396> 395 63<158.983 296.43>
VStem: 30 63<173.86 328.14> 361 63<174.012 388.61>
LayerCount: 2
Fore
SplineSet
135 149 m 0,0,1
 174 107 174 107 228 107 c 0,2,3
 254 107 254 107 277 117.5 c 128,-1,4
 300 128 300 128 319 149 c 0,5,6
 340 170 340 170 350.5 196 c 128,-1,7
 361 222 361 222 361 251 c 128,-1,8
 361 280 361 280 350.5 306 c 128,-1,9
 340 332 340 332 319 353 c 0,10,11
 300 374 300 374 277 384.5 c 128,-1,12
 254 395 254 395 228 395 c 0,13,14
 175 395 175 395 135 353 c 0,15,16
 93 311 93 311 93 251 c 128,-1,17
 93 191 93 191 135 149 c 0,0,1
428 624 m 1,18,-1
 437 594 l 1,19,-1
 377 574 l 1,20,-1
 367 571 l 1,21,-1
 371 561 l 2,22,23
 424 426 424 426 424 251 c 0,24,25
 424 229 424 229 420 209.5 c 128,-1,26
 416 190 416 190 408.5 171.5 c 128,-1,27
 401 153 401 153 390 136.5 c 128,-1,28
 379 120 379 120 363 105 c 0,29,30
 343 85 343 85 320 71 c 0,31,32
 299 58 299 58 276 51 c 128,-1,33
 253 44 253 44 228 44 c 0,34,35
 151 44 151 44 90.5 104.5 c 128,-1,36
 30 165 30 165 30 251 c 128,-1,37
 30 337 30 337 90.5 397.5 c 128,-1,38
 151 458 151 458 228 458 c 0,39,40
 282 458 282 458 327 427 c 2,41,-1
 347 414 l 1,42,-1
 342 437 l 2,43,44
 330 495 330 495 312 543 c 2,45,-1
 309 552 l 1,46,-1
 301 548 l 1,47,-1
 248 529 l 1,48,-1
 239 559 l 1,49,-1
 286 577 l 1,50,-1
 296 580 l 1,51,-1
 291 591 l 2,52,53
 280 615 280 615 267.5 633 c 128,-1,54
 255 651 255 651 244 662 c 1,55,-1
 244 735 l 1,56,57
 258 728 258 728 271.5 717 c 128,-1,58
 285 706 285 706 298 690 c 128,-1,59
 311 674 311 674 324 654 c 0,60,61
 338 634 338 634 350 608 c 2,62,-1
 354 601 l 1,63,-1
 362 603 l 1,64,-1
 428 624 l 1,18,-1
EndSplineSet
Validated: 1
EndChar

StartChar: ntilde
Encoding: 241 241 166
Width: 455
GlyphClass: 2
Flags: W
HStem: 364 63<159.128 295.524> 469 32<258.604 313.312> 538 31<137.625 205.893>
VStem: 30 63<13 296.951> 361 63<13 296.951>
LayerCount: 2
Fore
SplineSet
158.5 535.5 m 128,-1,1
 152 533 152 533 145 528 c 0,2,3
 130 519 130 519 123 503 c 1,4,-1
 91 510 l 1,5,6
 101 539 101 539 128 555 c 0,7,8
 150 569 150 569 172 569 c 0,9,10
 184 569 184 569 189 567 c 2,11,12
 221 559 221 559 239 528 c 0,13,14
 250 509 250 509 270 502 c 0,15,16
 275 501 275 501 282 501 c 0,17,18
 287 501 287 501 291.5 502 c 128,-1,19
 296 503 296 503 300.5 505 c 128,-1,20
 305 507 305 507 309 510 c 2,21,-1
 310 510 l 2,22,23
 325 521 325 521 332 535 c 1,24,-1
 362 528 l 1,25,26
 352 499 352 499 326 482 c 0,27,28
 304 469 304 469 282 469 c 0,29,30
 279 469 279 469 274 469.5 c 128,-1,31
 269 470 269 470 264 471 c 0,32,33
 256 473 256 473 249 476.5 c 128,-1,34
 242 480 242 480 236 485 c 128,-1,35
 230 490 230 490 224.5 496 c 128,-1,36
 219 502 219 502 215 510 c 0,37,38
 210 520 210 520 202 526.5 c 128,-1,39
 194 533 194 533 184 536 c 0,40,41
 181 537 181 537 179.5 537 c 128,-1,42
 178 537 178 537 176 537.5 c 128,-1,43
 174 538 174 538 172 538 c 0,44,0
 165 538 165 538 158.5 535.5 c 128,-1,1
417.5 274.5 m 128,-1,46
 424 249 424 249 424 220 c 2,47,-1
 424 13 l 1,48,-1
 361 13 l 1,49,-1
 361 220 l 2,50,51
 361 250 361 250 350.5 275.5 c 128,-1,52
 340 301 340 301 319 322 c 0,53,54
 299 343 299 343 276 353.5 c 128,-1,55
 253 364 253 364 227 364 c 128,-1,56
 201 364 201 364 178.5 353.5 c 128,-1,57
 156 343 156 343 135 322 c 0,58,59
 93 280 93 280 93 220 c 2,60,-1
 93 13 l 1,61,-1
 30 13 l 1,62,-1
 30 220 l 2,63,64
 30 306 30 306 90.5 366.5 c 128,-1,65
 151 427 151 427 227 427 c 0,66,67
 246 427 246 427 263.5 423 c 128,-1,68
 281 419 281 419 297 412 c 0,69,70
 314 404 314 404 331 393 c 128,-1,71
 348 382 348 382 363 366 c 0,72,73
 383 346 383 346 397 323 c 128,-1,45
 411 300 411 300 417.5 274.5 c 128,-1,46
EndSplineSet
Validated: 1
EndChar

StartChar: ograve
Encoding: 242 242 167
Width: 454
GlyphClass: 2
Flags: W
HStem: 13 63<158.581 295.253> 364 63<159.156 295.179>
VStem: 30 63<142.86 297.14> 361 63<142.933 296.535>
LayerCount: 2
Fore
SplineSet
90.5 366.5 m 128,-1,1
 151 427 151 427 227 427 c 0,2,3
 240 427 240 427 251.5 425.5 c 128,-1,4
 263 424 263 424 274.5 420.5 c 128,-1,5
 286 417 286 417 297 411 c 0,6,7
 309 406 309 406 321 399 c 0,8,9
 369 371 369 371 396 324 c 0,10,11
 410 300 410 300 417 274 c 128,-1,12
 424 248 424 248 424 220 c 0,13,14
 424 198 424 198 420 178.5 c 128,-1,15
 416 159 416 159 408.5 140.5 c 128,-1,16
 401 122 401 122 390 105.5 c 128,-1,17
 379 89 379 89 363 74 c 0,18,19
 333 44 333 44 297 28 c 0,20,21
 265 13 265 13 227 13 c 0,22,23
 151 13 151 13 90.5 73.5 c 128,-1,24
 30 134 30 134 30 220 c 128,-1,0
 30 306 30 306 90.5 366.5 c 128,-1,1
135 118 m 0,25,26
 174 76 174 76 226.5 76 c 128,-1,27
 279 76 279 76 319 118 c 0,28,29
 361 160 361 160 361 220 c 0,30,31
 361 259 361 259 342 292 c 0,32,33
 332 309 332 309 319 322 c 128,-1,34
 306 335 306 335 291 345 c 0,35,36
 284 350 284 350 276 353.5 c 128,-1,37
 268 357 268 357 260 359.5 c 128,-1,38
 252 362 252 362 244 363 c 128,-1,39
 236 364 236 364 227 364 c 0,40,41
 175 364 175 364 135 322 c 0,42,43
 93 280 93 280 93 220 c 128,-1,44
 93 160 93 160 135 118 c 0,25,26
214 556 m 1,45,-1
 279 483 l 1,46,-1
 240 483 l 1,47,-1
 175 556 l 1,48,-1
 214 556 l 1,45,-1
EndSplineSet
Validated: 1
EndChar

StartChar: oacute
Encoding: 243 243 168
Width: 454
GlyphClass: 2
Flags: W
HStem: 13 63<158.581 295.253> 364 63<158.762 295.524>
VStem: 30 63<142.86 295.714> 361 63<142.933 297.024>
LayerCount: 2
Fore
SplineSet
90.5 366.5 m 128,-1,1
 151 427 151 427 227 427 c 0,2,3
 246 427 246 427 263.5 423 c 128,-1,4
 281 419 281 419 297 412 c 0,5,6
 314 404 314 404 331 393 c 128,-1,7
 348 382 348 382 363 366 c 0,8,9
 383 346 383 346 397 323 c 128,-1,10
 411 300 411 300 417.5 274.5 c 128,-1,11
 424 249 424 249 424 220 c 0,12,13
 424 198 424 198 420 178.5 c 128,-1,14
 416 159 416 159 408.5 140.5 c 128,-1,15
 401 122 401 122 390 105.5 c 128,-1,16
 379 89 379 89 363 74 c 0,17,18
 333 44 333 44 297 28 c 0,19,20
 265 13 265 13 227 13 c 0,21,22
 151 13 151 13 90.5 73.5 c 128,-1,23
 30 134 30 134 30 220 c 128,-1,0
 30 306 30 306 90.5 366.5 c 128,-1,1
135 118 m 0,24,25
 174 76 174 76 226.5 76 c 128,-1,26
 279 76 279 76 319 118 c 0,27,28
 361 160 361 160 361 220 c 0,29,30
 361 250 361 250 350.5 275.5 c 128,-1,31
 340 301 340 301 319 322 c 0,32,33
 299 343 299 343 276 353.5 c 128,-1,34
 253 364 253 364 227 364 c 0,35,36
 193 364 193 364 163 345 c 0,37,38
 153 339 153 339 144 330 c 0,39,40
 134 322 134 322 126.5 312.5 c 128,-1,41
 119 303 119 303 112 292 c 0,42,43
 102 275 102 275 97.5 257 c 128,-1,44
 93 239 93 239 93 220 c 0,45,46
 93 160 93 160 135 118 c 0,24,25
240 556 m 1,47,-1
 279 556 l 1,48,-1
 214 483 l 1,49,-1
 175 483 l 1,50,-1
 240 556 l 1,47,-1
EndSplineSet
Validated: 1
EndChar

StartChar: ocircumflex
Encoding: 244 244 169
Width: 454
GlyphClass: 2
Flags: W
HStem: 13 63<158.581 295.253> 364 63<158.762 295.524>
VStem: 30 63<142.86 295.714> 361 63<142.933 297.024>
LayerCount: 2
Fore
SplineSet
90.5 366.5 m 128,-1,1
 151 427 151 427 227 427 c 0,2,3
 246 427 246 427 263.5 423 c 128,-1,4
 281 419 281 419 297 412 c 0,5,6
 314 404 314 404 331 393 c 128,-1,7
 348 382 348 382 363 366 c 0,8,9
 383 346 383 346 397 323 c 128,-1,10
 411 300 411 300 417.5 274.5 c 128,-1,11
 424 249 424 249 424 220 c 0,12,13
 424 198 424 198 420 178.5 c 128,-1,14
 416 159 416 159 408.5 140.5 c 128,-1,15
 401 122 401 122 390 105.5 c 128,-1,16
 379 89 379 89 363 74 c 0,17,18
 333 44 333 44 297 28 c 0,19,20
 265 13 265 13 227 13 c 0,21,22
 151 13 151 13 90.5 73.5 c 128,-1,23
 30 134 30 134 30 220 c 128,-1,0
 30 306 30 306 90.5 366.5 c 128,-1,1
135 118 m 0,24,25
 174 76 174 76 226.5 76 c 128,-1,26
 279 76 279 76 319 118 c 0,27,28
 361 160 361 160 361 220 c 0,29,30
 361 250 361 250 350.5 275.5 c 128,-1,31
 340 301 340 301 319 322 c 0,32,33
 299 343 299 343 276 353.5 c 128,-1,34
 253 364 253 364 227 364 c 0,35,36
 193 364 193 364 163 345 c 0,37,38
 153 339 153 339 144 330 c 0,39,40
 134 322 134 322 126.5 312.5 c 128,-1,41
 119 303 119 303 112 292 c 0,42,43
 102 275 102 275 97.5 257 c 128,-1,44
 93 239 93 239 93 220 c 0,45,46
 93 160 93 160 135 118 c 0,24,25
227 534 m 1,47,-1
 223 532 l 1,48,-1
 108 470 l 1,49,-1
 94 499 l 1,50,-1
 227 570 l 1,51,-1
 360 499 l 1,52,-1
 346 470 l 1,53,-1
 231 532 l 1,54,-1
 227 534 l 1,47,-1
EndSplineSet
Validated: 1
EndChar

StartChar: otilde
Encoding: 245 245 170
Width: 454
GlyphClass: 2
Flags: W
HStem: 13 63<158.581 295.253> 364 63<159.128 295.524> 469 32<258.672 313.312> 538 31<137.625 205.552>
VStem: 30 63<142.86 297.14> 361 63<142.933 297.024>
LayerCount: 2
Fore
SplineSet
158.5 535.5 m 128,-1,1
 152 533 152 533 145 528 c 0,2,3
 130 519 130 519 123 503 c 1,4,-1
 91 510 l 1,5,6
 101 539 101 539 128 555 c 0,7,8
 150 569 150 569 172 569 c 0,9,10
 184 569 184 569 190 567 c 0,11,12
 221 559 221 559 239 528 c 0,13,14
 250 509 250 509 270 502 c 0,15,16
 275 501 275 501 282 501 c 0,17,18
 287 501 287 501 291.5 502 c 128,-1,19
 296 503 296 503 300.5 505 c 128,-1,20
 305 507 305 507 309 510 c 2,21,-1
 310 510 l 2,22,23
 325 521 325 521 332 535 c 1,24,-1
 362 528 l 1,25,26
 352 499 352 499 326 482 c 0,27,28
 304 469 304 469 282 469 c 0,29,30
 279 469 279 469 274 469.5 c 128,-1,31
 269 470 269 470 264 471 c 0,32,33
 232 479 232 479 215 510 c 0,34,35
 211 517 211 517 206 522.5 c 128,-1,36
 201 528 201 528 195.5 531.5 c 128,-1,37
 190 535 190 535 183 536 c 0,38,39
 175 538 175 538 172 538 c 0,40,0
 165 538 165 538 158.5 535.5 c 128,-1,1
135 118 m 0,41,42
 174 76 174 76 226.5 76 c 128,-1,43
 279 76 279 76 319 118 c 0,44,45
 361 160 361 160 361 220 c 0,46,47
 361 250 361 250 350.5 275.5 c 128,-1,48
 340 301 340 301 319 322 c 0,49,50
 299 343 299 343 276 353.5 c 128,-1,51
 253 364 253 364 227 364 c 128,-1,52
 201 364 201 364 178.5 353.5 c 128,-1,53
 156 343 156 343 135 322 c 0,54,55
 93 280 93 280 93 220 c 128,-1,56
 93 160 93 160 135 118 c 0,41,42
90.5 366.5 m 128,-1,58
 151 427 151 427 227 427 c 0,59,60
 246 427 246 427 263.5 423 c 128,-1,61
 281 419 281 419 297 412 c 0,62,63
 314 404 314 404 331 393 c 128,-1,64
 348 382 348 382 363 366 c 0,65,66
 383 346 383 346 397 323 c 128,-1,67
 411 300 411 300 417.5 274.5 c 128,-1,68
 424 249 424 249 424 220 c 0,69,70
 424 198 424 198 420 178.5 c 128,-1,71
 416 159 416 159 408.5 140.5 c 128,-1,72
 401 122 401 122 390 105.5 c 128,-1,73
 379 89 379 89 363 74 c 0,74,75
 333 44 333 44 297 28 c 0,76,77
 265 13 265 13 227 13 c 0,78,79
 151 13 151 13 90.5 73.5 c 128,-1,80
 30 134 30 134 30 220 c 128,-1,57
 30 306 30 306 90.5 366.5 c 128,-1,58
EndSplineSet
Validated: 1
EndChar

StartChar: odieresis
Encoding: 246 246 171
Width: 454
GlyphClass: 2
Flags: W
HStem: 13 63<158.581 295.253> 364 63<159.128 295.524> 483 73<131.29 185.202 261.841 322.71>
VStem: 30 63<142.86 297.14> 128 67<493.829 552.896> 259 67<486.016 552.896> 361 63<142.933 297.024>
LayerCount: 2
Fore
SplineSet
185.5 493.5 m 128,-1,1
 176 483 176 483 163 483 c 0,2,3
 156 483 156 483 150 486 c 128,-1,4
 144 489 144 489 138.5 494 c 128,-1,5
 133 499 133 499 130.5 505 c 128,-1,6
 128 511 128 511 128 519 c 0,7,8
 128 534 128 534 139 545 c 128,-1,9
 150 556 150 556 163 556 c 0,10,11
 165 556 165 556 167.5 555.5 c 128,-1,12
 170 555 170 555 172 554.5 c 128,-1,13
 174 554 174 554 175.5 553 c 128,-1,14
 177 552 177 552 179 551 c 128,-1,15
 181 550 181 550 182.5 548.5 c 128,-1,16
 184 547 184 547 186 545 c 0,17,18
 191 539 191 539 193 533 c 128,-1,19
 195 527 195 527 195 519 c 0,20,0
 195 504 195 504 185.5 493.5 c 128,-1,1
304 486 m 128,-1,22
 298 483 298 483 291 483 c 0,23,24
 289 483 289 483 286.5 483.5 c 128,-1,25
 284 484 284 484 282 484.5 c 128,-1,26
 280 485 280 485 278.5 485.5 c 128,-1,27
 277 486 277 486 275 487.5 c 128,-1,28
 273 489 273 489 271.5 490.5 c 128,-1,29
 270 492 270 492 268 494 c 0,30,31
 263 499 263 499 261 505 c 128,-1,32
 259 511 259 511 259 519 c 0,33,34
 259 534 259 534 268.5 545 c 128,-1,35
 278 556 278 556 291 556 c 128,-1,36
 304 556 304 556 315 545 c 128,-1,37
 326 534 326 534 326 519 c 0,38,39
 326 516 326 516 325.5 514 c 128,-1,40
 325 512 325 512 324.5 509.5 c 128,-1,41
 324 507 324 507 323.5 505 c 128,-1,42
 323 503 323 503 321.5 501 c 128,-1,43
 320 499 320 499 318.5 497 c 128,-1,44
 317 495 317 495 315 494 c 0,45,21
 310 489 310 489 304 486 c 128,-1,22
135 118 m 0,46,47
 174 76 174 76 226.5 76 c 128,-1,48
 279 76 279 76 319 118 c 0,49,50
 361 160 361 160 361 220 c 0,51,52
 361 250 361 250 350.5 275.5 c 128,-1,53
 340 301 340 301 319 322 c 0,54,55
 299 343 299 343 276 353.5 c 128,-1,56
 253 364 253 364 227 364 c 128,-1,57
 201 364 201 364 178.5 353.5 c 128,-1,58
 156 343 156 343 135 322 c 0,59,60
 93 280 93 280 93 220 c 128,-1,61
 93 160 93 160 135 118 c 0,46,47
90.5 366.5 m 128,-1,63
 151 427 151 427 227 427 c 0,64,65
 246 427 246 427 263.5 423 c 128,-1,66
 281 419 281 419 297 412 c 0,67,68
 314 404 314 404 331 393 c 128,-1,69
 348 382 348 382 363 366 c 0,70,71
 383 346 383 346 397 323 c 128,-1,72
 411 300 411 300 417.5 274.5 c 128,-1,73
 424 249 424 249 424 220 c 0,74,75
 424 198 424 198 420 178.5 c 128,-1,76
 416 159 416 159 408.5 140.5 c 128,-1,77
 401 122 401 122 390 105.5 c 128,-1,78
 379 89 379 89 363 74 c 0,79,80
 333 44 333 44 297 28 c 0,81,82
 265 13 265 13 227 13 c 0,83,84
 151 13 151 13 90.5 73.5 c 128,-1,85
 30 134 30 134 30 220 c 128,-1,62
 30 306 30 306 90.5 366.5 c 128,-1,63
EndSplineSet
Validated: 1
EndChar

StartChar: divide
Encoding: 247 247 172
Width: 454
GlyphClass: 2
Flags: W
HStem: 38 63<208.251 252.768> 224 63<30 424> 420 63<201.17 252.768>
VStem: 200 54<47.2822 100.487 420.411 482.438>
LayerCount: 2
Fore
SplineSet
237.5 422 m 128,-1,1
 233 420 233 420 227 420 c 128,-1,2
 221 420 221 420 216.5 422 c 128,-1,3
 212 424 212 424 207.5 429 c 128,-1,4
 203 434 203 434 201.5 439.5 c 128,-1,5
 200 445 200 445 200 452 c 0,6,7
 200 460 200 460 203.5 467.5 c 128,-1,8
 207 475 207 475 213.5 479 c 128,-1,9
 220 483 220 483 227 483 c 0,10,11
 230 483 230 483 232.5 482.5 c 128,-1,12
 235 482 235 482 237.5 481 c 128,-1,13
 240 480 240 480 242 478 c 128,-1,14
 244 476 244 476 246 474 c 0,15,16
 250 469 250 469 252 463.5 c 128,-1,17
 254 458 254 458 254 451.5 c 128,-1,18
 254 445 254 445 252.5 439.5 c 128,-1,19
 251 434 251 434 246.5 429 c 128,-1,0
 242 424 242 424 237.5 422 c 128,-1,1
216.5 98.5 m 128,-1,21
 221 101 221 101 227 101 c 128,-1,22
 233 101 233 101 237.5 98.5 c 128,-1,23
 242 96 242 96 246 91.5 c 128,-1,24
 250 87 250 87 252 81.5 c 128,-1,25
 254 76 254 76 254 69 c 128,-1,26
 254 62 254 62 252.5 57 c 128,-1,27
 251 52 251 52 246.5 47 c 128,-1,28
 242 42 242 42 237.5 40 c 128,-1,29
 233 38 233 38 227 38 c 0,30,31
 216 38 216 38 208 47 c 128,-1,32
 200 56 200 56 200 69 c 0,33,34
 200 76 200 76 202 81.5 c 128,-1,35
 204 87 204 87 208 91.5 c 128,-1,20
 212 96 212 96 216.5 98.5 c 128,-1,21
424 287 m 1,36,-1
 424 224 l 1,37,-1
 30 224 l 1,38,-1
 30 287 l 1,39,-1
 424 287 l 1,36,-1
EndSplineSet
Validated: 1
EndChar

StartChar: oslash
Encoding: 248 248 173
Width: 454
GlyphClass: 2
Flags: W
HStem: 13 63<159.751 295.272> 364 63<158.802 293.743> 403 20G<377.5 417>
VStem: 30 63<143.914 295.582> 361 63<142.933 294.717>
LayerCount: 2
Fore
SplineSet
397 423 m 1,0,-1
 420 400 l 1,1,-1
 381 361 l 1,2,-1
 375 355 l 1,3,-1
 380 348 l 2,4,5
 424 292 424 292 424 220 c 0,6,7
 424 198 424 198 420 178.5 c 128,-1,8
 416 159 416 159 408.5 140.5 c 128,-1,9
 401 122 401 122 390 105.5 c 128,-1,10
 379 89 379 89 363 74 c 0,11,12
 333 44 333 44 297 28 c 0,13,14
 265 13 265 13 227 13 c 0,15,16
 164 13 164 13 109 57 c 2,17,-1
 102 62 l 1,18,-1
 96 56 l 1,19,-1
 57 17 l 1,20,-1
 34 39 l 1,21,-1
 73 79 l 1,22,-1
 79 85 l 1,23,-1
 74 92 l 2,24,25
 30 148 30 148 30 220 c 0,26,27
 30 306 30 306 90.5 366.5 c 128,-1,28
 151 427 151 427 227 427 c 0,29,30
 290 427 290 427 345 382 c 2,31,-1
 352 377 l 1,32,-1
 358 383 l 1,33,-1
 397 423 l 1,0,-1
103.5 274.5 m 128,-1,35
 93 249 93 249 93 220 c 0,36,37
 93 198 93 198 99 178 c 128,-1,38
 105 158 105 158 118 139 c 2,39,-1
 125 129 l 1,40,-1
 133 138 l 1,41,-1
 300 324 l 1,42,-1
 308 332 l 1,43,-1
 298 339 l 2,44,45
 266 364 266 364 227 364 c 0,46,47
 201 364 201 364 178 353.5 c 128,-1,48
 155 343 155 343 135 322 c 0,49,34
 114 300 114 300 103.5 274.5 c 128,-1,35
156 100 m 2,50,51
 188 76 188 76 227 76 c 0,52,53
 279 76 279 76 319 118 c 0,54,55
 361 160 361 160 361 220 c 0,56,57
 361 264 361 264 336 300 c 2,58,-1
 329 310 l 1,59,-1
 321 301 l 1,60,-1
 154 115 l 1,61,-1
 146 106 l 1,62,-1
 156 100 l 2,50,51
EndSplineSet
Validated: 1
EndChar

StartChar: ugrave
Encoding: 249 249 174
Width: 455
GlyphClass: 2
Flags: W
HStem: 13 63<159.109 295.272>
VStem: 30 63<142.67 427> 361 63<143.049 427>
LayerCount: 2
Fore
SplineSet
361 220 m 2,0,-1
 361 427 l 1,1,-1
 424 427 l 1,2,-1
 424 220 l 2,3,4
 424 198 424 198 420 178.5 c 128,-1,5
 416 159 416 159 408.5 140.5 c 128,-1,6
 401 122 401 122 390 105.5 c 128,-1,7
 379 89 379 89 363 74 c 0,8,9
 333 44 333 44 297 28 c 0,10,11
 265 13 265 13 227 13 c 0,12,13
 151 13 151 13 90.5 73.5 c 128,-1,14
 30 134 30 134 30 220 c 2,15,-1
 30 427 l 1,16,-1
 93 427 l 1,17,-1
 93 220 l 2,18,19
 93 207 93 207 95 194.5 c 128,-1,20
 97 182 97 182 101.5 170 c 128,-1,21
 106 158 106 158 112 147 c 0,22,23
 117 139 117 139 123 132 c 128,-1,24
 129 125 129 125 135.5 118.5 c 128,-1,25
 142 112 142 112 149 106 c 128,-1,26
 156 100 156 100 163 95 c 0,27,28
 192 76 192 76 227 76 c 0,29,30
 279 76 279 76 319 118 c 0,31,32
 361 160 361 160 361 220 c 2,0,-1
214 556 m 1,33,-1
 279 483 l 1,34,-1
 240 483 l 1,35,-1
 175 556 l 1,36,-1
 214 556 l 1,33,-1
EndSplineSet
Validated: 1
EndChar

StartChar: uacute
Encoding: 250 250 175
Width: 455
GlyphClass: 2
Flags: W
HStem: 13 63<159.109 295.272>
VStem: 30 63<142.67 427> 361 63<143.049 427>
LayerCount: 2
Fore
SplineSet
361 220 m 2,0,-1
 361 427 l 1,1,-1
 424 427 l 1,2,-1
 424 220 l 2,3,4
 424 198 424 198 420 178.5 c 128,-1,5
 416 159 416 159 408.5 140.5 c 128,-1,6
 401 122 401 122 390 105.5 c 128,-1,7
 379 89 379 89 363 74 c 0,8,9
 333 44 333 44 297 28 c 0,10,11
 265 13 265 13 227 13 c 0,12,13
 151 13 151 13 90.5 73.5 c 128,-1,14
 30 134 30 134 30 220 c 2,15,-1
 30 427 l 1,16,-1
 93 427 l 1,17,-1
 93 220 l 2,18,19
 93 207 93 207 95 194.5 c 128,-1,20
 97 182 97 182 101.5 170 c 128,-1,21
 106 158 106 158 112 147 c 0,22,23
 117 139 117 139 123 132 c 128,-1,24
 129 125 129 125 135.5 118.5 c 128,-1,25
 142 112 142 112 149 106 c 128,-1,26
 156 100 156 100 163 95 c 0,27,28
 192 76 192 76 227 76 c 0,29,30
 279 76 279 76 319 118 c 0,31,32
 361 160 361 160 361 220 c 2,0,-1
240 556 m 1,33,-1
 279 556 l 1,34,-1
 214 483 l 1,35,-1
 175 483 l 1,36,-1
 240 556 l 1,33,-1
EndSplineSet
Validated: 1
EndChar

